<?xml version="1.0" encoding="UTF-8" standalone="no"?>
<svg
   xmlns:dc="http://purl.org/dc/elements/1.1/"
   xmlns:cc="http://creativecommons.org/ns#"
   xmlns:rdf="http://www.w3.org/1999/02/22-rdf-syntax-ns#"
   xmlns:svg="http://www.w3.org/2000/svg"
   xmlns="http://www.w3.org/2000/svg"
   viewBox="0 0 535.61334 617.84003"
   height="339.634914162"
   width="294.433804742"
   xml:space="preserve"
   id="svg2"
   version="1.1"><metadata
     id="metadata8"><rdf:RDF><cc:Work
         rdf:about=""><dc:format>image/svg+xml</dc:format><dc:type
           rdf:resource="http://purl.org/dc/dcmitype/StillImage" /></cc:Work></rdf:RDF></metadata><defs
     id="defs6"><clipPath
       id="clipPath32"
       clipPathUnits="userSpaceOnUse"><path
         id="path30"
         d="M 2011.75,4151.78 H 2011 c -146.98,-3.84 -295.3,11.98 -421.65,64.5 -226.29,-113.03 -464.63,-172.2 -670.502,-166.29 -162.094,4.44 -303.453,48.23 -418.633,128.12 V 2271.17 l -1.176,-169.67 c -0.301,-54.02 -0.898,-106.68 -0.898,-158.32 0,-102.08 1.925,-199.88 9.984,-292.5 C 541.719,1264.23 677.012,974.852 933.848,740.039 1172.28,522.27 1489.25,375.66 1820.09,232.43 c 21.66,-9.309 133.66,-53.551 190.91,-75.598 v -0.312 c 0.15,0 0.3,0.16 0.3,0.16 0.15,0 0.3,-0.16 0.45,-0.16 v 0.312 c 57.03,22.047 169.19,66.289 190.78,75.598 331.11,143.23 648.03,289.84 886.22,507.609 256.98,234.813 392.36,524.191 425.81,910.641 8.13,92.62 10.05,190.42 10.05,292.5 0,51.64 -0.45,104.3 -0.88,158.32 l -1.2,169.67 v 1906.94 c -115.1,-79.89 -256.53,-123.68 -418.69,-128.12 -205.79,-5.91 -443.85,53.26 -670.23,166.29 -126.64,-52.52 -275.02,-68.34 -421.86,-64.5" /></clipPath><clipPath
       id="clipPath38"
       clipPathUnits="userSpaceOnUse"><path
         id="path36"
         d="M 498.141,4216.28 H 3524.61 V 156.52 H 498.141 Z" /></clipPath><linearGradient
       id="linearGradient50"
       spreadMethod="pad"
       gradientTransform="matrix(3026.45,0,0,3026.45,498.145,2186.19)"
       gradientUnits="userSpaceOnUse"
       y2="0"
       x2="1"
       y1="0"
       x1="0"><stop
         id="stop40"
         offset="0"
         style="stop-opacity:1;stop-color:#a5a6a9" /><stop
         id="stop42"
         offset="0.350006"
         style="stop-opacity:1;stop-color:#f5f6f5" /><stop
         id="stop44"
         offset="0.509094"
         style="stop-opacity:1;stop-color:#ffffff" /><stop
         id="stop46"
         offset="0.649994"
         style="stop-opacity:1;stop-color:#f6f7f7" /><stop
         id="stop48"
         offset="1"
         style="stop-opacity:1;stop-color:#a5a6a9" /></linearGradient><clipPath
       id="clipPath66"
       clipPathUnits="userSpaceOnUse"><path
         id="path64"
         d="m 515.816,2985.64 -8.421,-96.18 -41.067,-12.86 -73.082,-32.56 -88.766,-34.62 -2.886,-51.33 -31.149,-4.44 -88.992,-37.58 -95.5702,-46.45 -9.2461,-56.82 -38.7656,-88.47 v -0.59 l 32.9922,-70.72 2.293,-72.79 11.832,-67.03 -7.4727,-78.11 -1.4765,-84.49 33.2929,-71.45 116.063,-27.08 75.32,-44.09 51.031,-135.66 130.793,-191.45 70.723,101.64 42.746,178.12 84.859,-1.76 29.801,-61.11 38.91,-119.24 54.606,-72.8 74.925,-31.06 -64.64,92.17 -45.137,222.2 -83.812,115.12 38.027,234.94 158.898,68.06 257.585,98.53 -68.21,53.12 -204.472,15.1 15.097,121.15 98.535,90.84 38.03,98.55 -325.803,22.48 -37.875,83.45 -26.914,13.61 -44.238,-15.82 -23.008,31.36 z" /></clipPath><clipPath
       id="clipPath72"
       clipPathUnits="userSpaceOnUse"><path
         id="path70"
         d="M 37.8711,3019.52 H 1140.03 V 1674.66 H 37.8711 Z" /></clipPath><linearGradient
       id="linearGradient80"
       spreadMethod="pad"
       gradientTransform="matrix(1102.19,0,0,1102.19,37.8809,2347.13)"
       gradientUnits="userSpaceOnUse"
       y2="0"
       x2="1"
       y1="0"
       x1="0"><stop
         id="stop74"
         offset="0"
         style="stop-opacity:1;stop-color:#a5a6a9" /><stop
         id="stop76"
         offset="0.412125"
         style="stop-opacity:1;stop-color:#ffffff" /><stop
         id="stop78"
         offset="1"
         style="stop-opacity:1;stop-color:#a5a6a9" /></linearGradient><clipPath
       id="clipPath92"
       clipPathUnits="userSpaceOnUse"><path
         id="path90"
         d="m 3434.79,2988.16 -44.21,15.82 -26.94,-13.61 -37.87,-83.45 -325.78,-22.48 37.86,-98.55 98.55,-90.84 15.23,-121.15 -204.47,-15.1 -68.2,-53.12 257.44,-98.53 159.03,-68.06 38.03,-234.94 5.18,-28.55 -89.21,-86.57 -0.59,-23.95 -57.12,-210.09 -40.54,-74.12 91.74,56.22 50.3,89.81 28.39,150.31 101.36,-16.58 94.98,-301.36 112.6,155.93 12.72,60.07 82.26,52.37 3.55,98.54 72.93,21.6 107.57,31.37 33.43,71.45 -1.49,84.49 -7.54,78.11 11.85,67.03 2.21,72.79 33.14,71 -38.76,88.78 -9.31,56.82 -95.58,46.45 -88.93,37.58 -31.36,4.44 -2.66,51.33 -88.77,34.62 -73.39,32.56 -40.98,12.86 -8.28,96.18 -45.42,33.88 z" /></clipPath><clipPath
       id="clipPath98"
       clipPathUnits="userSpaceOnUse"><path
         id="path96"
         d="M 2878.96,3019.52 H 3981.18 V 1659.27 H 2878.96 Z" /></clipPath><linearGradient
       id="linearGradient106"
       spreadMethod="pad"
       gradientTransform="matrix(1102.22,0,0,1102.22,2878.96,2339.44)"
       gradientUnits="userSpaceOnUse"
       y2="0"
       x2="1"
       y1="0"
       x1="0"><stop
         id="stop100"
         offset="0"
         style="stop-opacity:1;stop-color:#a5a6a9" /><stop
         id="stop102"
         offset="0.406067"
         style="stop-opacity:1;stop-color:#ffffff" /><stop
         id="stop104"
         offset="1"
         style="stop-opacity:1;stop-color:#a5a6a9" /></linearGradient></defs><g
     transform="matrix(1.3333333,0,0,-1.3333333,0,617.84)"
     id="g10"><g
       transform="scale(0.1)"
       id="g12"><path
         id="path14"
         style="fill:#100f0d;fill-opacity:1;fill-rule:nonzero;stroke:none"
         d="M 1995.32,4.42969 C 1965,15.1016 1784.41,86.4102 1761.43,96.4805 1418.53,244.852 1089.64,397.25 833.922,630.711 551.852,888.59 397.016,1217.93 360.469,1637.96 c -3.321,37.87 -5.766,78.86 -7.543,125.31 -14.867,28.56 -23.824,55.04 -29.289,75.16 0.511,-9.02 1.551,-18.64 2.593,-26.49 0.297,-3.25 0.735,-6.51 1.032,-9.61 l 6.062,-55.04 -34.324,43.36 c -55.918,70.86 -77.895,153.86 -58.211,209.19 -13.023,3.1 -26.34,8.88 -39.219,14.5 -12.715,5.33 -27.14,11.55 -34.832,11.55 -0.816,0 -1.406,0 -1.55,-0.16 0,0 -0.305,-0.74 -0.747,-1.92 l -0.593,-2.36 -1.407,-2.07 c 0,-0.6 1.266,-4 1.856,-6.07 1.914,-5.33 4.508,-12.88 1.328,-20.72 l -5.25,-13.3 -13.832,3.84 c -83.2969,22.94 -163.1211,90.1 -141.36722,182.87 6.06252,26.03 22.33592,42.17 36.68752,56.8 1.043,0.89 2.1445,1.93 3.1836,2.95 -0.3008,0.76 -0.7422,1.63 -1.0391,2.53 -2.4414,6.07 -5.625,13.76 -5.1758,25.31 0.293,7.98 3.1836,14.35 5.625,19.52 0.7383,1.77 1.9922,4.43 2.2891,5.78 -0.9609,2.2 -3.0313,5.91 -4.4414,8.42 -2.0664,3.55 -4.0625,7.26 -5.7617,10.8 -15.9063,35.82 -17.9766,78.26 -6.3672,121.17 -4.3672,1.78 -9.0274,4.73 -12.5742,9.92 l -1.1875,2.06 -0.5899,2.08 c -11.3867,37.13 -28.3359,93.21 -1.4062,144.55 3.3359,6.21 7.9218,11.69 12.4258,16.86 4.4414,5.03 9.8476,11.55 10.8046,15.53 1.0313,5.48 0.4454,14.2 -0.2968,23.37 -1.2578,17.32 -2.586,37.15 5.4023,54.46 l 2.5938,5.47 5.4726,2.52 c 20.2695,8.88 40.3125,18.79 59.6877,28.26 46.836,23.08 95.137,46.75 152.39,60.5 -0.593,2.23 -1.328,4.44 -2.14,6.97 -1.926,6.36 -4.219,13.6 -4.953,22.62 l -0.746,9.17 7.543,5.34 c 27.296,18.79 57.265,35.8 89.511,50.75 V 4578.17 L 449.98,4435.7 c 104.379,-151.95 263.497,-231.99 472.852,-237.61 8.207,-0.3 16.5,-0.45 24.856,-0.45 93.512,0 194.102,14.8 299.232,43.94 3.32,1.05 7.39,1.63 12.13,1.63 23.45,0 68.28,-11.54 136.19,-29 135.59,-34.77 362.54,-93.2 585.51,-93.2 10.07,0 20.05,0.14 29.88,0.44 h 1.04 c 10.36,-0.3 20.41,-0.44 30.33,-0.44 222.96,0.14 449.91,58.43 585.74,93.2 67.77,17.46 112.44,29 135.96,29 4.74,0 8.74,-0.58 12.13,-1.63 105.2,-29.14 205.8,-43.94 299.32,-43.94 8.27,0 16.4,0.15 24.55,0.45 209.49,5.62 368.54,85.66 473.13,237.61 l 97.8,142.47 V 2876.89 c 30.04,-14.19 58.15,-30.32 83.75,-47.93 l 7.54,-5.34 -0.74,-9.17 c -0.58,-9.02 -2.96,-16.41 -4.89,-22.92 -0.88,-2.52 -1.61,-4.59 -2.21,-6.81 57.25,-13.61 105.5,-37.13 152.09,-60.21 19.68,-9.62 39.81,-19.53 60.23,-28.41 l 5.31,-2.52 2.67,-5.61 c 7.84,-17.17 6.5,-36.86 5.33,-54.01 -0.61,-9.48 -1.18,-18.05 -0.16,-23.68 0.75,-3.98 6.37,-10.5 10.8,-15.53 4.31,-5.32 9.04,-10.65 12.15,-16.86 25.13,-47.5 13.3,-97.51 -1.2,-144.55 l -0.73,-2.08 -1.18,-1.91 c -3.4,-5.34 -8.14,-8.29 -12.57,-10.22 11.68,-42.62 9.45,-85.2 -6.23,-120.88 -1.77,-3.68 -3.84,-7.39 -5.78,-10.94 -1.32,-2.51 -3.68,-6.22 -4.58,-8.42 0.31,-1.2 1.48,-3.86 2.38,-5.78 2.36,-5.17 5.32,-11.54 5.61,-19.23 0.31,-11.69 -2.8,-19.39 -5.18,-25.29 -0.43,-1.06 -0.73,-1.94 -1.03,-2.84 1.03,-1.02 2.08,-2.06 3.11,-3.1 14.35,-14.48 30.61,-30.62 36.7,-56.65 21.74,-92.91 -58.15,-159.93 -141.29,-182.87 l -13.91,-3.84 -5.33,13.15 c -2.96,7.99 -0.3,15.54 1.47,20.87 0.74,2.07 1.78,5.31 1.78,6.52 l -1.33,2.06 -0.75,1.77 c -0.29,1.33 -0.58,1.93 -0.88,2.23 -0.29,0 -0.59,0 -1.18,0 -7.83,0 -22.19,-6.22 -34.77,-11.55 -13.02,-5.62 -26.49,-11.4 -39.5,-14.5 19.96,-55.33 -2.08,-138.33 -58,-209.19 l -34.47,-43.5 6.07,55.18 c 0.29,2.95 0.73,6.21 1.18,9.61 0.89,7.7 2.07,17.47 2.37,26.33 -4.45,-17.3 -11.84,-38.9 -23.09,-62.72 -1.76,-51.34 -4.44,-96.46 -7.99,-137.59 C 3625.81,1217.93 3470.9,888.59 3188.76,630.711 2933.25,397.398 2604.37,244.852 2261.41,96.4805 2238.49,86.4102 2058.43,15.3789 2027.65,4.42969 L 2011.67,0 1995.32,4.42969" /><path
         id="path16"
         style="fill:#ed1f27;fill-opacity:1;fill-rule:nonzero;stroke:none"
         d="m 3954.25,2221.32 c 2.08,12.72 8.59,17.76 8,31.82 -0.31,9.62 -8.72,18.78 -8,27.65 0.6,5.19 8.29,16.44 11.7,23.83 14.93,33.74 17.76,76.93 1.33,124.13 5.61,3.56 15.08,3.71 18.94,9.17 12.12,40.54 25.45,88.93 2.35,132.57 -6.21,11.53 -22.17,23.52 -24.55,36.68 -3.83,19.24 6.21,51.63 -4.14,74.13 -73.09,32.27 -137.3,73.83 -223.41,90.99 0,17.31 7.7,27.38 8.87,43.49 -28.1,19.39 -58.27,36.25 -90.54,51.06 v 1660.14 l -68.94,-100.31 c -107.4,-156.24 -270.89,-238.64 -485.57,-244.56 -102.38,-2.96 -214.09,12.42 -328.6,44.24 -46.9,13.02 -406.72,-129.02 -759.94,-120.73 h -0.3 -0.3 c -353.31,-8.29 -713.26,133.75 -760.1,120.73 -114.51,-31.82 -226.34,-47.2 -328.577,-44.24 -214.676,5.92 -378.164,88.32 -485.582,244.56 l -68.946,100.31 V 2869.34 c -34.39,-15.23 -66.5,-32.99 -96.172,-53.56 1.196,-16.11 8.954,-26.18 8.739,-43.49 -85.895,-17.16 -150.399,-58.72 -223.262,-90.99 -10.5039,-22.5 -0.293,-54.89 -4.1406,-74.13 -2.5156,-13.16 -18.4219,-25.15 -24.4883,-36.68 -23.07813,-43.64 -9.9766,-92.03 2.3711,-132.57 3.6953,-5.46 13.0898,-5.61 18.7891,-9.17 -16.3477,-47.2 -13.7657,-90.39 1.4062,-124.13 3.3281,-7.39 11.1719,-18.64 11.6836,-23.83 0.7422,-8.87 -7.6172,-18.03 -8.2031,-27.65 -0.4492,-14.06 5.914,-19.1 8.2031,-31.82 -17.0117,-18.04 -35.9492,-32.39 -42.1641,-59.17 -21.230438,-90.12 66.3516,-146.04 130.121,-163.79 2.442,6.36 -9.019,18.79 -1.629,29.88 11.84,40.4 78.93,-22.92 116.957,-13.6 -32.093,-44.39 -17.308,-134.93 45.27,-214.09 -3.617,33.14 -12.278,77.23 20.351,79.16 1.184,-12.73 8.278,-58.45 36.914,-112.29 1.696,-43.36 4.137,-86.1 7.61,-128.13 C 412.484,1223.4 565.688,897.469 844.723,642.398 1098.23,411.012 1425.86,259.059 1767.71,110.961 c 24.7,-10.652 221.91,-88.4727 235.53,-92.3204 l 7.91,-2.3593 v -0.1524 l 0.3,0.1524 0.3,-0.1524 v 0.1524 l 7.91,2.3593 c 13.62,3.8477 210.68,81.6684 235.39,92.3204 341.62,148.098 669.48,300.051 922.91,531.437 279.18,255.071 432.45,581.002 468.55,996.892 3.86,45.87 6.23,92.62 7.99,140.11 23.38,48.53 29.61,88.61 30.79,100.31 32.69,-1.93 23.96,-46.02 20.27,-79.16 62.73,79.16 77.52,169.55 45.27,214.09 38.17,-9.32 105.19,54 117.02,13.6 7.4,-11.23 -4.14,-23.67 -1.48,-29.88 63.63,17.61 151.21,73.67 130.05,163.79 -6.37,26.78 -25.29,41.13 -42.17,59.17" /><path
         id="path18"
         style="fill:#ed1f27;fill-opacity:1;fill-rule:nonzero;stroke:none"
         d="m 1223.7,4218.65 c -15.32,-2.81 239.97,192.78 146.99,209.21 -130.28,27.37 -188.94,127.37 -218.89,183.75 -21.83,-172.81 -90.93,-194.41 -263.952,-164.23 68.199,-104.6 190.252,-184.49 335.852,-228.73" /><path
         id="path20"
         style="fill:#100f0d;fill-opacity:1;fill-rule:nonzero;stroke:none"
         d="m 1145.05,4612.49 c -9.68,-77.07 -28.62,-122.2 -61.17,-146.32 -41.65,-30.92 -108.001,-27.08 -194.853,-12.13 l -15.316,2.81 8.508,-13.02 C 949.613,4340.27 1070.26,4258 1221.77,4212.14 l 4.8,-1.33 2.59,5.18 c 1.63,2.66 15.32,14.79 28.34,26.48 72.72,65.25 149.65,137.74 139.37,173.4 -2.89,9.91 -11.25,16.12 -25.15,18.64 -117.86,24.86 -176.37,109.49 -213.95,180.35 l -10.13,18.94 z m -53.03,-157.26 c 32.61,24.26 52.15,67.75 63.17,136.7 39.28,-69.69 99.57,-146.62 213.94,-170.74 12.87,-2.21 14.26,-7.39 14.71,-8.87 0.31,-1.48 0.6,-2.81 0.6,-4.14 0,-33.73 -94.54,-118.66 -135.89,-155.8 -15.32,-13.6 -23.31,-20.86 -27.9,-25.59 -139.66,43.35 -251.513,118.21 -317.72,211.57 82.121,-13.17 146.24,-14.8 189.09,16.87" /><path
         id="path22"
         style="fill:#ed1f27;fill-opacity:1;fill-rule:nonzero;stroke:none"
         d="m 2795.36,4218.65 c 15.24,-2.81 -240.12,192.78 -146.9,209.21 130.19,27.37 188.77,127.37 218.95,183.75 21.6,-172.81 90.84,-194.41 263.8,-164.23 -68.21,-104.6 -190.26,-184.49 -335.85,-228.73" /><path
         id="path24"
         style="fill:#100f0d;fill-opacity:1;fill-rule:nonzero;stroke:none"
         d="m 2861.35,4614.86 c -37.73,-70.86 -96.02,-155.64 -214.39,-180.5 -13.45,-2.37 -21.89,-8.58 -24.85,-18.34 -10.05,-35.81 66.58,-108.45 139.38,-173.55 13.01,-11.83 26.64,-23.82 28.39,-26.48 l 2.83,-4.14 4.58,0.29 c 151.65,46.02 272.22,128.27 339.39,231.69 l 8.58,13.02 -15.38,-2.66 c -86.7,-15.24 -152.99,-18.79 -194.7,11.98 -32.54,24.12 -51.48,69.25 -61.25,146.47 l -2.66,21.16 z m -90.69,-362.33 c -41.43,37.14 -135.97,121.76 -135.97,155.5 0,1.62 0.14,2.96 0.45,4.15 0.45,1.62 2.07,6.8 14.5,8.87 114.8,24.26 174.86,101.19 214.22,170.88 10.94,-69.09 30.49,-112.29 63.33,-136.55 42.61,-31.67 107.12,-30.19 188.92,-17.02 -66.41,-93.5 -178.12,-168.37 -317.79,-211.57 -4.43,4.73 -12.42,11.99 -27.66,25.74" /><g
         id="g26"><g
           clip-path="url(#clipPath32)"
           id="g28"><g
             clip-path="url(#clipPath38)"
             id="g34"><path
               id="path52"
               style="fill:url(#linearGradient50);fill-opacity:1;fill-rule:nonzero;stroke:none"
               d="m 2010,156 v 1 h -3 v 1 h -2 v 1 h -3 v 1 h -2 v 1 h -3 v 1 h -2 v 1 h -3 v 1 h -3 v 1 h -2 v 1 h -3 v 1 h -2 v 1 h -3 v 1 h -2 v 1 h -3 v 1 h -3 v 1 h -2 v 1 h -3 v 1 h -2 v 1 h -3 v 1 h -2 v 1 h -3 v 1 h -2 v 1 h -3 v 1 h -3 v 1 h -2 v 1 h -3 v 1 h -2 v 1 h -3 v 1 h -2 v 1 h -3 v 1 h -2 v 1 h -3 v 1 h -2 v 1 h -3 v 1 h -3 v 1 h -2 v 1 h -3 v 1 h -2 v 1 h -3 v 1 h -2 v 1 h -3 v 1 h -2 v 1 h -3 v 1 h -2 v 1 h -3 v 1 h -2 v 1 h -3 v 1 h -2 v 1 h -3 v 1 h -2 v 1 h -3 v 1 h -2 v 1 h -3 v 1 h -3 v 1 h -2 v 1 h -3 v 1 h -2 v 1 h -3 v 1 h -2 v 1 h -3 v 1 h -2 v 1 h -3 v 1 h -2 v 1 h -2 v 1 h -3 v 1 h -2 v 1 h -3 v 1 h -2 v 1 h -3 v 1 h -2 v 1 h -3 v 1 h -2 v 1 h -3 v 1 h -2 v 1 h -2 v 1 h -3 v 1 h -2 v 1 h -2 v 1 h -3 v 1 h -2 v 1 h -2 v 1 h -3 v 1 h -2 v 1 h -2 v 1 h -2 v 1 h -3 v 1 h -2 v 1 h -2 v 1 h -3 v 1 h -2 v 1 h -2 v 1 h -3 v 1 h -2 v 1 h -2 v 1 h -2 v 1 h -3 v 1 h -2 v 1 h -2 v 1 h -3 v 1 h -2 v 1 h -2 v 1 h -2 v 1 h -3 v 1 h -2 v 1 h -2 v 1 h -3 v 1 h -2 v 1 h -2 v 1 h -2 v 1 h -3 v 1 h -2 v 1 h -2 v 1 h -2 v 1 h -3 v 1 h -2 v 1 h -2 v 1 h -2 v 1 h -3 v 1 h -2 v 1 h -2 v 1 h -3 v 1 h -2 v 1 h -2 v 1 h -2 v 1 h -3 v 1 h -2 v 1 h -2 v 1 h -2 v 1 h -3 v 1 h -2 v 1 h -2 v 1 h -2 v 1 h -3 v 1 h -2 v 1 h -2 v 1 h -2 v 1 h -3 v 1 h -2 v 1 h -2 v 1 h -2 v 1 h -2 v 1 h -3 v 1 h -2 v 1 h -2 v 1 h -2 v 1 h -3 v 1 h -2 v 1 h -2 v 1 h -2 v 1 h -2 v 1 h -3 v 1 h -2 v 1 h -2 v 1 h -2 v 1 h -3 v 1 h -2 v 1 h -2 v 1 h -2 v 1 h -2 v 1 h -3 v 1 h -2 v 1 h -2 v 1 h -2 v 1 h -2 v 1 h -2 v 1 h -3 v 1 h -2 v 1 h -2 v 1 h -2 v 1 h -2 v 1 h -2 v 1 h -3 v 1 h -2 v 1 h -2 v 1 h -2 v 1 h -2 v 1 h -3 v 1 h -2 v 1 h -2 v 1 h -2 v 1 h -2 v 1 h -2 v 1 h -3 v 1 h -2 v 1 h -2 v 1 h -2 v 1 h -2 v 1 h -2 v 1 h -2 v 1 h -2 v 1 h -3 v 1 h -2 v 1 h -2 v 1 h -2 v 1 h -2 v 1 h -2 v 1 h -2 v 1 h -2 v 1 h -2 v 1 h -3 v 1 h -2 v 1 h -2 v 1 h -2 v 1 h -2 v 1 h -2 v 1 h -2 v 1 h -2 v 1 h -2 v 1 h -3 v 1 h -2 v 1 h -2 v 1 h -2 v 1 h -2 v 1 h -2 v 1 h -2 v 1 h -2 v 1 h -2 v 1 h -2 v 1 h -2 v 1 h -2 v 1 h -2 v 1 h -2 v 1 h -2 v 1 h -2 v 1 h -3 v 1 h -2 v 1 h -2 v 1 h -2 v 1 h -2 v 1 h -2 v 1 h -2 v 1 h -2 v 1 h -2 v 1 h -2 v 1 h -2 v 1 h -2 v 1 h -2 v 1 h -2 v 1 h -2 v 1 h -2 v 1 h -2 v 1 h -2 v 1 h -2 v 1 h -2 v 1 h -2 v 1 h -2 v 1 h -2 v 1 h -2 v 1 h -2 v 1 h -2 v 1 h -2 v 1 h -2 v 1 h -2 v 1 h -2 v 1 h -2 v 1 h -2 v 1 h -2 v 1 h -2 v 1 h -2 v 1 h -2 v 1 h -2 v 1 h -1 v 1 h -2 v 1 h -2 v 1 h -2 v 1 h -2 v 1 h -2 v 1 h -2 v 1 h -2 v 1 h -2 v 1 h -2 v 1 h -2 v 1 h -2 v 1 h -2 v 1 h -2 v 1 h -2 v 1 h -1 v 1 h -2 v 1 h -2 v 1 h -2 v 1 h -2 v 1 h -2 v 1 h -2 v 1 h -2 v 1 h -2 v 1 h -1 v 1 h -2 v 1 h -2 v 1 h -2 v 1 h -2 v 1 h -2 v 1 h -2 v 1 h -2 v 1 h -1 v 1 h -2 v 1 h -2 v 1 h -2 v 1 h -2 v 1 h -2 v 1 h -2 v 1 h -2 v 1 h -1 v 1 h -2 v 1 h -2 v 1 h -2 v 1 h -2 v 1 h -1 v 1 h -2 v 1 h -2 v 1 h -2 v 1 h -2 v 1 h -1 v 1 h -2 v 1 h -2 v 1 h -2 v 1 h -2 v 1 h -1 v 1 h -2 v 1 h -2 v 1 h -2 v 1 h -2 v 1 h -1 v 1 h -2 v 1 h -2 v 1 h -2 v 1 h -2 v 1 h -1 v 1 h -2 v 1 h -2 v 1 h -2 v 1 h -2 v 1 h -1 v 1 h -2 v 1 h -2 v 1 h -1 v 1 h -2 v 1 h -2 v 1 h -2 v 1 h -1 v 1 h -2 v 1 h -2 v 1 h -1 v 1 h -2 v 1 h -2 v 1 h -1 v 1 h -2 v 1 h -2 v 1 h -2 v 1 h -1 v 1 h -2 v 1 h -2 v 1 h -1 v 1 h -2 v 1 h -2 v 1 h -2 v 1 h -1 v 1 h -2 v 1 h -2 v 1 h -1 v 1 h -2 v 1 h -2 v 1 h -1 v 1 h -2 v 1 h -2 v 1 h -2 v 1 h -1 v 1 h -2 v 1 h -1 v 1 h -2 v 1 h -2 v 1 h -1 v 1 h -2 v 1 h -1 v 1 h -2 v 1 h -2 v 1 h -1 v 1 h -2 v 1 h -1 v 1 h -2 v 1 h -2 v 1 h -1 v 1 h -2 v 1 h -1 v 1 h -2 v 1 h -2 v 1 h -1 v 1 h -2 v 1 h -2 v 1 h -1 v 1 h -2 v 1 h -1 v 1 h -2 v 1 h -2 v 1 h -1 v 1 h -2 v 1 h -1 v 1 h -2 v 1 h -2 v 1 h -1 v 1 h -2 v 1 h -1 v 1 h -2 v 1 h -1 v 1 h -2 v 1 h -1 v 1 h -2 v 1 h -1 v 1 h -2 v 1 h -1 v 1 h -2 v 1 h -1 v 1 h -2 v 1 h -1 v 1 h -2 v 1 h -1 v 1 h -2 v 1 h -1 v 1 h -2 v 1 h -1 v 1 h -2 v 1 h -1 v 1 h -2 v 1 h -1 v 1 h -2 v 1 h -2 v 1 h -1 v 1 h -2 v 1 h -1 v 1 h -2 v 1 h -1 v 1 h -2 v 1 h -1 v 1 h -2 v 1 h -1 v 1 h -1 v 1 h -2 v 1 h -1 v 1 h -2 v 1 h -1 v 1 h -1 v 1 h -2 v 1 h -1 v 1 h -2 v 1 h -1 v 1 h -2 v 1 h -1 v 1 h -1 v 1 h -2 v 1 h -1 v 1 h -2 v 1 h -1 v 1 h -2 v 1 h -1 v 1 h -1 v 1 h -2 v 1 h -1 v 1 h -2 v 1 h -1 v 1 h -1 v 1 h -2 v 1 h -1 v 1 h -2 v 1 h -1 v 1 h -2 v 1 h -1 v 1 h -1 v 1 h -2 v 1 h -1 v 1 h -2 v 1 h -1 v 1 h -1 v 1 h -1 v 1 h -2 v 1 h -1 v 1 h -1 v 1 h -2 v 1 h -1 v 1 h -1 v 1 h -2 v 1 h -1 v 1 h -1 v 1 h -2 v 1 h -1 v 1 h -1 v 1 h -2 v 1 h -1 v 1 h -1 v 1 h -2 v 1 h -1 v 1 h -1 v 1 h -2 v 1 h -1 v 1 h -1 v 1 h -2 v 1 h -1 v 1 h -1 v 1 h -2 v 1 h -1 v 1 h -1 v 1 h -2 v 1 h -1 v 1 h -1 v 1 h -2 v 1 h -1 v 1 h -1 v 1 h -1 v 1 h -2 v 1 h -1 v 1 h -1 v 1 h -1 v 1 h -2 v 1 h -1 v 1 h -1 v 1 h -1 v 1 h -2 v 1 h -1 v 1 h -1 v 1 h -1 v 1 h -1 v 1 h -2 v 1 h -1 v 1 h -1 v 1 h -1 v 1 h -2 v 1 h -1 v 1 h -1 v 1 h -1 v 1 h -2 v 1 h -1 v 1 h -1 v 1 h -1 v 1 h -1 v 1 h -2 v 1 h -1 v 1 h -1 v 1 h -1 v 1 h -2 v 1 h -1 v 1 h -1 v 1 h -1 v 1 h -2 v 1 h -1 v 1 h -1 v 1 h -1 v 1 h -1 v 1 h -1 v 1 h -2 v 1 h -1 v 1 h -1 v 1 h -1 v 1 h -1 v 1 h -1 v 1 h -2 v 1 h -1 v 1 h -1 v 1 h -1 v 1 h -1 v 1 h -1 v 1 h -1 v 1 h -2 v 1 h -1 v 1 h -1 v 1 h -1 v 1 h -1 v 1 h -1 v 1 h -2 v 1 h -1 v 1 h -1 v 1 h -1 v 1 h -1 v 1 h -1 v 1 h -2 v 1 h -1 v 1 h -1 v 1 h -1 v 1 h -1 v 1 h -1 v 1 h -1 v 1 h -1 v 1 h -1 v 1 h -1 v 1 h -2 v 1 h -1 v 1 h -1 v 1 h -1 v 1 h -1 v 1 h -1 v 1 h -1 v 1 h -1 v 1 h -1 v 1 h -1 v 1 h -1 v 1 h -2 v 1 h -1 v 1 h -1 v 1 h -1 v 1 h -1 v 1 h -1 v 1 h -1 v 1 h -1 v 1 h -1 v 1 h -1 v 1 h -1 v 1 h -1 v 1 h -1 v 1 h -1 v 1 h -1 v 1 h -1 v 1 h -1 v 1 h -1 v 1 h -1 v 1 h -1 v 1 h -1 v 1 h -1 v 1 h -1 v 1 h -1 v 1 h -1 v 1 h -1 v 1 h -1 v 1 h -1 v 1 h -1 v 1 h -1 v 1 h -2 v 1 h -1 v 1 h -1 v 1 h -1 v 1 h -1 v 1 h -1 v 1 h -1 v 1 h -1 v 1 h -1 v 2 h -1 v 1 h -1 v 1 h -1 v 1 h -1 v 1 h -1 v 1 h -1 v 1 h -1 v 1 h -1 v 1 h -1 v 1 h -1 v 1 h -1 v 1 h -1 v 1 h -1 v 1 h -1 v 1 h -1 v 1 h -1 v 1 h -1 v 1 h -1 v 1 h -1 v 1 h -1 v 1 h -1 v 2 h -1 v 1 h -1 v 1 h -1 v 1 h -1 v 1 h -1 v 1 h -1 v 1 h -1 v 1 h -1 v 1 h -1 v 1 h -1 v 1 h -1 v 1 h -1 v 1 h -1 v 1 h -1 v 1 h -1 v 1 h -1 v 1 h -1 v 1 h -1 v 1 h -1 v 1 h -1 v 2 h -1 v 1 h -1 v 1 h -1 v 1 h -1 v 1 h -1 v 1 h -1 v 2 h -1 v 1 h -1 v 1 h -1 v 1 h -1 v 1 h -1 v 1 h -1 v 1 h -1 v 2 h -1 v 1 h -1 v 1 h -1 v 1 h -1 v 1 h -1 v 1 h -1 v 2 h -1 v 1 h -1 v 1 h -1 v 1 h -1 v 1 h -1 v 1 h -1 v 1 h -1 v 2 h -1 v 1 h -1 v 1 h -1 v 1 h -1 v 1 h -1 v 1 h -1 v 2 h -1 v 1 h -1 v 1 h -1 v 1 h -1 v 1 h -1 v 1 h -1 v 1 h -1 v 2 h -1 v 1 h -1 v 1 h -1 v 1 h -1 v 2 h -1 v 1 h -1 v 1 h -1 v 1 h -1 v 2 h -1 v 1 h -1 v 1 h -1 v 1 h -1 v 2 h -1 v 1 h -1 v 1 h -1 v 2 h -1 v 1 h -1 v 1 h -1 v 1 h -1 v 2 h -1 v 1 h -1 v 1 h -1 v 2 h -1 v 1 h -1 v 1 h -1 v 1 h -1 v 2 h -1 v 1 h -1 v 1 h -1 v 1 h -1 v 2 h -1 v 1 h -1 v 1 h -1 v 2 h -1 v 1 h -1 v 1 h -1 v 1 h -1 v 2 h -1 v 1 h -1 v 1 h -1 v 2 h -1 v 1 h -1 v 1 h -1 v 2 h -1 v 1 h -1 v 2 h -1 v 1 h -1 v 1 h -1 v 2 h -1 v 1 h -1 v 2 h -1 v 1 h -1 v 2 h -1 v 1 h -1 v 1 h -1 v 2 h -1 v 1 h -1 v 2 h -1 v 1 h -1 v 1 h -1 v 2 h -1 v 1 h -1 v 2 h -1 v 1 h -1 v 1 h -1 v 2 h -1 v 1 h -1 v 2 h -1 v 1 h -1 v 2 h -1 v 1 h -1 v 1 h -1 v 2 h -1 v 1 h -1 v 2 h -1 v 1 h -1 v 2 h -1 v 1 h -1 v 2 h -1 v 1 h -1 v 2 h -1 v 2 h -1 v 1 h -1 v 2 h -1 v 1 h -1 v 2 h -1 v 1 h -1 v 2 h -1 v 2 h -1 v 1 h -1 v 2 h -1 v 1 h -1 v 2 h -1 v 1 h -1 v 2 h -1 v 2 h -1 v 1 h -1 v 2 h -1 v 1 h -1 v 2 h -1 v 2 h -1 v 1 h -1 v 2 h -1 v 1 h -1 v 2 h -1 v 1 h -1 v 2 h -1 v 2 h -1 v 1 h -1 v 2 h -1 v 2 h -1 v 2 h -1 v 1 h -1 v 2 h -1 v 2 h -1 v 2 h -1 v 1 h -1 v 2 h -1 v 2 h -1 v 2 h -1 v 1 h -1 v 2 h -1 v 2 h -1 v 2 h -1 v 2 h -1 v 1 h -1 v 2 h -1 v 2 h -1 v 2 h -1 v 1 h -1 v 2 h -1 v 2 h -1 v 2 h -1 v 2 h -1 v 1 h -1 v 2 h -1 v 2 h -1 v 2 h -1 v 1 h -1 v 2 h -1 v 2 h -1 v 2 h -1 v 2 h -1 v 2 h -1 v 2 h -1 v 2 h -1 v 2 h -1 v 2 h -1 v 2 h -1 v 2 h -1 v 2 h -1 v 2 h -1 v 2 h -1 v 2 h -1 v 2 h -1 v 2 h -1 v 2 h -1 v 2 h -1 v 3 h -1 v 2 h -1 v 2 h -1 v 2 h -1 v 2 h -1 v 2 h -1 v 2 h -1 v 2 h -1 v 2 h -1 v 2 h -1 v 2 h -1 v 2 h -1 v 3 h -1 v 2 h -1 v 2 h -1 v 3 h -1 v 2 h -1 v 2 h -1 v 2 h -1 v 3 h -1 v 2 h -1 v 2 h -1 v 3 h -1 v 2 h -1 v 2 h -1 v 2 h -1 v 3 h -1 v 2 h -1 v 2 h -1 v 3 h -1 v 2 h -1 v 2 h -1 v 2 h -1 v 3 h -1 v 3 h -1 v 2 h -1 v 3 h -1 v 2 h -1 v 3 h -1 v 3 h -1 v 2 h -1 v 3 h -1 v 3 h -1 v 2 h -1 v 3 h -1 v 2 h -1 v 3 h -1 v 3 h -1 v 2 h -1 v 3 h -1 v 3 h -1 v 2 h -1 v 3 h -1 v 3 h -1 v 2 h -1 v 3 h -1 v 3 h -1 v 3 h -1 v 3 h -1 v 3 h -1 v 3 h -1 v 3 h -1 v 3 h -1 v 3 h -1 v 3 h -1 v 3 h -1 v 3 h -1 v 4 h -1 v 3 h -1 v 3 h -1 v 3 h -1 v 3 h -1 v 3 h -1 v 3 h -1 v 3 h -1 v 3 h -1 v 4 h -1 v 3 h -1 v 4 h -1 v 4 h -1 v 3 h -1 v 4 h -1 v 4 h -1 v 3 h -1 v 4 h -1 v 3 h -1 v 4 h -1 v 4 h -1 v 3 h -1 v 4 h -1 v 4 h -1 v 3 h -1 v 4 h -1 v 4 h -1 v 4 h -1 v 5 h -1 v 4 h -1 v 4 h -1 v 5 h -1 v 4 h -1 v 5 h -1 v 4 h -1 v 4 h -1 v 5 h -1 v 4 h -1 v 4 h -1 v 5 h -1 v 4 h -1 v 6 h -1 v 5 h -1 v 5 h -1 v 6 h -1 v 5 h -1 v 6 h -1 v 5 h -1 v 5 h -1 v 6 h -1 v 5 h -1 v 6 h -1 v 5 h -1 v 6 h -1 v 7 h -1 v 7 h -1 v 7 h -1 v 7 h -1 v 7 h -1 v 7 h -1 v 7 h -1 v 7 h -1 v 7 h -1 v 8 h -1 v 9 h -1 v 9 h -1 v 9 h -1 v 9 h -1 v 9 h -1 v 11 h -1 v 12 h -1 v 11 h -1 v 14 h -1 v 15 h -1 v 16 h -1 v 17 h -1 v 23 h -1 v 24 h -1 v 26 h -1 v 48 h -1 v 249 h 1 v 145 h 1 v 1939 h 1 v -1 h 1 v -1 h 2 v -1 h 1 v -1 h 2 v -1 h 1 v -1 h 2 v -1 h 1 v -1 h 2 v -1 h 1 v -1 h 2 v -1 h 1 v -1 h 2 v -1 h 2 v -1 h 1 v -1 h 2 v -1 h 1 v -1 h 2 v -1 h 2 v -1 h 1 v -1 h 2 v -1 h 2 v -1 h 1 v -1 h 2 v -1 h 1 v -1 h 2 v -1 h 2 v -1 h 1 v -1 h 2 v -1 h 2 v -1 h 2 v -1 h 1 v -1 h 2 v -1 h 2 v -1 h 2 v -1 h 2 v -1 h 2 v -1 h 2 v -1 h 2 v -1 h 2 v -1 h 1 v -1 h 2 v -1 h 2 v -1 h 2 v -1 h 2 v -1 h 2 v -1 h 2 v -1 h 2 v -1 h 2 v -1 h 1 v -1 h 2 v -1 h 2 v -1 h 2 v -1 h 2 v -1 h 2 v -1 h 3 v -1 h 2 v -1 h 2 v -1 h 2 v -1 h 3 v -1 h 2 v -1 h 2 v -1 h 3 v -1 h 2 v -1 h 2 v -1 h 3 v -1 h 2 v -1 h 2 v -1 h 2 v -1 h 3 v -1 h 2 v -1 h 2 v -1 h 3 v -1 h 2 v -1 h 2 v -1 h 3 v -1 h 3 v -1 h 3 v -1 h 2 v -1 h 3 v -1 h 3 v -1 h 3 v -1 h 3 v -1 h 3 v -1 h 3 v -1 h 3 v -1 h 2 v -1 h 3 v -1 h 3 v -1 h 3 v -1 h 3 v -1 h 3 v -1 h 3 v -1 h 3 v -1 h 4 v -1 h 4 v -1 h 3 v -1 h 4 v -1 h 4 v -1 h 4 v -1 h 3 v -1 h 4 v -1 h 4 v -1 h 4 v -1 h 3 v -1 h 4 v -1 h 4 v -1 h 4 v -1 h 5 v -1 h 6 v -1 h 5 v -1 h 5 v -1 h 5 v -1 h 5 v -1 h 5 v -1 h 6 v -1 h 5 v -1 h 5 v -1 h 7 v -1 h 8 v -1 h 8 v -1 h 8 v -1 h 8 v -1 h 8 v -1 h 8 v -1 h 12 v -1 h 14 v -1 h 15 v -1 h 23 v -1 h 51 v 1 h 30 v 1 h 15 v 1 h 15 v 1 h 13 v 1 h 10 v 1 h 9 v 1 h 10 v 1 h 9 v 1 h 8 v 1 h 7 v 1 h 7 v 1 h 8 v 1 h 7 v 1 h 6 v 1 h 6 v 1 h 6 v 1 h 6 v 1 h 6 v 1 h 6 v 1 h 6 v 1 h 5 v 1 h 5 v 1 h 5 v 1 h 5 v 1 h 5 v 1 h 5 v 1 h 5 v 1 h 5 v 1 h 5 v 1 h 4 v 1 h 5 v 1 h 4 v 1 h 4 v 1 h 4 v 1 h 5 v 1 h 4 v 1 h 4 v 1 h 5 v 1 h 4 v 1 h 4 v 1 h 3 v 1 h 4 v 1 h 4 v 1 h 4 v 1 h 3 v 1 h 4 v 1 h 4 v 1 h 4 v 1 h 4 v 1 h 3 v 1 h 4 v 1 h 3 v 1 h 4 v 1 h 3 v 1 h 3 v 1 h 4 v 1 h 3 v 1 h 3 v 1 h 4 v 1 h 3 v 1 h 4 v 1 h 3 v 1 h 3 v 1 h 3 v 1 h 3 v 1 h 3 v 1 h 4 v 1 h 3 v 1 h 3 v 1 h 3 v 1 h 3 v 1 h 3 v 1 h 3 v 1 h 3 v 1 h 3 v 1 h 3 v 1 h 3 v 1 h 3 v 1 h 3 v 1 h 3 v 1 h 2 v 1 h 3 v 1 h 3 v 1 h 3 v 1 h 3 v 1 h 2 v 1 h 3 v 1 h 3 v 1 h 3 v 1 h 3 v 1 h 2 v 1 h 3 v 1 h 3 v 1 h 2 v 1 h 3 v 1 h 2 v 1 h 3 v 1 h 3 v 1 h 2 v 1 h 3 v 1 h 2 v 1 h 3 v 1 h 3 v 1 h 2 v 1 h 3 v 1 h 2 v 1 h 3 v 1 h 2 v 1 h 3 v 1 h 2 v 1 h 3 v 1 h 2 v 1 h 2 v 1 h 3 v 1 h 2 v 1 h 3 v 1 h 2 v 1 h 2 v 1 h 3 v 1 h 2 v 1 h 3 v 1 h 2 v 1 h 2 v 1 h 3 v 1 h 2 v 1 h 2 v 1 h 3 v 1 h 2 v 1 h 2 v 1 h 2 v 1 h 3 v 1 h 2 v 1 h 2 v 1 h 2 v 1 h 3 v 1 h 2 v 1 h 2 v 1 h 2 v 1 h 2 v 1 h 3 v 1 h 2 v 1 h 2 v 1 h 2 v 1 h 2 v 1 h 3 v 1 h 2 v 1 h 2 v 1 h 2 v 1 h 2 v 1 h 2 v 1 h 2 v 1 h 2 v 1 h 3 v 1 h 2 v 1 h 2 v 1 h 2 v 1 h 2 v 1 h 2 v 1 h 2 v 1 h 2 v 1 h 2 v 1 h 2 v 1 h 2 v 1 h 2 v 1 h 2 v 1 h 2 v 1 h 3 v -1 h 2 v -1 h 2 v -1 h 3 v -1 h 2 v -1 h 3 v -1 h 2 v -1 h 3 v -1 h 3 v -1 h 3 v -1 h 3 v -1 h 2 v -1 h 3 v -1 h 3 v -1 h 3 v -1 h 3 v -1 h 2 v -1 h 3 v -1 h 3 v -1 h 4 v -1 h 3 v -1 h 3 v -1 h 4 v -1 h 3 v -1 h 4 v -1 h 3 v -1 h 3 v -1 h 4 v -1 h 3 v -1 h 3 v -1 h 4 v -1 h 3 v -1 h 4 v -1 h 4 v -1 h 4 v -1 h 4 v -1 h 5 v -1 h 4 v -1 h 5 v -1 h 4 v -1 h 4 v -1 h 5 v -1 h 4 v -1 h 5 v -1 h 4 v -1 h 6 v -1 h 6 v -1 h 6 v -1 h 6 v -1 h 5 v -1 h 6 v -1 h 6 v -1 h 6 v -1 h 6 v -1 h 9 v -1 h 8 v -1 h 9 v -1 h 9 v -1 h 8 v -1 h 9 v -1 h 12 v -1 h 15 v -1 h 14 v -1 h 14 v -1 h 32 v -1 h 160 v 1 h 32 v 1 h 15 v 1 h 14 v 1 h 15 v 1 h 12 v 1 h 8 v 1 h 9 v 1 h 9 v 1 h 8 v 1 h 9 v 1 h 8 v 1 h 6 v 1 h 6 v 1 h 6 v 1 h 6 v 1 h 6 v 1 h 6 v 1 h 6 v 1 h 6 v 1 h 6 v 1 h 4 v 1 h 4 v 1 h 5 v 1 h 4 v 1 h 5 v 1 h 4 v 1 h 5 v 1 h 4 v 1 h 4 v 1 h 5 v 1 h 4 v 1 h 4 v 1 h 4 v 1 h 3 v 1 h 3 v 1 h 4 v 1 h 3 v 1 h 4 v 1 h 3 v 1 h 3 v 1 h 4 v 1 h 3 v 1 h 4 v 1 h 3 v 1 h 3 v 1 h 4 v 1 h 3 v 1 h 2 v 1 h 3 v 1 h 3 v 1 h 3 v 1 h 3 v 1 h 2 v 1 h 3 v 1 h 3 v 1 h 3 v 1 h 3 v 1 h 2 v 1 h 3 v 1 h 3 v 1 h 2 v 1 h 3 v 1 h 2 v 1 h 2 v 1 h 3 v -1 h 2 v -1 h 2 v -1 h 2 v -1 h 2 v -1 h 2 v -1 h 2 v -1 h 2 v -1 h 2 v -1 h 2 v -1 h 2 v -1 h 2 v -1 h 2 v -1 h 2 v -1 h 3 v -1 h 2 v -1 h 2 v -1 h 2 v -1 h 2 v -1 h 2 v -1 h 2 v -1 h 2 v -1 h 2 v -1 h 3 v -1 h 2 v -1 h 2 v -1 h 2 v -1 h 3 v -1 h 2 v -1 h 2 v -1 h 2 v -1 h 2 v -1 h 3 v -1 h 2 v -1 h 2 v -1 h 2 v -1 h 3 v -1 h 2 v -1 h 2 v -1 h 2 v -1 h 3 v -1 h 2 v -1 h 2 v -1 h 3 v -1 h 2 v -1 h 2 v -1 h 3 v -1 h 2 v -1 h 3 v -1 h 2 v -1 h 2 v -1 h 3 v -1 h 2 v -1 h 3 v -1 h 2 v -1 h 2 v -1 h 3 v -1 h 2 v -1 h 3 v -1 h 2 v -1 h 3 v -1 h 2 v -1 h 3 v -1 h 2 v -1 h 3 v -1 h 3 v -1 h 2 v -1 h 3 v -1 h 2 v -1 h 3 v -1 h 3 v -1 h 2 v -1 h 3 v -1 h 2 v -1 h 3 v -1 h 3 v -1 h 2 v -1 h 3 v -1 h 3 v -1 h 3 v -1 h 3 v -1 h 2 v -1 h 3 v -1 h 3 v -1 h 3 v -1 h 3 v -1 h 2 v -1 h 3 v -1 h 3 v -1 h 3 v -1 h 3 v -1 h 3 v -1 h 3 v -1 h 3 v -1 h 3 v -1 h 3 v -1 h 3 v -1 h 3 v -1 h 3 v -1 h 3 v -1 h 3 v -1 h 4 v -1 h 3 v -1 h 3 v -1 h 3 v -1 h 3 v -1 h 4 v -1 h 3 v -1 h 3 v -1 h 4 v -1 h 3 v -1 h 4 v -1 h 3 v -1 h 3 v -1 h 4 v -1 h 3 v -1 h 4 v -1 h 3 v -1 h 4 v -1 h 4 v -1 h 4 v -1 h 3 v -1 h 4 v -1 h 4 v -1 h 4 v -1 h 4 v -1 h 3 v -1 h 4 v -1 h 4 v -1 h 5 v -1 h 4 v -1 h 4 v -1 h 4 v -1 h 5 v -1 h 4 v -1 h 4 v -1 h 5 v -1 h 4 v -1 h 5 v -1 h 5 v -1 h 5 v -1 h 5 v -1 h 5 v -1 h 5 v -1 h 5 v -1 h 5 v -1 h 5 v -1 h 6 v -1 h 6 v -1 h 6 v -1 h 5 v -1 h 6 v -1 h 6 v -1 h 7 v -1 h 7 v -1 h 7 v -1 h 8 v -1 h 7 v -1 h 8 v -1 h 8 v -1 h 10 v -1 h 10 v -1 h 10 v -1 h 12 v -1 h 16 v -1 h 15 v -1 h 30 v -1 h 51 v 1 h 23 v 1 h 15 v 1 h 14 v 1 h 11 v 1 h 8 v 1 h 8 v 1 h 9 v 1 h 8 v 1 h 8 v 1 h 8 v 1 h 7 v 1 h 5 v 1 h 5 v 1 h 5 v 1 h 6 v 1 h 5 v 1 h 5 v 1 h 5 v 1 h 5 v 1 h 5 v 1 h 6 v 1 h 4 v 1 h 4 v 1 h 3 v 1 h 4 v 1 h 4 v 1 h 4 v 1 h 3 v 1 h 4 v 1 h 4 v 1 h 4 v 1 h 3 v 1 h 4 v 1 h 4 v 1 h 4 v 1 h 3 v 1 h 3 v 1 h 3 v 1 h 3 v 1 h 3 v 1 h 2 v 1 h 3 v 1 h 3 v 1 h 3 v 1 h 3 v 1 h 3 v 1 h 3 v 1 h 3 v 1 h 2 v 1 h 3 v 1 h 3 v 1 h 3 v 1 h 3 v 1 h 3 v 1 h 2 v 1 h 2 v 1 h 2 v 1 h 3 v 1 h 2 v 1 h 2 v 1 h 3 v 1 h 2 v 1 h 2 v 1 h 3 v 1 h 2 v 1 h 2 v 1 h 2 v 1 h 3 v 1 h 2 v 1 h 2 v 1 h 3 v 1 h 2 v 1 h 2 v 1 h 3 v 1 h 2 v 1 h 2 v 1 h 2 v 1 h 1 v 1 h 2 v 1 h 2 v 1 h 2 v 1 h 2 v 1 h 2 v 1 h 2 v 1 h 2 v 1 h 2 v 1 h 1 v 1 h 2 v 1 h 2 v 1 h 2 v 1 h 2 v 1 h 2 v 1 h 2 v 1 h 2 v 1 h 2 v 1 h 1 v 1 h 2 v 1 h 2 v 1 h 2 v 1 h 2 v 1 h 2 v 1 h 1 v 1 h 2 v 1 h 1 v 1 h 2 v 1 h 2 v 1 h 1 v 1 h 2 v 1 h 1 v 1 h 2 v 1 h 2 v 1 h 1 v 1 h 2 v 1 h 2 v 1 h 1 v 1 h 2 v 1 h 1 v 1 h 2 v 1 h 2 v 1 h 1 v 1 h 2 v 1 h 1 v 1 h 2 v 1 h 1 v 1 h 2 v 1 h 1 v 1 h 1 v 1 h 2 v 1 h 1 V 2205 h 1 v -139 h 1 v -208 h -1 v -48 h -1 v -32 h -1 v -24 h -1 v -23 h -1 v -19 h -1 v -15 h -1 v -15 h -1 v -15 h -1 v -12 h -1 v -11 h -1 v -12 h -1 v -9 h -1 v -9 h -1 v -9 h -1 v -9 h -1 v -9 h -1 v -9 h -1 v -7 h -1 v -7 h -1 v -7 h -1 v -7 h -1 v -7 h -1 v -7 h -1 v -7 h -1 v -7 h -1 v -7 h -1 v -6 h -1 v -6 h -1 v -5 h -1 v -6 h -1 v -5 h -1 v -5 h -1 v -6 h -1 v -5 h -1 v -6 h -1 v -5 h -1 v -6 h -1 v -5 h -1 v -5 h -1 v -5 h -1 v -4 h -1 v -5 h -1 v -4 h -1 v -5 h -1 v -4 h -1 v -4 h -1 v -5 h -1 v -4 h -1 v -4 h -1 v -5 h -1 v -4 h -1 v -5 h -1 v -4 h -1 v -4 h -1 v -4 h -1 v -4 h -1 v -3 h -1 v -4 h -1 v -3 h -1 v -4 h -1 v -4 h -1 v -3 h -1 v -4 h -1 v -4 h -1 v -3 h -1 v -4 h -1 v -3 h -1 v -4 h -1 v -4 h -1 v -3 h -1 v -4 h -1 v -3 h -1 v -3 h -1 v -3 h -1 v -3 h -1 v -3 h -1 v -4 h -1 v -3 h -1 v -3 h -1 v -3 h -1 v -3 h -1 v -3 h -1 v -3 h -1 v -3 h -1 v -3 h -1 v -3 h -1 v -3 h -1 v -3 h -1 v -3 h -1 v -3 h -1 v -4 h -1 v -2 h -1 v -3 h -1 v -2 h -1 v -3 h -1 v -3 h -1 v -2 h -1 v -3 h -1 v -3 h -1 v -2 h -1 v -3 h -1 v -3 h -1 v -2 h -1 v -3 h -1 v -2 h -1 v -3 h -1 v -3 h -1 v -2 h -1 v -3 h -1 v -3 h -1 v -2 h -1 v -3 h -1 v -2 h -1 v -3 h -1 v -2 h -1 v -3 h -1 v -2 h -1 v -2 h -1 v -2 h -1 v -3 h -1 v -2 h -1 v -2 h -1 v -3 h -1 v -2 h -1 v -2 h -1 v -2 h -1 v -3 h -1 v -2 h -1 v -2 h -1 v -3 h -1 v -2 h -1 v -2 h -1 v -2 h -1 v -3 h -1 v -2 h -1 v -2 h -1 v -3 h -1 v -2 h -1 v -2 h -1 v -2 h -1 v -2 h -1 v -2 h -1 v -2 h -1 v -2 h -1 v -2 h -1 v -2 h -1 v -2 h -1 v -2 h -1 v -2 h -1 v -2 h -1 v -2 h -1 v -2 h -1 v -2 h -1 v -2 h -1 v -2 h -1 v -2 h -1 v -2 h -1 v -2 h -1 v -2 h -1 v -2 h -1 v -2 h -1 v -2 h -1 v -2 h -1 v -2 h -1 v -2 h -1 v -2 h -1 v -2 h -1 v -2 h -1 v -1 h -1 v -2 h -1 v -2 h -1 v -2 h -1 v -2 h -1 v -1 h -1 v -2 h -1 v -2 h -1 v -2 h -1 v -1 h -1 v -2 h -1 v -2 h -1 v -2 h -1 v -1 h -1 v -2 h -1 v -2 h -1 v -2 h -1 v -2 h -1 v -1 h -1 v -2 h -1 v -2 h -1 v -2 h -1 v -1 h -1 v -2 h -1 v -2 h -1 v -2 h -1 v -2 h -1 v -1 h -1 v -2 h -1 v -2 h -1 v -1 h -1 v -2 h -1 v -1 h -1 v -2 h -1 v -1 h -1 v -2 h -1 v -2 h -1 v -1 h -1 v -2 h -1 v -1 h -1 v -2 h -1 v -1 h -1 v -2 h -1 v -2 h -1 v -1 h -1 v -2 h -1 v -1 h -1 v -2 h -1 v -2 h -1 v -1 h -1 v -2 h -1 v -1 h -1 v -2 h -1 v -1 h -1 v -2 h -1 v -2 h -1 v -1 h -1 v -2 h -1 v -1 h -1 v -2 h -1 v -1 h -1 v -2 h -1 v -1 h -1 v -2 h -1 v -1 h -1 v -2 h -1 v -1 h -1 v -1 h -1 v -2 h -1 v -1 h -1 v -2 h -1 v -1 h -1 v -1 h -1 v -2 h -1 v -1 h -1 v -2 h -1 v -1 h -1 v -2 h -1 v -1 h -1 v -1 h -1 v -2 h -1 v -1 h -1 v -2 h -1 v -1 h -1 v -1 h -1 v -2 h -1 v -1 h -1 v -2 h -1 v -1 h -1 v -2 h -1 v -1 h -1 v -1 h -1 v -2 h -1 v -1 h -1 v -2 h -1 v -1 h -1 v -1 h -1 v -2 h -1 v -1 h -1 v -1 h -1 v -2 h -1 v -1 h -1 v -1 h -1 v -1 h -1 v -2 h -1 v -1 h -1 v -1 h -1 v -1 h -1 v -2 h -1 v -1 h -1 v -1 h -1 v -2 h -1 v -1 h -1 v -1 h -1 v -1 h -1 v -2 h -1 v -1 h -1 v -1 h -1 v -1 h -1 v -2 h -1 v -1 h -1 v -1 h -1 v -2 h -1 v -1 h -1 v -1 h -1 v -1 h -1 v -2 h -1 v -1 h -1 v -1 h -1 v -1 h -1 v -2 h -1 v -1 h -1 v -1 h -1 v -2 h -1 v -1 h -1 v -1 h -1 v -1 h -1 v -1 h -1 v -1 h -1 v -2 h -1 v -1 h -1 v -1 h -1 v -1 h -1 v -1 h -1 v -1 h -1 v -2 h -1 v -1 h -1 v -1 h -1 v -1 h -1 v -1 h -1 v -1 h -1 v -1 h -1 v -2 h -1 v -1 h -1 v -1 h -1 v -1 h -1 v -1 h -1 v -1 h -1 v -2 h -1 v -1 h -1 v -1 h -1 v -1 h -1 v -1 h -1 v -1 h -1 v -1 h -1 v -2 h -1 v -1 h -1 v -1 h -1 v -1 h -1 v -1 h -1 v -1 h -1 v -2 h -1 v -1 h -1 v -1 h -1 v -1 h -1 v -1 h -1 v -1 h -1 v -1 h -1 v -1 h -1 v -1 h -1 v -1 h -1 v -1 h -1 v -2 h -1 v -1 h -1 v -1 h -1 v -1 h -1 v -1 h -1 v -1 h -1 v -1 h -1 v -1 h -1 v -1 h -1 v -1 h -1 v -1 h -1 v -1 h -1 v -1 h -1 v -1 h -1 v -1 h -1 v -1 h -1 v -1 h -1 v -1 h -1 v -1 h -1 v -1 h -1 v -1 h -1 v -2 h -1 v -1 h -1 v -1 h -1 v -1 h -1 v -1 h -1 v -1 h -1 v -1 h -1 v -1 h -1 v -1 h -1 v -1 h -1 v -1 h -1 v -1 h -1 v -1 h -1 v -1 h -1 v -1 h -1 v -1 h -1 v -1 h -1 v -1 h -1 v -1 h -1 v -1 h -1 v -1 h -1 v -1 h -1 v -1 h -1 v -1 h -1 v -1 h -1 v -1 h -1 v -1 h -1 v -1 h -1 v -1 h -1 v -1 h -1 v -1 h -1 v -1 h -1 v -1 h -1 v -1 h -1 v -1 h -1 v -1 h -1 v -1 h -1 v -1 h -1 v -1 h -1 v -1 h -1 v -1 h -1 v -1 h -1 v -1 h -2 v -1 h -1 v -1 h -1 v -1 h -1 v -1 h -1 v -1 h -1 v -1 h -1 v -1 h -1 v -1 h -1 v -1 h -1 v -1 h -1 v -1 h -1 v -1 h -1 v -1 h -1 v -1 h -1 v -1 h -1 v -1 h -2 v -1 h -1 v -1 h -1 v -1 h -1 v -1 h -1 v -1 h -1 v -1 h -1 v -1 h -1 v -1 h -1 v -1 h -1 v -1 h -1 v -1 h -2 v -1 h -1 v -1 h -1 v -1 h -1 v -1 h -1 v -1 h -1 v -1 h -1 v -1 h -1 v -1 h -2 v -1 h -1 v -1 h -1 v -1 h -1 v -1 h -1 v -1 h -1 v -1 h -2 v -1 h -1 v -1 h -1 v -1 h -1 v -1 h -1 v -1 h -1 v -1 h -1 v -1 h -2 v -1 h -1 v -1 h -1 v -1 h -1 v -1 h -1 v -1 h -1 v -1 h -2 v -1 h -1 v -1 h -1 v -1 h -1 v -1 h -1 v -1 h -1 v -1 h -2 v -1 h -1 v -1 h -1 v -1 h -1 v -1 h -2 v -1 h -1 v -1 h -1 v -1 h -1 v -1 h -1 v -1 h -2 v -1 h -1 v -1 h -1 v -1 h -1 v -1 h -2 v -1 h -1 v -1 h -1 v -1 h -1 v -1 h -2 v -1 h -1 v -1 h -1 v -1 h -1 v -1 h -1 v -1 h -2 v -1 h -1 v -1 h -1 v -1 h -1 v -1 h -2 v -1 h -1 v -1 h -1 v -1 h -1 v -1 h -2 v -1 h -1 v -1 h -1 v -1 h -1 v -1 h -1 v -1 h -2 v -1 h -1 v -1 h -1 v -1 h -1 v -1 h -2 v -1 h -1 v -1 h -1 v -1 h -2 v -1 h -1 v -1 h -1 v -1 h -2 v -1 h -1 v -1 h -1 v -1 h -2 v -1 h -1 v -1 h -1 v -1 h -2 v -1 h -1 v -1 h -1 v -1 h -2 v -1 h -1 v -1 h -1 v -1 h -2 v -1 h -1 v -1 h -1 v -1 h -2 v -1 h -1 v -1 h -1 v -1 h -2 v -1 h -1 v -1 h -1 v -1 h -1 v -1 h -2 v -1 h -1 v -1 h -1 v -1 h -2 v -1 h -1 v -1 h -1 v -1 h -2 v -1 h -1 v -1 h -1 v -1 h -2 v -1 h -1 v -1 h -2 v -1 h -1 v -1 h -2 v -1 h -1 v -1 h -1 v -1 h -2 v -1 h -1 v -1 h -2 v -1 h -1 v -1 h -2 v -1 h -1 v -1 h -1 v -1 h -2 v -1 h -1 v -1 h -2 v -1 h -1 v -1 h -1 v -1 h -2 v -1 h -1 v -1 h -2 v -1 h -1 v -1 h -2 v -1 h -1 v -1 h -1 v -1 h -2 v -1 h -1 v -1 h -2 v -1 h -1 v -1 h -1 v -1 h -2 v -1 h -1 v -1 h -2 v -1 h -1 v -1 h -2 v -1 h -1 v -1 h -2 v -1 h -1 v -1 h -2 v -1 h -1 v -1 h -2 v -1 h -1 v -1 h -2 v -1 h -1 v -1 h -2 v -1 h -1 v -1 h -2 v -1 h -1 v -1 h -2 v -1 h -1 v -1 h -2 v -1 h -1 v -1 h -2 v -1 h -1 v -1 h -2 v -1 h -1 v -1 h -2 v -1 h -1 v -1 h -2 v -1 h -2 v -1 h -1 v -1 h -2 v -1 h -1 v -1 h -2 v -1 h -1 v -1 h -2 v -1 h -1 v -1 h -2 v -1 h -1 v -1 h -2 v -1 h -1 v -1 h -2 v -1 h -2 v -1 h -1 v -1 h -2 v -1 h -1 v -1 h -2 v -1 h -2 v -1 h -1 v -1 h -2 v -1 h -2 v -1 h -1 v -1 h -2 v -1 h -1 v -1 h -2 v -1 h -2 v -1 h -1 v -1 h -2 v -1 h -1 v -1 h -2 v -1 h -2 v -1 h -1 v -1 h -2 v -1 h -1 v -1 h -2 v -1 h -2 v -1 h -1 v -1 h -2 v -1 h -1 v -1 h -2 v -1 h -2 v -1 h -1 v -1 h -2 v -1 h -2 v -1 h -1 v -1 h -2 v -1 h -2 v -1 h -2 v -1 h -1 v -1 h -2 v -1 h -2 v -1 h -1 v -1 h -2 v -1 h -2 v -1 h -2 v -1 h -1 v -1 h -2 v -1 h -2 v -1 h -1 v -1 h -2 v -1 h -2 v -1 h -1 v -1 h -2 v -1 h -2 v -1 h -2 v -1 h -1 v -1 h -2 v -1 h -2 v -1 h -1 v -1 h -2 v -1 h -2 v -1 h -1 v -1 h -2 v -1 h -2 v -1 h -2 v -1 h -1 v -1 h -2 v -1 h -2 v -1 h -2 v -1 h -2 v -1 h -1 v -1 h -2 v -1 h -2 v -1 h -2 v -1 h -2 v -1 h -1 v -1 h -2 v -1 h -2 v -1 h -2 v -1 h -2 v -1 h -1 v -1 h -2 v -1 h -2 v -1 h -2 v -1 h -2 v -1 h -1 v -1 h -2 v -1 h -2 v -1 h -2 v -1 h -2 v -1 h -1 v -1 h -2 v -1 h -2 v -1 h -2 v -1 h -2 v -1 h -1 v -1 h -2 v -1 h -2 v -1 h -2 v -1 h -2 v -1 h -2 v -1 h -2 v -1 h -2 v -1 h -1 v -1 h -2 v -1 h -2 v -1 h -2 v -1 h -2 v -1 h -2 v -1 h -2 v -1 h -2 v -1 h -2 v -1 h -1 v -1 h -2 v -1 h -2 v -1 h -2 v -1 h -2 v -1 h -2 v -1 h -2 v -1 h -2 v -1 h -1 v -1 h -2 v -1 h -2 v -1 h -2 v -1 h -2 v -1 h -2 v -1 h -2 v -1 h -2 v -1 h -2 v -1 h -2 v -1 h -2 v -1 h -2 v -1 h -2 v -1 h -2 v -1 h -2 v -1 h -2 v -1 h -2 v -1 h -2 v -1 h -2 v -1 h -1 v -1 h -2 v -1 h -2 v -1 h -2 v -1 h -2 v -1 h -2 v -1 h -2 v -1 h -2 v -1 h -2 v -1 h -2 v -1 h -2 v -1 h -2 v -1 h -2 v -1 h -2 v -1 h -2 v -1 h -2 v -1 h -2 v -1 h -2 v -1 h -2 v -1 h -2 v -1 h -2 v -1 h -2 v -1 h -2 v -1 h -2 v -1 h -2 v -1 h -2 v -1 h -2 v -1 h -3 v -1 h -2 v -1 h -2 v -1 h -2 v -1 h -2 v -1 h -2 v -1 h -2 v -1 h -2 v -1 h -2 v -1 h -2 v -1 h -2 v -1 h -2 v -1 h -2 v -1 h -2 v -1 h -2 v -1 h -2 v -1 h -2 v -1 h -2 v -1 h -2 v -1 h -3 v -1 h -2 v -1 h -2 v -1 h -2 v -1 h -2 v -1 h -2 v -1 h -2 v -1 h -2 v -1 h -2 v -1 h -3 v -1 h -2 v -1 h -2 v -1 h -2 v -1 h -2 v -1 h -2 v -1 h -2 v -1 h -2 v -1 h -2 v -1 h -3 v -1 h -2 v -1 h -2 v -1 h -2 v -1 h -2 v -1 h -2 v -1 h -2 v -1 h -2 v -1 h -2 v -1 h -3 v -1 h -2 v -1 h -2 v -1 h -2 v -1 h -2 v -1 h -3 v -1 h -2 v -1 h -2 v -1 h -2 v -1 h -2 v -1 h -2 v -1 h -3 v -1 h -2 v -1 h -2 v -1 h -2 v -1 h -2 v -1 h -2 v -1 h -3 v -1 h -2 v -1 h -2 v -1 h -2 v -1 h -2 v -1 h -3 v -1 h -2 v -1 h -2 v -1 h -2 v -1 h -2 v -1 h -2 v -1 h -3 v -1 h -2 v -1 h -2 v -1 h -2 v -1 h -3 v -1 h -2 v -1 h -2 v -1 h -2 v -1 h -2 v -1 h -3 v -1 h -2 v -1 h -2 v -1 h -2 v -1 h -3 v -1 h -2 v -1 h -2 v -1 h -2 v -1 h -3 v -1 h -2 v -1 h -2 v -1 h -2 v -1 h -2 v -1 h -3 v -1 h -2 v -1 h -2 v -1 h -2 v -1 h -3 v -1 h -2 v -1 h -2 v -1 h -2 v -1 h -3 v -1 h -2 v -1 h -2 v -1 h -2 v -1 h -3 v -1 h -2 v -1 h -2 v -1 h -3 v -1 h -2 v -1 h -2 v -1 h -2 v -1 h -3 v -1 h -2 v -1 h -2 v -1 h -2 v -1 h -3 v -1 h -2 v -1 h -2 v -1 h -3 v -1 h -2 v -1 h -2 v -1 h -2 v -1 h -3 v -1 h -2 v -1 h -2 v -1 h -2 v -1 h -3 v -1 h -2 v -1 h -2 v -1 h -3 v -1 h -2 v -1 h -2 v -1 h -3 v -1 h -2 v -1 h -2 v -1 h -2 v -1 h -3 v -1 h -2 v -1 h -2 v -1 h -3 v -1 h -2 v -1 h -2 v -1 h -2 v -1 h -3 v -1 h -2 v -1 h -2 v -1 h -3 v -1 h -2 v -1 h -2 v -1 h -3 v -1 h -2 v -1 h -2 v -1 h -3 v -1 h -2 v -1 h -3 v -1 h -2 v -1 h -3 v -1 h -2 v -1 h -2 v -1 h -3 v -1 h -2 v -1 h -3 v -1 h -2 v -1 h -3 v -1 h -2 v -1 h -3 v -1 h -2 v -1 h -3 v -1 h -2 v -1 h -3 v -1 h -2 v -1 h -3 v -1 h -2 v -1 h -3 v -1 h -2 v -1 h -3 v -1 h -2 v -1 h -3 v -1 h -2 v -1 h -3 v -1 h -3 v -1 h -2 v -1 h -3 v -1 h -2 v -1 h -3 v -1 h -2 v -1 h -3 v -1 h -2 v -1 h -3 v -1 h -2 v -1 h -3 v -1 h -2 v -1 h -3 v -1 h -2 v -1 h -3 v -1 h -3 v -1 h -2 v -1 h -3 v -1 h -2 v -1 h -3 v -1 h -2 v -1 h -3 v -1 h -2 v -1 h -3 v -1 h -2 v -1 h -3 v -1 h -3 v -1 h -2 v -1 h -3 v -1 h -2 v -1 h -3 v -1 h -2 v -1 h -3 v -1 h -2 v -1 h -3 v -1 h -3 v -1 h -2 v -1 h -3 v -1 h -2 v -1 h -3 v -1 h -2 v -1 h -3 v -1 h -3 v -1 h -2 v -1 h -3 v -1 h -2 v -1" /></g></g></g><path
         id="path54"
         style="fill:#ed1f27;fill-opacity:1;fill-rule:nonzero;stroke:none"
         d="m 2265.84,4081.06 c -495.33,-42.76 -951.75,10.95 -1241.73,174.88 77.23,47.2 144.31,102.08 233.31,154.16 416.64,-213.2 1137.44,-168.81 1562.65,21.15 69.54,-68.79 113.93,-94.38 174.88,-163.33 -122.21,-59.33 -444.14,-162.3 -729.11,-186.86" /><path
         id="path56"
         style="fill:#100f0d;fill-opacity:1;fill-rule:nonzero;stroke:none"
         d="m 2817.11,4437.48 c -411.89,-184.21 -1135.6,-236.73 -1556.58,-21.46 l -3.33,1.63 -3.03,-1.78 c -49.41,-28.85 -91.81,-58.44 -133.01,-86.99 -33.96,-23.83 -66.05,-46.01 -100.61,-67.17 l -9.83,-6.07 10.13,-5.62 c 280.29,-158.46 722.67,-220.74 1245.6,-175.63 286.71,24.87 606,126.51 731.46,187.46 l 7.99,3.85 -5.91,6.66 c -35.08,39.79 -65.11,65.39 -96.92,92.77 -24.11,20.41 -48.68,41.72 -78.27,71.01 l -3.4,3.25 z m 1.18,-14.07 c 28.56,-27.96 52.68,-48.81 76.06,-68.64 29.28,-25.16 57.54,-49.57 89.2,-84.48 -134.48,-63.03 -451.09,-159.49 -718.29,-182.43 -514.2,-44.38 -949.03,15.69 -1227.61,168.97 31.06,19.22 60.44,39.35 91.2,60.8 40.02,28.11 81.67,56.82 129.08,84.77 423.45,-214.37 1146.1,-162.45 1560.36,21.01" /><path
         id="path58"
         style="fill:#100f0d;fill-opacity:1;fill-rule:nonzero;stroke:none"
         d="m 1584.76,4263.63 -24.19,4.43 -52.89,-52.81 -0.3,0.15 10.88,60.36 -22.11,4 -25.15,-138.48 22.11,-4 8.06,44.83 15.46,15.09 22.26,-68.2 25.01,-4.59 -29.74,88.18 z m 1.27,-142.33 22.26,-3.25 3.77,25.74 -22.27,3.41 z m 166.95,22.19 c -1.41,-14.2 -2.74,-27.81 -17.76,-26.48 -12.42,1.48 -13.9,11.1 -12.72,22.49 l 0.6,6.81 -21.23,2.22 -0.75,-9.03 c -1.48,-18.49 3.49,-36.25 32.11,-39.35 22.41,-2.37 38.84,6.95 41.72,37.72 l 9.85,101.5 -22.43,2.06 z m 54.96,-46.75 22.43,-1.77 1.84,26.04 -22.41,1.62 z m 185.9,77.97 -41.35,0.15 0.3,56.37 -22.57,0.15 -0.59,-140.7 h 22.41 l 0.3,65.39 41.5,-0.29 -0.43,-65.4 h 22.56 l 0.73,140.71 -22.56,0.14 z m 59.85,-83.29 22.48,0.74 -0.88,26.03 -22.49,-0.74 z m 151.2,151.21 -44.37,-4.59 14.33,-139.97 22.35,2.22 -5.91,57.85 19.51,2.07 c 26.35,2.52 39.36,20.42 36.7,45.42 -2.35,23.97 -15.83,39.65 -42.61,37 m 0.6,-66.15 -15.99,-1.47 -5.03,48.38 14.5,1.47 c 17.77,1.78 24.86,-6.65 26.34,-21.9 1.78,-17.44 -7.84,-25.29 -19.82,-26.48 m 78.11,-40.09 3.56,-25.59 22.2,3.1 -3.72,25.9 z m 154.47,145.74 12.43,-55.04 -40.26,-9.03 -12.7,54.74 -21.77,-4.74 31.23,-137.29 21.9,5.03 -14.51,63.77 40.24,9.17 14.66,-63.77 21.89,5.04 -31.21,137.14 z m 104.15,-90.7 -21.6,-6.22 7.11,-25 21.6,6.07 -7.11,25.15" /><g
         id="g60"><g
           clip-path="url(#clipPath66)"
           id="g62"><g
             clip-path="url(#clipPath72)"
             id="g68"><path
               id="path82"
               style="fill:url(#linearGradient80);fill-opacity:1;fill-rule:nonzero;stroke:none"
               d="m 878,1674 v 1 h -3 v 1 h -2 v 1 h -2 v 1 h -3 v 1 h -2 v 1 h -3 v 1 h -2 v 1 h -2 v 1 h -3 v 1 h -2 v 1 h -3 v 1 h -2 v 1 h -3 v 1 h -2 v 1 h -2 v 1 h -3 v 1 h -2 v 1 h -3 v 1 h -2 v 1 h -2 v 1 h -3 v 1 h -2 v 1 h -3 v 1 h -2 v 1 h -3 v 1 h -2 v 1 h -2 v 1 h -3 v 1 h -2 v 1 h -3 v 1 h -2 v 2 h -1 v 1 h -1 v 1 h -1 v 2 h -1 v 1 h -1 v 1 h -1 v 2 h -1 v 1 h -1 v 1 h -1 v 2 h -1 v 1 h -1 v 1 h -1 v 2 h -1 v 1 h -1 v 1 h -1 v 2 h -1 v 1 h -1 v 1 h -1 v 2 h -1 v 1 h -1 v 1 h -1 v 2 h -1 v 1 h -1 v 1 h -1 v 2 h -1 v 1 h -1 v 1 h -1 v 2 h -1 v 1 h -1 v 1 h -1 v 2 h -1 v 1 h -1 v 1 h -1 v 2 h -1 v 1 h -1 v 1 h -1 v 2 h -1 v 1 h -1 v 1 h -1 v 2 h -1 v 1 h -1 v 1 h -1 v 2 h -1 v 1 h -1 v 1 h -1 v 2 h -1 v 1 h -1 v 1 h -1 v 2 h -1 v 1 h -1 v 1 h -1 v 2 h -1 v 1 h -1 v 1 h -1 v 3 h -1 v 3 h -1 v 3 h -1 v 3 h -1 v 3 h -1 v 3 h -1 v 3 h -1 v 3 h -1 v 3 h -1 v 3 h -1 v 3 h -1 v 4 h -1 v 3 h -1 v 3 h -1 v 3 h -1 v 3 h -1 v 3 h -1 v 3 h -1 v 3 h -1 v 3 h -1 v 3 h -1 v 3 h -1 v 3 h -1 v 3 h -1 v 3 h -1 v 3 h -1 v 3 h -1 v 4 h -1 v 3 h -1 v 3 h -1 v 3 h -1 v 3 h -1 v 3 h -1 v 3 h -1 v 3 h -1 v 3 h -1 v 3 h -1 v 3 h -1 v 3 h -1 v 3 h -1 v 2 h -1 v 2 h -1 v 2 h -1 v 2 h -1 v 2 h -1 v 2 h -1 v 2 h -1 v 2 h -1 v 2 h -1 v 2 h -1 v 2 h -1 v 2 h -1 v 2 h -1 v 2 h -1 v 2 h -1 v 2 h -1 v 3 h -1 v 2 h -1 v 2 h -1 v 2 h -1 v 2 h -1 v 2 h -1 v 2 h -1 v 2 h -1 v 2 h -1 v 2 h -1 v 2 h -1 v 2 h -1 v 2 h -7 v 1 h -48 v 1 h -30 v -4 h -1 v -4 h -1 v -4 h -1 v -5 h -1 v -4 h -1 v -4 h -1 v -4 h -1 v -4 h -1 v -4 h -1 v -5 h -1 v -4 h -1 v -4 h -1 v -4 h -1 v -4 h -1 v -4 h -1 v -5 h -1 v -4 h -1 v -4 h -1 v -4 h -1 v -4 h -1 v -4 h -1 v -5 h -1 v -4 h -1 v -4 h -1 v -4 h -1 v -4 h -1 v -4 h -1 v -5 h -1 v -4 h -1 v -4 h -1 v -4 h -1 v -4 h -1 v -4 h -1 v -5 h -1 v -4 h -1 v -4 h -1 v -4 h -1 v -4 h -1 v -4 h -1 v -5 h -1 v -4 h -1 v -4 h -1 v -3 h -1 v -2 h -1 v -1 h -1 v -2 h -1 v -1 h -1 v -2 h -1 v -1 h -1 v -1 h -1 v -2 h -1 v -1 h -1 v -2 h -1 v -1 h -1 v -2 h -1 v -1 h -1 v -1 h -1 v -2 h -1 v -1 h -1 v -2 h -1 v -1 h -1 v -2 h -1 v -1 h -1 v -2 h -1 v -1 h -1 v -1 h -1 v -2 h -1 v -1 h -1 v -2 h -1 v -1 h -1 v -2 h -1 v -1 h -1 v -1 h -1 v -2 h -1 v -1 h -1 v -2 h -1 v -1 h -1 v -2 h -1 v -1 h -1 v -2 h -1 v -1 h -1 v -1 h -1 v -2 h -1 v -1 h -1 v -2 h -1 v -1 h -1 v -2 h -1 v -1 h -1 v -1 h -1 v -2 h -1 v -1 h -1 v -2 h -1 v -1 h -1 v -2 h -1 v -1 h -1 v -2 h -1 v -1 h -1 v -1 h -1 v -2 h -1 v -1 h -1 v -2 h -1 v -1 h -1 v -2 h -1 v -1 h -1 v -1 h -1 v -2 h -1 v -1 h -1 v -2 h -1 v -1 h -1 v -2 h -1 v -1 h -1 v -2 h -1 v -1 h -1 v -1 h -1 v 1 h -1 v 2 h -1 v 1 h -1 v 2 h -1 v 1 h -1 v 1 h -1 v 2 h -1 v 1 h -1 v 2 h -1 v 1 h -1 v 2 h -1 v 1 h -1 v 2 h -1 v 1 h -1 v 2 h -1 v 1 h -1 v 2 h -1 v 1 h -1 v 2 h -1 v 1 h -1 v 1 h -1 v 2 h -1 v 1 h -1 v 2 h -1 v 1 h -1 v 2 h -1 v 1 h -1 v 2 h -1 v 1 h -1 v 2 h -1 v 1 h -1 v 2 h -1 v 1 h -1 v 1 h -1 v 2 h -1 v 1 h -1 v 2 h -1 v 1 h -1 v 2 h -1 v 1 h -1 v 2 h -1 v 1 h -1 v 2 h -1 v 1 h -1 v 2 h -1 v 1 h -1 v 1 h -1 v 2 h -1 v 1 h -1 v 2 h -1 v 1 h -1 v 2 h -1 v 1 h -1 v 2 h -1 v 1 h -1 v 2 h -1 v 1 h -1 v 2 h -1 v 1 h -1 v 2 h -1 v 1 h -1 v 1 h -1 v 2 h -1 v 1 h -1 v 2 h -1 v 1 h -1 v 2 h -1 v 1 h -1 v 2 h -1 v 1 h -1 v 2 h -1 v 1 h -1 v 2 h -1 v 1 h -1 v 1 h -1 v 2 h -1 v 1 h -1 v 2 h -1 v 1 h -1 v 2 h -1 v 1 h -1 v 2 h -1 v 1 h -1 v 2 h -1 v 1 h -1 v 2 h -1 v 1 h -1 v 2 h -1 v 1 h -1 v 1 h -1 v 2 h -1 v 1 h -1 v 2 h -1 v 1 h -1 v 2 h -1 v 1 h -1 v 2 h -1 v 1 h -1 v 2 h -1 v 1 h -1 v 2 h -1 v 1 h -1 v 1 h -1 v 2 h -1 v 1 h -1 v 2 h -1 v 1 h -1 v 2 h -1 v 1 h -1 v 2 h -1 v 1 h -1 v 2 h -1 v 1 h -1 v 2 h -1 v 1 h -1 v 2 h -1 v 1 h -1 v 1 h -1 v 2 h -1 v 1 h -1 v 2 h -1 v 1 h -1 v 2 h -1 v 1 h -1 v 2 h -1 v 1 h -1 v 2 h -1 v 1 h -1 v 2 h -1 v 1 h -1 v 1 h -1 v 3 h -1 v 2 h -1 v 3 h -1 v 3 h -1 v 2 h -1 v 3 h -1 v 3 h -1 v 2 h -1 v 3 h -1 v 3 h -1 v 2 h -1 v 3 h -1 v 3 h -1 v 2 h -1 v 3 h -1 v 3 h -1 v 2 h -1 v 3 h -1 v 3 h -1 v 2 h -1 v 3 h -1 v 3 h -1 v 2 h -1 v 3 h -1 v 3 h -1 v 2 h -1 v 3 h -1 v 3 h -1 v 2 h -1 v 3 h -1 v 3 h -1 v 2 h -1 v 3 h -1 v 3 h -1 v 2 h -1 v 3 h -1 v 3 h -1 v 2 h -1 v 3 h -1 v 2 h -1 v 3 h -1 v 3 h -1 v 2 h -1 v 3 h -1 v 3 h -1 v 2 h -1 v 3 h -1 v 3 h -1 v 2 h -1 v 3 h -1 v 3 h -1 v 1 h -2 v 1 h -1 v 1 h -2 v 1 h -2 v 1 h -1 v 1 h -2 v 1 h -2 v 1 h -1 v 1 h -2 v 1 h -2 v 1 h -2 v 1 h -1 v 1 h -2 v 1 h -2 v 1 h -1 v 1 h -2 v 1 h -2 v 1 h -2 v 1 h -1 v 1 h -2 v 1 h -2 v 1 h -1 v 1 h -2 v 1 h -2 v 1 h -2 v 1 h -1 v 1 h -2 v 1 h -2 v 1 h -1 v 1 h -2 v 1 h -2 v 1 h -1 v 1 h -2 v 1 h -2 v 1 h -2 v 1 h -1 v 1 h -2 v 1 h -2 v 1 h -1 v 1 h -2 v 1 h -2 v 1 h -2 v 1 h -1 v 1 h -2 v 1 h -4 v 1 h -4 v 1 h -5 v 1 h -4 v 1 h -4 v 1 h -5 v 1 h -4 v 1 h -4 v 1 h -4 v 1 h -5 v 1 h -4 v 1 h -4 v 1 h -5 v 1 h -4 v 1 h -4 v 1 h -4 v 1 h -5 v 1 h -4 v 1 h -4 v 1 h -5 v 1 h -4 v 1 h -4 v 1 h -4 v 1 h -5 v 1 h -4 v 1 h -4 v 1 h -5 v 1 h -1 v 3 h -1 v 2 h -1 v 2 h -1 v 2 h -1 v 2 h -1 v 2 h -1 v 2 h -1 v 3 h -1 v 2 h -1 v 2 h -1 v 2 h -1 v 2 h -1 v 2 h -1 v 2 h -1 v 3 h -1 v 2 h -1 v 2 h -1 v 2 h -1 v 2 h -1 v 2 h -1 v 2 h -1 v 3 h -1 v 2 h -1 v 2 h -1 v 2 h -1 v 2 h -1 v 2 h -1 v 2 h -1 v 3 h -1 v 2 h -1 v 2 h -1 v 2 h -1 v 58 h 1 v 35 h 1 v 10 h 1 v 11 h 1 v 10 h 1 v 10 h 1 v 11 h 1 v 10 h 1 v 15 h -1 v 6 h -1 v 6 h -1 v 5 h -1 v 6 h -1 v 6 h -1 v 5 h -1 v 6 h -1 v 6 h -1 v 5 h -1 v 6 h -1 v 10 h -1 v 32 h -1 v 31 h -1 v 6 h -1 v 3 h -1 v 2 h -1 v 2 h -1 v 2 h -1 v 2 h -1 v 2 h -1 v 2 h -1 v 3 h -1 v 2 h -1 v 2 h -1 v 2 h -1 v 2 h -1 v 2 h -1 v 2 h -1 v 3 h -1 v 2 h -1 v 2 h -1 v 2 h -1 v 2 h -1 v 2 h -1 v 2 h -1 v 3 h -1 v 2 h -1 v 2 h -1 v 2 h -1 v 2 h -1 v 2 h -1 v 2 h -1 v 3 h -1 v 2 h -1 v 2 h -1 v 2 h -1 v 2 h 1 v 2 h 1 v 3 h 1 v 2 h 1 v 2 h 1 v 3 h 1 v 2 h 1 v 2 h 1 v 2 h 1 v 3 h 1 v 2 h 1 v 2 h 1 v 3 h 1 v 2 h 1 v 2 h 1 v 2 h 1 v 3 h 1 v 2 h 1 v 2 h 1 v 2 h 1 v 3 h 1 v 2 h 1 v 2 h 1 v 3 h 1 v 2 h 1 v 2 h 1 v 2 h 1 v 3 h 1 v 2 h 1 v 2 h 1 v 3 h 1 v 2 h 1 v 2 h 1 v 2 h 1 v 3 h 1 v 2 h 1 v 2 h 1 v 3 h 1 v 2 h 1 v 4 h 1 v 6 h 1 v 6 h 1 v 6 h 1 v 6 h 1 v 6 h 1 v 6 h 1 v 7 h 1 v 6 h 1 v 5 h 1 v 1 h 2 v 1 h 2 v 1 h 2 v 1 h 2 v 1 h 2 v 1 h 3 v 1 h 2 v 1 h 2 v 1 h 2 v 1 h 2 v 1 h 2 v 1 h 2 v 1 h 2 v 1 h 2 v 1 h 2 v 1 h 2 v 1 h 2 v 1 h 2 v 1 h 2 v 1 h 2 v 1 h 2 v 1 h 2 v 1 h 2 v 1 h 3 v 1 h 2 v 1 h 2 v 1 h 2 v 1 h 2 v 1 h 2 v 1 h 2 v 1 h 2 v 1 h 2 v 1 h 2 v 1 h 2 v 1 h 2 v 1 h 2 v 1 h 2 v 1 h 2 v 1 h 2 v 1 h 2 v 1 h 3 v 1 h 2 v 1 h 2 v 1 h 2 v 1 h 2 v 1 h 2 v 1 h 2 v 1 h 3 v 1 h 2 v 1 h 2 v 1 h 3 v 1 h 2 v 1 h 2 v 1 h 3 v 1 h 2 v 1 h 2 v 1 h 3 v 1 h 2 v 1 h 3 v 1 h 2 v 1 h 2 v 1 h 3 v 1 h 2 v 1 h 2 v 1 h 3 v 1 h 2 v 1 h 3 v 1 h 2 v 1 h 2 v 1 h 3 v 1 h 2 v 1 h 2 v 1 h 3 v 1 h 2 v 1 h 2 v 1 h 3 v 1 h 2 v 1 h 3 v 1 h 2 v 1 h 2 v 1 h 3 v 1 h 2 v 1 h 2 v 1 h 4 v 1 h 7 v 1 h 7 v 1 h 7 v 1 h 7 v 1 h 1 v 7 h 1 v 18 h 1 v 17 h 1 v 9 h 1 v 1 h 3 v 1 h 3 v 1 h 2 v 1 h 3 v 1 h 2 v 1 h 3 v 1 h 2 v 1 h 3 v 1 h 3 v 1 h 2 v 1 h 3 v 1 h 2 v 1 h 3 v 1 h 2 v 1 h 3 v 1 h 2 v 1 h 3 v 1 h 3 v 1 h 2 v 1 h 3 v 1 h 2 v 1 h 3 v 1 h 2 v 1 h 3 v 1 h 3 v 1 h 2 v 1 h 3 v 1 h 2 v 1 h 3 v 1 h 2 v 1 h 3 v 1 h 3 v 1 h 2 v 1 h 3 v 1 h 2 v 1 h 2 v 1 h 2 v 1 h 3 v 1 h 2 v 1 h 2 v 1 h 2 v 1 h 3 v 1 h 2 v 1 h 2 v 1 h 2 v 1 h 3 v 1 h 2 v 1 h 2 v 1 h 2 v 1 h 3 v 1 h 2 v 1 h 2 v 1 h 2 v 1 h 3 v 1 h 2 v 1 h 2 v 1 h 2 v 1 h 3 v 1 h 2 v 1 h 2 v 1 h 2 v 1 h 3 v 1 h 2 v 1 h 2 v 1 h 2 v 1 h 2 v 1 h 3 v 1 h 3 v 1 h 3 v 1 h 4 v 1 h 3 v 1 h 3 v 1 h 3 v 1 h 3 v 1 h 4 v 1 h 3 v 1 h 3 v 1 h 3 v 1 h 3 v 1 h 2 v 7 h 1 v 11 h 1 v 12 h 1 v 11 h 1 v 11 h 1 v 12 h 1 v 11 h 1 v 12 h 1 v 9 h 1 v 1 h 1 v 1 h 1 v 1 h 2 v 1 h 1 v 1 h 1 v 1 h 2 v 1 h 1 v 1 h 2 v 1 h 1 v 1 h 1 v 1 h 2 v 1 h 1 v 1 h 1 v 1 h 2 v 1 h 1 v 1 h 1 v 1 h 2 v 1 h 1 v 1 h 1 v 1 h 2 v 1 h 1 v 1 h 1 v 1 h 2 v 1 h 1 v 1 h 1 v 1 h 2 v 1 h 1 v 1 h 1 v 1 h 2 v 1 h 1 v 1 h 1 v 1 h 2 v 1 h 1 v 1 h 2 v -1 h 1 v -1 h 1 v -2 h 1 v -1 h 1 v -2 h 1 v -1 h 1 v -1 h 1 v -2 h 1 v -1 h 1 v -1 h 1 v -2 h 1 v -1 h 1 v -1 h 1 v -2 h 1 v -1 h 1 v -2 h 1 v -1 h 1 v -1 h 1 v -2 h 1 v -1 h 1 v -1 h 1 v -2 h 1 v -1 h 2 v 1 h 3 v 1 h 3 v 1 h 2 v 1 h 3 v 1 h 3 v 1 h 3 v 1 h 3 v 1 h 2 v 1 h 3 v 1 h 3 v 1 h 3 v 1 h 3 v 1 h 2 v 1 h 3 v 1 h 6 v -1 h 2 v -1 h 2 v -1 h 2 v -1 h 2 v -1 h 2 v -1 h 2 v -1 h 2 v -1 h 2 v -1 h 2 v -1 h 2 v -1 h 2 v -1 h 2 v -1 h 1 v -2 h 1 v -2 h 1 v -2 h 1 v -2 h 1 v -2 h 1 v -3 h 1 v -2 h 1 v -2 h 1 v -2 h 1 v -2 h 1 v -3 h 1 v -2 h 1 v -2 h 1 v -2 h 1 v -2 h 1 v -3 h 1 v -2 h 1 v -2 h 1 v -2 h 1 v -2 h 1 v -3 h 1 v -2 h 1 v -2 h 1 v -2 h 1 v -2 h 1 v -3 h 1 v -2 h 1 v -2 h 1 v -2 h 1 v -2 h 1 v -3 h 1 v -2 h 1 v -2 h 1 v -2 h 1 v -3 h 1 v -2 h 1 v -2 h 1 v -2 h 1 v -1 h 13 v -1 h 15 v -1 h 14 v -1 h 15 v -1 h 14 v -1 h 15 v -1 h 14 v -1 h 15 v -1 h 14 v -1 h 15 v -1 h 14 v -1 h 14 v -1 h 15 v -1 h 14 v -1 h 15 v -1 h 14 v -1 h 15 v -1 h 14 v -1 h 15 v -1 h 14 v -1 h 15 v -1 h 14 v -1 h 9 v -1 h -1 v -3 h -1 v -2 h -1 v -3 h -1 v -2 h -1 v -3 h -1 v -3 h -1 v -2 h -1 v -3 h -1 v -2 h -1 v -3 h -1 v -3 h -1 v -2 h -1 v -3 h -1 v -2 h -1 v -3 h -1 v -3 h -1 v -2 h -1 v -3 h -1 v -2 h -1 v -3 h -1 v -3 h -1 v -2 h -1 v -3 h -1 v -2 h -1 v -3 h -1 v -2 h -1 v -3 h -1 v -3 h -1 v -2 h -1 v -3 h -1 v -2 h -1 v -3 h -1 v -3 h -1 v -2 h -1 v -3 h -1 v -2 h -1 v -3 h -1 v -3 h -1 v -1 h -2 v -1 h -1 v -1 h -1 v -1 h -1 v -1 h -1 v -1 h -1 v -1 h -1 v -1 h -1 v -1 h -1 v -1 h -1 v -1 h -1 v -1 h -2 v -1 h -1 v -1 h -1 v -1 h -1 v -1 h -1 v -1 h -1 v -1 h -1 v -1 h -1 v -1 h -1 v -1 h -1 v -1 h -1 v -1 h -1 v -1 h -2 v -1 h -1 v -1 h -1 v -1 h -1 v -1 h -1 v -1 h -1 v -1 h -1 v -1 h -1 v -1 h -1 v -1 h -1 v -1 h -1 v -1 h -1 v -1 h -2 v -1 h -1 v -1 h -1 v -1 h -1 v -1 h -1 v -1 h -1 v -1 h -1 v -1 h -1 v -1 h -1 v -1 h -1 v -1 h -1 v -1 h -1 v -1 h -2 v -1 h -1 v -1 h -1 v -1 h -1 v -1 h -1 v -1 h -1 v -1 h -1 v -1 h -1 v -1 h -1 v -1 h -1 v -1 h -1 v -1 h -1 v -1 h -2 v -1 h -1 v -1 h -1 v -1 h -1 v -1 h -1 v -1 h -1 v -1 h -1 v -1 h -1 v -1 h -1 v -1 h -1 v -1 h -1 v -1 h -2 v -1 h -1 v -1 h -1 v -1 h -1 v -1 h -1 v -1 h -1 v -1 h -1 v -1 h -1 v -1 h -1 v -1 h -1 v -1 h -1 v -1 h -1 v -1 h -2 v -1 h -1 v -1 h -1 v -1 h -1 v -1 h -1 v -1 h -1 v -1 h -1 v -1 h -1 v -4 h -1 v -8 h -1 v -8 h -1 v -8 h -1 v -8 h -1 v -8 h -1 v -8 h -1 v -8 h -1 v -8 h -1 v -8 h -1 v -8 h -1 v -8 h -1 v -8 h -1 v -8 h -1 v -8 h -1 v -5 h 12 v -1 h 14 v -1 h 13 v -1 h 14 v -1 h 13 v -1 h 14 v -1 h 13 v -1 h 14 v -1 h 13 v -1 h 14 v -1 h 13 v -1 h 14 v -1 h 14 v -1 h 13 v -1 h 14 v -1 h 3 v -1 h 2 v -1 h 1 v -1 h 1 v -1 h 1 v -1 h 2 v -1 h 1 v -1 h 1 v -1 h 2 v -1 h 1 v -1 h 1 v -1 h 1 v -1 h 2 v -1 h 1 v -1 h 1 v -1 h 2 v -1 h 1 v -1 h 1 v -1 h 1 v -1 h 2 v -1 h 1 v -1 h 1 v -1 h 2 v -1 h 1 v -1 h 1 v -1 h 1 v -1 h 2 v -1 h 1 v -1 h 1 v -1 h 2 v -1 h 1 v -1 h 1 v -1 h 1 v -1 h 2 v -1 h 1 v -1 h 1 v -1 h 2 v -1 h 1 v -1 h 1 v -1 h 1 v -1 h 2 v -1 h 1 v -1 h 1 v -1 h 2 v -1 h 1 v -1 h 1 v -1 h 1 v -1 h 2 v -1 h 1 v -1 h 1 v -1 h 2 v -1 h 1 v -1 h 1 v -1 h 1 v -1 h -2 v -1 h -3 v -1 h -2 v -1 h -3 v -1 h -3 v -1 h -2 v -1 h -3 v -1 h -3 v -1 h -2 v -1 h -3 v -1 h -2 v -1 h -3 v -1 h -3 v -1 h -2 v -1 h -3 v -1 h -2 v -1 h -3 v -1 h -3 v -1 h -2 v -1 h -3 v -1 h -3 v -1 h -2 v -1 h -3 v -1 h -2 v -1 h -3 v -1 h -3 v -1 h -2 v -1 h -3 v -1 h -2 v -1 h -3 v -1 h -3 v -1 h -2 v -1 h -3 v -1 h -3 v -1 h -2 v -1 h -3 v -1 h -2 v -1 h -3 v -1 h -3 v -1 h -2 v -1 h -3 v -1 h -2 v -1 h -3 v -1 h -3 v -1 h -2 v -1 h -3 v -1 h -3 v -1 h -2 v -1 h -3 v -1 h -2 v -1 h -3 v -1 h -3 v -1 h -2 v -1 h -3 v -1 h -2 v -1 h -3 v -1 h -3 v -1 h -2 v -1 h -3 v -1 h -2 v -1 h -3 v -1 h -3 v -1 h -2 v -1 h -3 v -1 h -3 v -1 h -2 v -1 h -3 v -1 h -2 v -1 h -3 v -1 h -3 v -1 h -2 v -1 h -3 v -1 h -2 v -1 h -3 v -1 h -3 v -1 h -2 v -1 h -3 v -1 h -3 v -1 h -2 v -1 h -3 v -1 h -2 v -1 h -3 v -1 h -3 v -1 h -2 v -1 h -3 v -1 h -2 v -1 h -3 v -1 h -3 v -1 h -2 v -1 h -3 v -1 h -3 v -1 h -2 v -1 h -3 v -1 h -2 v -1 h -3 v -1 h -3 v -1 h -2 v -1 h -3 v -1 h -2 v -1 h -3 v -1 h -2 v -1 h -2 v -1 h -3 v -1 h -2 v -1 h -2 v -1 h -3 v -1 h -2 v -1 h -2 v -1 h -3 v -1 h -2 v -1 h -2 v -1 h -3 v -1 h -2 v -1 h -2 v -1 h -3 v -1 h -2 v -1 h -2 v -1 h -3 v -1 h -2 v -1 h -2 v -1 h -3 v -1 h -2 v -1 h -2 v -1 h -3 v -1 h -2 v -1 h -2 v -1 h -3 v -1 h -2 v -1 h -2 v -1 h -3 v -1 h -2 v -1 h -2 v -1 h -3 v -1 h -2 v -1 h -2 v -1 h -3 v -1 h -2 v -1 h -2 v -1 h -3 v -1 h -2 v -1 h -2 v -1 h -3 v -1 h -2 v -1 h -2 v -1 h -3 v -1 h -2 v -1 h -2 v -1 h -3 v -1 h -2 v -1 h -2 v -1 h -3 v -1 h -2 v -1 h -2 v -1 h -3 v -1 h -2 v -1 h -2 v -1 h -3 v -1 h -2 v -1 h -2 v -1 h -3 v -1 h -2 v -1 h -2 v -1 h -3 v -1 h -2 v -1 h -3 v -1 h -2 v -1 h -2 v -4 h -1 v -6 h -1 v -6 h -1 v -6 h -1 v -6 h -1 v -7 h -1 v -6 h -1 v -6 h -1 v -6 h -1 v -6 h -1 v -7 h -1 v -6 h -1 v -6 h -1 v -6 h -1 v -6 h -1 v -6 h -1 v -7 h -1 v -6 h -1 v -6 h -1 v -6 h -1 v -6 h -1 v -7 h -1 v -6 h -1 v -6 h -1 v -6 h -1 v -6 h -1 v -6 h -1 v -7 h -1 v -6 h -1 v -6 h -1 v -6 h -1 v -6 h -1 v -6 h -1 v -7 h -1 v -6 h -1 v -6 h -1 v -6 h -1 v -6 h -1 v -3 h 1 v -1 h 1 v -2 h 1 v -1 h 1 v -2 h 1 v -1 h 1 v -1 h 1 v -2 h 1 v -1 h 1 v -1 h 1 v -2 h 1 v -1 h 1 v -1 h 1 v -2 h 1 v -1 h 1 v -2 h 1 v -1 h 1 v -1 h 1 v -2 h 1 v -1 h 1 v -1 h 1 v -2 h 1 v -1 h 1 v -2 h 1 v -1 h 1 v -1 h 1 v -2 h 1 v -1 h 1 v -1 h 1 v -2 h 1 v -1 h 1 v -2 h 1 v -1 h 1 v -1 h 1 v -2 h 1 v -1 h 1 v -1 h 1 v -2 h 1 v -1 h 1 v -2 h 1 v -1 h 1 v -1 h 1 v -2 h 1 v -1 h 1 v -1 h 1 v -2 h 1 v -1 h 1 v -2 h 1 v -1 h 1 v -1 h 1 v -2 h 1 v -1 h 1 v -1 h 1 v -2 h 1 v -1 h 1 v -2 h 1 v -1 h 1 v -1 h 1 v -2 h 1 v -1 h 1 v -1 h 1 v -2 h 1 v -1 h 1 v -2 h 1 v -1 h 1 v -1 h 1 v -2 h 1 v -1 h 1 v -1 h 1 v -2 h 1 v -1 h 1 v -2 h 1 v -1 h 1 v -1 h 1 v -2 h 1 v -1 h 1 v -1 h 1 v -2 h 1 v -1 h 1 v -2 h 1 v -1 h 1 v -1 h 1 v -2 h 1 v -1 h 1 v -4 h 1 v -5 h 1 v -5 h 1 v -5 h 1 v -4 h 1 v -5 h 1 v -5 h 1 v -5 h 1 v -5 h 1 v -5 h 1 v -5 h 1 v -5 h 1 v -5 h 1 v -5 h 1 v -5 h 1 v -5 h 1 v -5 h 1 v -4 h 1 v -5 h 1 v -5 h 1 v -5 h 1 v -5 h 1 v -5 h 1 v -5 h 1 v -5 h 1 v -5 h 1 v -5 h 1 v -5 h 1 v -5 h 1 v -5 h 1 v -4 h 1 v -5 h 1 v -5 h 1 v -5 h 1 v -5 h 1 v -5 h 1 v -5 h 1 v -5 h 1 v -5 h 1 v -5 h 1 v -5 h 1 v -5 h 1 v -5 h 1 v -4 h 1 v -5 h 1 v -3 h 1 v -2 h 1 v -1 h 1 v -2 h 1 v -1 h 1 v -2 h 1 v -1 h 1 v -1 h 1 v -2 h 1 v -1 h 1 v -2 h 1 v -1 h 1 v -2 h 1 v -1 h 1 v -1 h 1 v -2 h 1 v -1 h 1 v -2 h 1 v -1 h 1 v -2 h 1 v -1 h 1 v -1 h 1 v -2 h 1 v -1 h 1 v -2 h 1 v -1 h 1 v -2 h 1 v -1 h 1 v -1 h 1 v -2 h 1 v -1 h 1 v -2 h 1 v -1 h 1 v -1 h 1 v -2 h 1 v -1 h 1 v -2 h 1 v -1 h 1 v -2 h 1 v -1 h 1 v -1 h 1 v -2 h 1 v -1 h 1 v -2 h 1 v -1 h 1 v -2 h 1 v -1 h 1 v -1 h 1 v -2 h 1 v -1 h 1 v -2 h 1 v -1 h 1 v -2 h 1 v -1 h 1 v -1 h 1 v -2 h 1 v -1 h 1 v -2 h 1 v -1 h 1 v -2 h 1 v -1 h 1 v -1 h 1 v -2 h 1 v -1 h 1 v -2 h 1 v -1" /></g></g></g><path
         id="path84"
         style="fill:#ed1f27;fill-opacity:1;fill-rule:nonzero;stroke:none"
         d="m 1319.79,2993.17 c -33.6,6.07 -145.73,76.06 -235.91,6.37 115.03,34.92 214.82,-66.27 285.03,-62.28 60.44,3.55 80.11,31.51 100.07,53.85 -37.06,-9.46 -87.5,-19.68 -149.19,2.06 M 323.707,2612.96 c 30.27,20.84 71.898,28.98 105.856,45.71 -54.508,-2.82 -101.043,-14.65 -140.911,-34.04 11.094,-4.43 20.934,-10.05 35.055,-11.67 m 594.027,-297.25 c 25.153,-14.64 44.524,-32.09 73.313,-41.86 51.633,-17.16 90.173,-5.91 134.703,-4.29 59.04,1.92 113.18,-11.99 159.48,-33.89 -21.96,37 -55.7,71.02 -107.25,81.37 -90.41,18.06 -171.48,-18.93 -260.246,-1.33 m -388.441,360.86 c 26.93,22.04 65.086,31.06 105.555,37.58 2.441,0.29 0.297,2.65 -1.328,3.4 -73.977,-1.93 -139.219,-13.46 -183.973,-48.38 3.988,-9.02 10.199,-16.58 18.043,-25.75 4.582,-5.46 13.836,-20.56 21.379,-22.62 8.957,-2.23 25.886,5.46 39.058,6.21 59.114,3.99 113.633,-19.24 158.821,-26.33 -28.176,41.42 -83.215,71.75 -157.555,75.89 m 233.012,269.12 c 43.726,65.84 189.004,123.69 322.535,106.68 -170.445,59.62 -280.738,27.36 -342.141,-18.06 247.301,287.77 439.861,77.82 448.811,46.9 -38.09,108 -233.987,188.34 -408.342,90.11 -108.301,-64.66 -148.617,-157.13 -193.59,-132.42 -15.015,7.83 -0.445,47.34 4.652,58.14 -69.226,-24.7 -115.839,-100.01 -121.906,-191 -75.308,-20.41 -142.773,-50.16 -200.621,-90.26 1.418,-15.96 8.957,-26.18 8.809,-43.49 -85.895,-17.16 -150.461,-58.88 -223.3401,-90.84 -10.4258,-22.65 -0.2852,-55.04 -4.0625,-74.28 -2.586,-13.16 -18.3438,-25.15 -24.5586,-36.83 -23.00783,-43.49 -9.8438,-91.74 2.4414,-132.42 3.6211,-5.46 13.168,-5.77 18.9375,-9.17 -16.4961,-47.34 -13.8359,-90.24 1.1797,-124.28 3.3359,-7.24 11.25,-18.64 11.6875,-23.68 0.7383,-8.87 -7.543,-17.89 -8.0547,-27.65 -0.4492,-14.06 5.9141,-19.1 8.0547,-31.82 -16.9375,-18.04 -35.875,-32.39 -42.0899,-59.02 -21.230438,-90.39 66.3516,-146.33 130.121,-163.94 2.594,6.36 -8.953,18.79 -1.703,29.88 11.836,40.4 78.938,-22.77 117.102,-13.6 -32.102,-44.54 -17.379,-134.79 45.351,-214.09 -3.769,33.29 -12.43,77.23 20.117,79.3 2.59,-26.63 30.934,-198.25 228.66,-285.69 -29.589,25.75 -44.906,77.38 -25.964,97.51 18.789,-46.47 55.488,-99.43 123.683,-132.58 -20.336,29.61 -45.187,161.43 -27.445,169.86 53.644,-114.96 212.379,-304.18 414.191,-173.25 6.37,4.14 33.21,23.67 48.02,45.71 11.97,17.76 27.87,45.56 48,89.96 -227.988,-104.02 -287.981,4.58 -288.129,182.72 0,0 71.535,-173.41 226.949,-169.25 -54.37,23.66 -108.152,66.87 -129.68,124.87 56.82,-46.6 165.12,22.34 190.27,83.45 -1.48,4.88 -102.97,-48.99 -187.98,6.21 187.98,-6.21 324.02,160.5 348.13,214.07 -133.89,-131.52 -386.005,-84.63 -488.908,-5.62 118.071,-7.98 268.318,38.76 347.698,120.73 -146.48,-37.73 -308.92,21.74 -387.487,99.57 64.66,-4.45 106.594,17.3 152.676,41.72 244.491,129.6 252.851,83 311.811,56.07 3.49,82.12 -45.94,123.53 -128.48,134.48 30.61,12.58 41.92,33.15 55.1,58.3 -43.73,-19.67 -99.8,-25.45 -159.93,-26.33 5.61,10.21 17.52,12.72 26.78,18.49 8.8,5.33 17.01,12.42 26.99,18.36 15.32,9.17 48.89,20.11 49.19,42.01 0.39,18.94 -21,24.25 -42.52,22.19 -30.64,-3.1 -61.04,-16.88 -86.047,-35.37 -25.3,-18.63 -41.863,-43.19 -56.945,-66.41 -2.746,48.22 6.789,91.42 34.024,117.32 45.788,43.79 229.088,31.36 285.458,-2.81 -17.01,27.66 -148.45,75.31 -185.15,89.94 100.16,85.22 279.7,10.95 345.32,-19.97 -190.19,270.31 -520.425,205.36 -637.675,149.58 M 120.352,2565.76 c -8.141,-28.71 -15.457,-58.44 -25.5903,-84.78 -21.832,23.38 -21.832,137.59 25.5903,84.78 M 98.0859,2422.84 c 50.4491,-60.52 149.0661,-10.07 213.6441,2.21 -9.691,-23.96 -25.753,-40.84 -37.433,-62.59 -9.832,0.9 -9.984,10.67 -17.156,14.05 -10.289,-5.6 -14.211,-18.63 -23.911,-25 -7.91,4.01 -10.421,13.18 -16.785,18.95 -9.687,-23.23 -16.715,-49.86 -23.523,-76.64 -13.906,20.27 -25.445,42.46 -25.008,75.75 -11.312,-4.43 -18.195,-14.2 -25.59,-23.37 -8.508,7.39 -10.722,20.27 -14.355,32.25 -11.387,-11.11 -15.156,-30.62 -20.489,-48.68 -18.4917,17.16 -20.562,62.58 -9.3941,93.07 m 4.7301,-178.87 c 9.032,-9.33 11.914,-24.43 17.239,-37.29 8.215,2.06 12.722,7.84 16.949,14.06 12.937,-3.4 15.152,-16.58 26.551,-21.17 4.511,17.32 13.609,29.89 20.117,45.27 9.844,-13.6 17.164,-29.43 28.484,-41.26 4.735,5.91 7.469,13.76 12.43,19.07 17.598,-11.98 29.879,-28.84 46.238,-41.87 -43.511,-17.75 -126.355,-7.84 -174.2185,8.88 -4.7344,17.46 -0.1485,39.8 6.2105,54.31 m 948.654,-632.64 c -227.548,-153.88 -338.423,38.17 -382.365,318.53 0,0 120.875,-384.52 382.365,-318.53 m -279.032,484.83 c 79.226,-90.09 235.242,-105.78 235.242,-105.78 -248.25,-27.82 -235.242,105.78 -235.242,105.78 m 80.421,-400.21 c 0,0 -114.507,50.46 -116.222,178.73 -5.699,165.26 -109.926,193.67 -92.25,189.38 49.269,-12.14 96.836,-57.26 127.316,-138.03 30.406,-94.11 -6.359,-162.46 81.156,-230.08 m -48.757,979.59 c -6.813,-27.08 -3.622,-52.09 -10.497,-75.61 -20.121,-67.46 -75.093,-84.18 -126.359,-120.58 40.469,-9.02 79.457,8.73 115.922,20.42 54.676,17.16 108.148,37.28 181.383,33.42 46.469,-2.2 82.269,-15.67 116.289,-32.39 -92.383,0.75 -161.922,-15.53 -230.723,-47.49 -73.762,-34.61 -155.859,-74.41 -259.656,-47.79 -8.356,-44.96 55.633,-75.3 73.758,-106.66 10.801,-18.79 14.121,-94.7 0,-160.09 -10.43,-47.65 -132.34,-26.63 -199.371,-18.34 -9.383,-7.84 -7.391,-24.42 -13.61,-35.82 -1.175,-18.19 2.594,-41.56 17.91,-70.27 58.582,-109.78 98.75,-172.06 71.008,-200.76 0,0 0,0 -0.152,0 3.922,7.25 14.586,47.49 -105.258,147.05 -15.469,-50.29 -19.902,-131.22 42.246,-236.71 -91.519,104.3 -110.742,201.66 -63.777,259.06 -17.742,20.26 -34.539,45.71 -37.879,71.75 -74.707,-10.35 -199.793,39.21 -259.645,69.54 84.993,-3.84 173.176,-11.4 221.336,26.48 -20.05,-6.94 -38.175,-15.98 -66.949,-13 85.293,33.57 140.547,125.88 127.235,254.6 34.992,-59.18 15.171,-170.87 -26.329,-213.64 41.5,17.76 63.762,67.77 70.278,130.34 5.461,53.27 -1.848,127.09 -25.907,150.34 -7.906,7.69 -22.257,10.94 -34.832,11.82 -39.722,1.78 -79.593,-17.16 -119.55,-27.08 -40.899,-9.9 -82.922,-18.93 -123.02,-1.78 -2.734,43.07 29.227,117.92 74.645,121.78 28.191,2.51 38.84,-15.98 46.382,-37.28 27.743,11.23 40.321,39.64 52.297,68.5 -55.769,23.97 -146.691,15.68 -179.386,60.5 61.476,48.82 142.558,75.03 236.054,87.15 -3.023,13.31 -20.933,26.63 -28.472,41.14 16.195,19.07 43.277,27.36 68.277,36.1 25.586,8.87 54.375,14.93 81.969,20.41 -8.805,-19.09 -22.43,-32.71 -33.293,-49.42 54.804,4.73 122.054,28.71 190.254,19.82 49.867,-6.5 84.113,-32.69 116.519,-55.62 42.383,47.05 108.301,76.33 200.688,60.65 -74.645,-14.2 -139.367,-60.5 -159.785,-140.54" /><g
         id="g86"><g
           clip-path="url(#clipPath92)"
           id="g88"><g
             clip-path="url(#clipPath98)"
             id="g94"><path
               id="path108"
               style="fill:url(#linearGradient106);fill-opacity:1;fill-rule:nonzero;stroke:none"
               d="m 3517,1659 v 3 h -1 v 3 h -1 v 3 h -1 v 3 h -1 v 3 h -1 v 4 h -1 v 3 h -1 v 3 h -1 v 3 h -1 v 3 h -1 v 4 h -1 v 3 h -1 v 3 h -1 v 3 h -1 v 3 h -1 v 3 h -1 v 4 h -1 v 3 h -1 v 3 h -1 v 3 h -1 v 3 h -1 v 3 h -1 v 4 h -1 v 3 h -1 v 3 h -1 v 3 h -1 v 3 h -1 v 3 h -1 v 4 h -1 v 3 h -1 v 3 h -1 v 3 h -1 v 3 h -1 v 3 h -1 v 4 h -1 v 3 h -1 v 3 h -1 v 3 h -1 v 3 h -1 v 4 h -1 v 3 h -1 v 3 h -1 v 3 h -1 v 3 h -1 v 3 h -1 v 4 h -1 v 3 h -1 v 3 h -1 v 3 h -1 v 3 h -1 v 3 h -1 v 4 h -1 v 3 h -1 v 3 h -1 v 3 h -1 v 3 h -1 v 3 h -1 v 4 h -1 v 3 h -1 v 3 h -1 v 3 h -1 v 3 h -1 v 4 h -1 v 3 h -1 v 3 h -1 v 3 h -1 v 3 h -1 v 3 h -1 v 4 h -1 v 3 h -1 v 3 h -1 v 3 h -1 v 3 h -1 v 3 h -1 v 4 h -1 v 3 h -1 v 3 h -1 v 3 h -1 v 3 h -1 v 3 h -1 v 4 h -1 v 3 h -1 v 3 h -1 v 3 h -1 v 3 h -1 v 3 h -1 v 4 h -1 v 3 h -1 v 3 h -1 v 3 h -1 v 3 h -1 v 4 h -1 v 3 h -1 v 3 h -1 v 3 h -3 v 1 h -6 v 1 h -6 v 1 h -6 v 1 h -6 v 1 h -6 v 1 h -6 v 1 h -7 v 1 h -6 v 1 h -6 v 1 h -6 v 1 h -6 v 1 h -6 v 1 h -6 v 1 h -6 v 1 h -6 v 1 h -7 v -3 h -1 v -5 h -1 v -5 h -1 v -5 h -1 v -6 h -1 v -5 h -1 v -5 h -1 v -6 h -1 v -5 h -1 v -5 h -1 v -5 h -1 v -6 h -1 v -5 h -1 v -5 h -1 v -6 h -1 v -5 h -1 v -5 h -1 v -6 h -1 v -5 h -1 v -5 h -1 v -5 h -1 v -6 h -1 v -5 h -1 v -5 h -1 v -6 h -1 v -5 h -1 v -5 h -1 v -5 h -1 v -5 h -1 v -2 h -1 v -2 h -1 v -1 h -1 v -2 h -1 v -2 h -1 v -2 h -1 v -1 h -1 v -2 h -1 v -2 h -1 v -2 h -1 v -2 h -1 v -1 h -1 v -2 h -1 v -2 h -1 v -2 h -1 v -2 h -1 v -1 h -1 v -2 h -1 v -2 h -1 v -2 h -1 v -1 h -1 v -2 h -1 v -2 h -1 v -2 h -1 v -2 h -1 v -1 h -1 v -2 h -1 v -2 h -1 v -2 h -1 v -2 h -1 v -1 h -1 v -2 h -1 v -2 h -1 v -2 h -1 v -1 h -1 v -2 h -1 v -2 h -1 v -2 h -1 v -2 h -1 v -1 h -1 v -2 h -1 v -2 h -1 v -2 h -1 v -2 h -1 v -1 h -1 v -2 h -1 v -2 h -1 v -2 h -1 v -1 h -1 v -2 h -1 v -1 h -1 v -1 h -2 v -1 h -2 v -1 h -1 v -1 h -2 v -1 h -2 v -1 h -1 v -1 h -2 v -1 h -1 v -1 h -2 v -1 h -2 v -1 h -1 v -1 h -2 v -1 h -2 v -1 h -1 v -1 h -2 v -1 h -1 v -1 h -2 v -1 h -2 v -1 h -1 v -1 h -2 v -1 h -2 v -1 h -1 v -1 h -2 v -1 h -2 v -1 h -1 v -1 h -2 v -1 h -1 v -1 h -2 v -1 h -2 v -1 h -1 v -1 h -2 v -1 h -2 v -1 h -1 v -1 h -2 v -1 h -1 v -1 h -2 v -1 h -2 v -1 h -1 v -1 h -2 v -1 h -2 v -1 h -1 v -1 h -2 v -1 h -2 v -1 h -1 v -1 h -2 v -1 h -1 v -1 h -2 v -1 h -2 v -1 h -1 v -1 h -2 v -1 h -2 v -1 h -1 v -1 h -2 v -1 h -1 v -1 h -2 v -1 h -1 v 3 h 1 v 2 h 1 v 2 h 1 v 1 h 1 v 2 h 1 v 2 h 1 v 2 h 1 v 2 h 1 v 1 h 1 v 2 h 1 v 2 h 1 v 2 h 1 v 2 h 1 v 2 h 1 v 1 h 1 v 2 h 1 v 2 h 1 v 2 h 1 v 2 h 1 v 2 h 1 v 1 h 1 v 2 h 1 v 2 h 1 v 2 h 1 v 2 h 1 v 2 h 1 v 1 h 1 v 2 h 1 v 2 h 1 v 2 h 1 v 2 h 1 v 2 h 1 v 1 h 1 v 2 h 1 v 2 h 1 v 2 h 1 v 2 h 1 v 2 h 1 v 1 h 1 v 2 h 1 v 3 h 1 v 3 h 1 v 4 h 1 v 4 h 1 v 3 h 1 v 4 h 1 v 4 h 1 v 3 h 1 v 4 h 1 v 4 h 1 v 3 h 1 v 4 h 1 v 4 h 1 v 3 h 1 v 4 h 1 v 4 h 1 v 3 h 1 v 4 h 1 v 4 h 1 v 3 h 1 v 4 h 1 v 4 h 1 v 3 h 1 v 4 h 1 v 4 h 1 v 3 h 1 v 4 h 1 v 4 h 1 v 3 h 1 v 4 h 1 v 4 h 1 v 4 h 1 v 3 h 1 v 4 h 1 v 4 h 1 v 3 h 1 v 4 h 1 v 4 h 1 v 3 h 1 v 4 h 1 v 4 h 1 v 3 h 1 v 4 h 1 v 4 h 1 v 3 h 1 v 4 h 1 v 4 h 1 v 3 h 1 v 4 h 1 v 4 h 1 v 3 h 1 v 4 h 1 v 4 h 1 v 3 h 1 v 4 h 1 v 4 h 1 v 3 h 1 v 10 h 1 v 18 h 1 v 1 h 1 v 1 h 1 v 1 h 1 v 1 h 1 v 1 h 1 v 1 h 1 v 1 h 1 v 1 h 1 v 1 h 1 v 1 h 1 v 1 h 1 v 1 h 1 v 1 h 1 v 1 h 1 v 1 h 1 v 1 h 1 v 1 h 1 v 1 h 1 v 1 h 2 v 1 h 1 v 1 h 1 v 1 h 1 v 1 h 1 v 1 h 1 v 1 h 1 v 1 h 1 v 1 h 1 v 1 h 1 v 1 h 1 v 1 h 1 v 1 h 1 v 1 h 1 v 1 h 1 v 1 h 1 v 1 h 1 v 1 h 1 v 1 h 1 v 1 h 1 v 1 h 1 v 1 h 1 v 1 h 1 v 1 h 1 v 1 h 1 v 1 h 1 v 1 h 1 v 1 h 1 v 1 h 1 v 1 h 1 v 1 h 1 v 1 h 1 v 1 h 1 v 1 h 2 v 1 h 1 v 1 h 1 v 1 h 1 v 1 h 1 v 1 h 1 v 1 h 1 v 1 h 1 v 1 h 1 v 1 h 1 v 1 h 1 v 1 h 1 v 1 h 1 v 1 h 1 v 1 h 1 v 1 h 1 v 1 h 1 v 1 h 1 v 1 h 1 v 1 h 1 v 1 h 1 v 1 h 1 v 1 h 1 v 1 h 1 v 1 h 1 v 1 h 1 v 1 h 1 v 1 h 1 v 1 h 1 v 1 h 1 v 1 h 1 v 1 h 1 v 1 h 1 v 1 h 2 v 4 h -1 v 5 h -1 v 6 h -1 v 5 h -1 v 6 h -1 v 6 h -1 v 6 h -1 v 6 h -1 v 6 h -1 v 6 h -1 v 6 h -1 v 7 h -1 v 6 h -1 v 6 h -1 v 6 h -1 v 6 h -1 v 6 h -1 v 7 h -1 v 6 h -1 v 6 h -1 v 6 h -1 v 6 h -1 v 7 h -1 v 6 h -1 v 6 h -1 v 6 h -1 v 6 h -1 v 6 h -1 v 7 h -1 v 6 h -1 v 6 h -1 v 6 h -1 v 6 h -1 v 7 h -1 v 6 h -1 v 6 h -1 v 6 h -1 v 6 h -1 v 6 h -1 v 7 h -1 v 6 h -1 v 6 h -1 v 6 h -1 v 4 h -2 v 1 h -3 v 1 h -2 v 1 h -2 v 1 h -3 v 1 h -2 v 1 h -2 v 1 h -3 v 1 h -2 v 1 h -2 v 1 h -3 v 1 h -2 v 1 h -2 v 1 h -3 v 1 h -2 v 1 h -2 v 1 h -3 v 1 h -2 v 1 h -2 v 1 h -3 v 1 h -2 v 1 h -2 v 1 h -3 v 1 h -2 v 1 h -2 v 1 h -3 v 1 h -2 v 1 h -2 v 1 h -3 v 1 h -2 v 1 h -2 v 1 h -3 v 1 h -2 v 1 h -2 v 1 h -3 v 1 h -2 v 1 h -2 v 1 h -3 v 1 h -2 v 1 h -2 v 1 h -3 v 1 h -2 v 1 h -2 v 1 h -3 v 1 h -2 v 1 h -2 v 1 h -3 v 1 h -2 v 1 h -2 v 1 h -3 v 1 h -2 v 1 h -2 v 1 h -3 v 1 h -2 v 1 h -2 v 1 h -3 v 1 h -2 v 1 h -2 v 1 h -3 v 1 h -2 v 1 h -2 v 1 h -3 v 1 h -2 v 1 h -2 v 1 h -3 v 1 h -2 v 1 h -2 v 1 h -3 v 1 h -2 v 1 h -3 v 1 h -3 v 1 h -2 v 1 h -3 v 1 h -2 v 1 h -3 v 1 h -3 v 1 h -2 v 1 h -3 v 1 h -2 v 1 h -3 v 1 h -3 v 1 h -2 v 1 h -3 v 1 h -3 v 1 h -2 v 1 h -3 v 1 h -2 v 1 h -3 v 1 h -3 v 1 h -2 v 1 h -3 v 1 h -2 v 1 h -3 v 1 h -3 v 1 h -2 v 1 h -3 v 1 h -2 v 1 h -3 v 1 h -3 v 1 h -2 v 1 h -3 v 1 h -3 v 1 h -2 v 1 h -3 v 1 h -2 v 1 h -3 v 1 h -3 v 1 h -2 v 1 h -3 v 1 h -2 v 1 h -3 v 1 h -3 v 1 h -2 v 1 h -3 v 1 h -3 v 1 h -2 v 1 h -3 v 1 h -2 v 1 h -3 v 1 h -3 v 1 h -2 v 1 h -3 v 1 h -2 v 1 h -3 v 1 h -3 v 1 h -2 v 1 h -3 v 1 h -2 v 1 h -3 v 1 h -3 v 1 h -2 v 1 h -3 v 1 h -3 v 1 h -2 v 1 h -3 v 1 h -2 v 1 h -3 v 1 h -3 v 1 h -2 v 1 h -3 v 1 h -2 v 1 h -3 v 1 h -3 v 1 h -2 v 1 h -3 v 1 h -2 v 1 h -3 v 1 h -3 v 1 h -2 v 1 h -3 v 1 h -3 v 1 h -2 v 1 h -3 v 1 h -2 v 1 h -3 v 1 h -3 v 1 h -2 v 1 h -3 v 1 h -2 v 1 h -3 v 1 h -3 v 1 h -2 v 1 h -3 v 1 h -3 v 1 h -2 v 1 h -3 v 1 h -2 v 1 h 1 v 1 h 1 v 1 h 1 v 1 h 2 v 1 h 1 v 1 h 1 v 1 h 2 v 1 h 1 v 1 h 1 v 1 h 1 v 1 h 2 v 1 h 1 v 1 h 1 v 1 h 2 v 1 h 1 v 1 h 1 v 1 h 1 v 1 h 2 v 1 h 1 v 1 h 1 v 1 h 2 v 1 h 1 v 1 h 1 v 1 h 1 v 1 h 2 v 1 h 1 v 1 h 1 v 1 h 2 v 1 h 1 v 1 h 1 v 1 h 1 v 1 h 2 v 1 h 1 v 1 h 1 v 1 h 2 v 1 h 1 v 1 h 1 v 1 h 1 v 1 h 2 v 1 h 1 v 1 h 1 v 1 h 2 v 1 h 1 v 1 h 1 v 1 h 1 v 1 h 2 v 1 h 1 v 1 h 1 v 1 h 2 v 1 h 1 v 1 h 1 v 1 h 1 v 1 h 2 v 1 h 3 v 1 h 14 v 1 h 13 v 1 h 14 v 1 h 14 v 1 h 13 v 1 h 14 v 1 h 13 v 1 h 14 v 1 h 13 v 1 h 14 v 1 h 13 v 1 h 14 v 1 h 13 v 1 h 14 v 1 h 12 v 4 h -1 v 8 h -1 v 8 h -1 v 8 h -1 v 8 h -1 v 8 h -1 v 8 h -1 v 8 h -1 v 8 h -1 v 8 h -1 v 8 h -1 v 8 h -1 v 8 h -1 v 8 h -1 v 8 h -1 v 5 h -1 v 1 h -1 v 1 h -1 v 1 h -1 v 1 h -1 v 1 h -2 v 1 h -1 v 1 h -1 v 1 h -1 v 1 h -1 v 1 h -1 v 1 h -1 v 1 h -1 v 1 h -1 v 1 h -1 v 1 h -1 v 1 h -1 v 1 h -2 v 1 h -1 v 1 h -1 v 1 h -1 v 1 h -1 v 1 h -1 v 1 h -1 v 1 h -1 v 1 h -1 v 1 h -1 v 1 h -1 v 1 h -2 v 1 h -1 v 1 h -1 v 1 h -1 v 1 h -1 v 1 h -1 v 1 h -1 v 1 h -1 v 1 h -1 v 1 h -1 v 1 h -1 v 1 h -1 v 1 h -2 v 1 h -1 v 1 h -1 v 1 h -1 v 1 h -1 v 1 h -1 v 1 h -1 v 1 h -1 v 1 h -1 v 1 h -1 v 1 h -1 v 1 h -1 v 1 h -2 v 1 h -1 v 1 h -1 v 1 h -1 v 1 h -1 v 1 h -1 v 1 h -1 v 1 h -1 v 1 h -1 v 1 h -1 v 1 h -1 v 1 h -1 v 1 h -2 v 1 h -1 v 1 h -1 v 1 h -1 v 1 h -1 v 1 h -1 v 1 h -1 v 1 h -1 v 1 h -1 v 1 h -1 v 1 h -1 v 1 h -1 v 1 h -2 v 1 h -1 v 1 h -1 v 1 h -1 v 1 h -1 v 1 h -1 v 1 h -1 v 1 h -1 v 1 h -1 v 1 h -1 v 1 h -1 v 1 h -2 v 1 h -1 v 1 h -1 v 1 h -1 v 3 h -1 v 2 h -1 v 3 h -1 v 2 h -1 v 3 h -1 v 3 h -1 v 2 h -1 v 3 h -1 v 2 h -1 v 3 h -1 v 3 h -1 v 2 h -1 v 3 h -1 v 2 h -1 v 3 h -1 v 3 h -1 v 2 h -1 v 3 h -1 v 2 h -1 v 3 h -1 v 3 h -1 v 2 h -1 v 3 h -1 v 2 h -1 v 3 h -1 v 3 h -1 v 2 h -1 v 3 h -1 v 2 h -1 v 3 h -1 v 3 h -1 v 2 h -1 v 3 h -1 v 3 h -1 v 2 h -1 v 3 h -1 v 2 h -1 v 3 h -1 v 1 h 9 v 1 h 14 v 1 h 15 v 1 h 14 v 1 h 15 v 1 h 14 v 1 h 15 v 1 h 14 v 1 h 15 v 1 h 14 v 1 h 15 v 1 h 14 v 1 h 14 v 1 h 15 v 1 h 14 v 1 h 15 v 1 h 14 v 1 h 15 v 1 h 14 v 1 h 15 v 1 h 14 v 1 h 15 v 1 h 13 v 1 h 1 v 2 h 1 v 2 h 1 v 3 h 1 v 2 h 1 v 2 h 1 v 2 h 1 v 2 h 1 v 3 h 1 v 2 h 1 v 2 h 1 v 2 h 1 v 2 h 1 v 3 h 1 v 2 h 1 v 2 h 1 v 2 h 1 v 2 h 1 v 3 h 1 v 2 h 1 v 2 h 1 v 2 h 1 v 2 h 1 v 3 h 1 v 2 h 1 v 2 h 1 v 2 h 1 v 2 h 1 v 3 h 1 v 2 h 1 v 2 h 1 v 2 h 1 v 2 h 1 v 3 h 1 v 2 h 1 v 2 h 1 v 2 h 1 v 2 h 1 v 2 h 1 v 1 h 2 v 1 h 2 v 1 h 2 v 1 h 2 v 1 h 2 v 1 h 2 v 1 h 2 v 1 h 2 v 1 h 2 v 1 h 2 v 1 h 2 v 1 h 2 v 1 h 6 v -1 h 3 v -1 h 2 v -1 h 3 v -1 h 3 v -1 h 3 v -1 h 3 v -1 h 2 v -1 h 3 v -1 h 3 v -1 h 3 v -1 h 3 v -1 h 2 v -1 h 3 v -1 h 3 v -1 h 2 v 1 h 1 v 2 h 1 v 1 h 1 v 1 h 1 v 2 h 1 v 1 h 1 v 2 h 1 v 1 h 1 v 1 h 1 v 2 h 1 v 1 h 1 v 1 h 1 v 2 h 1 v 1 h 1 v 1 h 1 v 2 h 1 v 1 h 1 v 2 h 1 v 1 h 1 v 1 h 1 v 2 h 1 v 1 h 1 v 1 h 2 v -1 h 1 v -1 h 2 v -1 h 1 v -1 h 1 v -1 h 2 v -1 h 1 v -1 h 1 v -1 h 2 v -1 h 1 v -1 h 1 v -1 h 2 v -1 h 1 v -1 h 1 v -1 h 2 v -1 h 1 v -1 h 1 v -1 h 2 v -1 h 1 v -1 h 1 v -1 h 2 v -1 h 1 v -1 h 1 v -1 h 2 v -1 h 1 v -1 h 1 v -1 h 2 v -1 h 1 v -1 h 1 v -1 h 2 v -1 h 1 v -1 h 1 v -1 h 2 v -1 h 1 v -1 h 1 v -10 h 1 v -11 h 1 v -12 h 1 v -11 h 1 v -12 h 1 v -12 h 1 v -11 h 1 v -12 h 1 v -5 h 1 v -1 h 4 v -1 h 3 v -1 h 3 v -1 h 3 v -1 h 3 v -1 h 4 v -1 h 3 v -1 h 3 v -1 h 3 v -1 h 3 v -1 h 3 v -1 h 4 v -1 h 2 v -1 h 3 v -1 h 2 v -1 h 2 v -1 h 2 v -1 h 3 v -1 h 2 v -1 h 2 v -1 h 2 v -1 h 3 v -1 h 2 v -1 h 2 v -1 h 2 v -1 h 3 v -1 h 2 v -1 h 2 v -1 h 2 v -1 h 3 v -1 h 2 v -1 h 2 v -1 h 2 v -1 h 3 v -1 h 2 v -1 h 2 v -1 h 2 v -1 h 3 v -1 h 2 v -1 h 2 v -1 h 2 v -1 h 3 v -1 h 2 v -1 h 2 v -1 h 2 v -1 h 3 v -1 h 3 v -1 h 2 v -1 h 3 v -1 h 2 v -1 h 3 v -1 h 2 v -1 h 3 v -1 h 2 v -1 h 3 v -1 h 3 v -1 h 2 v -1 h 3 v -1 h 2 v -1 h 3 v -1 h 2 v -1 h 3 v -1 h 3 v -1 h 2 v -1 h 3 v -1 h 2 v -1 h 3 v -1 h 2 v -1 h 3 v -1 h 3 v -1 h 2 v -1 h 3 v -1 h 2 v -1 h 3 v -1 h 2 v -1 h 3 v -1 h 2 v -1 h 3 v -1 h 3 v -1 h 1 v -8 h 1 v -19 h 1 v -20 h 1 v -5 h 7 v -1 h 7 v -1 h 8 v -1 h 7 v -1 h 4 v -1 h 2 v -1 h 2 v -1 h 3 v -1 h 2 v -1 h 2 v -1 h 3 v -1 h 2 v -1 h 3 v -1 h 2 v -1 h 2 v -1 h 3 v -1 h 2 v -1 h 2 v -1 h 3 v -1 h 2 v -1 h 3 v -1 h 2 v -1 h 2 v -1 h 3 v -1 h 2 v -1 h 2 v -1 h 3 v -1 h 2 v -1 h 2 v -1 h 3 v -1 h 2 v -1 h 3 v -1 h 2 v -1 h 2 v -1 h 3 v -1 h 2 v -1 h 2 v -1 h 3 v -1 h 2 v -1 h 2 v -1 h 3 v -1 h 2 v -1 h 2 v -1 h 2 v -1 h 2 v -1 h 2 v -1 h 2 v -1 h 3 v -1 h 2 v -1 h 2 v -1 h 2 v -1 h 2 v -1 h 2 v -1 h 2 v -1 h 2 v -1 h 2 v -1 h 2 v -1 h 2 v -1 h 2 v -1 h 2 v -1 h 2 v -1 h 2 v -1 h 2 v -1 h 2 v -1 h 3 v -1 h 2 v -1 h 2 v -1 h 2 v -1 h 2 v -1 h 2 v -1 h 2 v -1 h 2 v -1 h 2 v -1 h 2 v -1 h 2 v -1 h 2 v -1 h 2 v -1 h 2 v -1 h 2 v -1 h 2 v -1 h 2 v -1 h 2 v -1 h 3 v -1 h 2 v -1 h 2 v -1 h 2 v -1 h 2 v -1 h 2 v -1 h 1 v -5 h 1 v -6 h 1 v -7 h 1 v -6 h 1 v -6 h 1 v -6 h 1 v -6 h 1 v -6 h 1 v -6 h 1 v -4 h 1 v -2 h 1 v -3 h 1 v -2 h 1 v -2 h 1 v -2 h 1 v -3 h 1 v -2 h 1 v -2 h 1 v -3 h 1 v -2 h 1 v -2 h 1 v -3 h 1 v -2 h 1 v -2 h 1 v -2 h 1 v -3 h 1 v -2 h 1 v -2 h 1 v -3 h 1 v -2 h 1 v -2 h 1 v -2 h 1 v -3 h 1 v -2 h 1 v -2 h 1 v -3 h 1 v -2 h 1 v -2 h 1 v -2 h 1 v -3 h 1 v -2 h 1 v -2 h 1 v -3 h 1 v -2 h 1 v -2 h 1 v -2 h 1 v -3 h 1 v -2 h 1 v -2 h -1 v -2 h -1 v -2 h -1 v -2 h -1 v -2 h -1 v -3 h -1 v -2 h -1 v -2 h -1 v -2 h -1 v -2 h -1 v -2 h -1 v -2 h -1 v -3 h -1 v -2 h -1 v -2 h -1 v -2 h -1 v -2 h -1 v -2 h -1 v -2 h -1 v -3 h -1 v -2 h -1 v -2 h -1 v -2 h -1 v -2 h -1 v -2 h -1 v -2 h -1 v -3 h -1 v -2 h -1 v -2 h -1 v -2 h -1 v -2 h -1 v -2 h -1 v -2 h -1 v -4 h -1 v -33 h -1 v -33 h -1 v -10 h -1 v -6 h -1 v -5 h -1 v -6 h -1 v -6 h -1 v -5 h -1 v -6 h -1 v -6 h -1 v -5 h -1 v -6 h -1 v -6 h -1 v -15 h 1 v -10 h 1 v -11 h 1 v -10 h 1 v -10 h 1 v -11 h 1 v -10 h 1 v -33 h 1 v -56 h 1 v -2 h -1 v -2 h -1 v -2 h -1 v -2 h -1 v -2 h -1 v -3 h -1 v -2 h -1 v -2 h -1 v -2 h -1 v -2 h -1 v -2 h -1 v -2 h -1 v -3 h -1 v -2 h -1 v -2 h -1 v -2 h -1 v -2 h -1 v -2 h -1 v -2 h -1 v -3 h -1 v -2 h -1 v -2 h -1 v -2 h -1 v -2 h -1 v -2 h -1 v -2 h -1 v -2 h -1 v -3 h -1 v -2 h -1 v -2 h -1 v -2 h -1 v -2 h -1 v -2 h -1 v -2 h -1 v -2 h -4 v -1 h -3 v -1 h -4 v -1 h -3 v -1 h -4 v -1 h -3 v -1 h -3 v -1 h -4 v -1 h -3 v -1 h -4 v -1 h -3 v -1 h -4 v -1 h -3 v -1 h -3 v -1 h -4 v -1 h -3 v -1 h -4 v -1 h -3 v -1 h -4 v -1 h -3 v -1 h -3 v -1 h -4 v -1 h -3 v -1 h -4 v -1 h -3 v -1 h -4 v -1 h -3 v -1 h -3 v -1 h -4 v -1 h -3 v -1 h -4 v -1 h -3 v -1 h -4 v -1 h -3 v -1 h -3 v -1 h -4 v -1 h -3 v -1 h -3 v -1 h -4 v -1 h -3 v -1 h -4 v -1 h -3 v -1 h -3 v -1 h -4 v -1 h -3 v -1 h -3 v -1 h -4 v -1 h -3 v -1 h -4 v -1 h -3 v -1 h -3 v -1 h -4 v -1 h -2 v -2 h -1 v -28 h -1 v -28 h -1 v -28 h -1 v -13 h -1 v -1 h -2 v -1 h -1 v -1 h -2 v -1 h -1 v -1 h -2 v -1 h -1 v -1 h -2 v -1 h -2 v -1 h -1 v -1 h -2 v -1 h -1 v -1 h -2 v -1 h -1 v -1 h -2 v -1 h -2 v -1 h -1 v -1 h -2 v -1 h -1 v -1 h -2 v -1 h -1 v -1 h -2 v -1 h -2 v -1 h -1 v -1 h -2 v -1 h -1 v -1 h -2 v -1 h -1 v -1 h -2 v -1 h -2 v -1 h -1 v -1 h -2 v -1 h -1 v -1 h -2 v -1 h -1 v -1 h -2 v -1 h -2 v -1 h -1 v -1 h -2 v -1 h -1 v -1 h -2 v -1 h -1 v -1 h -2 v -1 h -2 v -1 h -1 v -1 h -2 v -1 h -1 v -1 h -2 v -1 h -1 v -1 h -2 v -1 h -2 v -1 h -1 v -1 h -1 v -1 h -1 v -5 h -1 v -5 h -1 v -5 h -1 v -4 h -1 v -5 h -1 v -5 h -1 v -5 h -1 v -4 h -1 v -5 h -1 v -5 h -1 v -4 h -1 v -5 h -1 v -3 h -1 v -1 h -1 v -2 h -1 v -1 h -1 v -2 h -1 v -1 h -1 v -1 h -1 v -2 h -1 v -1 h -1 v -2 h -1 v -1 h -1 v -1 h -1 v -2 h -1 v -1 h -1 v -1 h -1 v -2 h -1 v -1 h -1 v -2 h -1 v -1 h -1 v -1 h -1 v -2 h -1 v -1 h -1 v -2 h -1 v -1 h -1 v -1 h -1 v -2 h -1 v -1 h -1 v -1 h -1 v -2 h -1 v -1 h -1 v -2 h -1 v -1 h -1 v -1 h -1 v -2 h -1 v -1 h -1 v -2 h -1 v -1 h -1 v -1 h -1 v -2 h -1 v -1 h -1 v -1 h -1 v -2 h -1 v -1 h -1 v -2 h -1 v -1 h -1 v -1 h -1 v -2 h -1 v -1 h -1 v -2 h -1 v -1 h -1 v -1 h -1 v -2 h -1 v -1 h -1 v -1 h -1 v -2 h -1 v -1 h -1 v -2 h -1 v -1 h -1 v -1 h -1 v -2 h -1 v -1 h -1 v -2 h -1 v -1 h -1 v -1 h -1 v -2 h -1 v -1 h -1 v -1 h -1 v -2 h -1 v -1 h -1 v -2 h -1 v -1 h -1 v -1 h -1 v -2 h -1 v -1 h -1 v -2 h -1 v -1 h -1 v -1 h -1 v -2 h -1 v -1 h -1 v -1 h -1 v -2 h -1 v -1 h -1 v -2 h -1 v -1 h -1 v -1 h -1 v -2 h -1 v -1 h -1 v -2 h -1 v -1 h -1 v -1 h -1 v -2 h -1 v -1 h -1 v -1 h -1 v -2 h -1 v -1 h -1 v -2 h -1 v -1 h -1 v -1 h -1 v -2 h -1 v -1 h -1 v -2 h -1 v -1 h -1 v -1 h -1 v -2 h -1 v -1 h -1 v -1 h -1 v -2 h -1 v -1 h -1 v -2 h -1 v -1 h -1 v -1 h -1 v -2 h -1 v -1" /></g></g></g><path
         id="path110"
         style="fill:#ed1f27;fill-opacity:1;fill-rule:nonzero;stroke:none"
         d="m 2207.85,1800.26 h -223.54 l -95,304.34 -89.21,-304.34 h -198.91 l 164.07,538.1 -121.39,408.78 h 199.89 l 74.04,-274.6 82.25,274.6 h 186.8 l -141.74,-438.52 162.74,-508.36" /><path
         id="path112"
         style="fill:none;stroke:#11100e;stroke-width:0.93000001;stroke-linecap:butt;stroke-linejoin:miter;stroke-miterlimit:10;stroke-dasharray:none;stroke-opacity:1"
         d="m 2207.85,1800.26 h -223.54 l -95,304.34 -89.21,-304.34 h -198.91 l 164.07,538.1 -121.39,408.78 h 199.89 l 74.04,-274.6 82.25,274.6 h 186.8 l -141.74,-438.52 z" /><path
         id="path114"
         style="fill:#ed1f27;fill-opacity:1;fill-rule:nonzero;stroke:none"
         d="m 2439.25,1800.12 h -207.73 v 946.87 h 207.73 v -946.87" /><path
         id="path116"
         style="fill:none;stroke:#11100e;stroke-width:0.93000001;stroke-linecap:butt;stroke-linejoin:miter;stroke-miterlimit:10;stroke-dasharray:none;stroke-opacity:1"
         d="m 2439.25,1800.12 h -207.73 v 946.87 h 207.73 z" /><path
         id="path118"
         style="fill:#100f0d;fill-opacity:1;fill-rule:nonzero;stroke:none"
         d="m 795.746,1096.31 132.555,-97.49 c 0,0 97.129,146.32 111.339,167.91 11.25,-8.42 25.9,-19.22 25.9,-19.22 48.96,-35.96 95.64,-50.16 139.07,-42.31 41.71,7.54 78.48,35.05 109.56,81.95 61.39,92.48 48.53,184.2 -34.26,245.3 l -175.7,129.47 z m 369.954,260.54 c 4.07,-2.96 8.5,-6.21 8.5,-6.21 8.96,-6.66 16.8,-15.09 16.8,-28.41 0,-9.32 -3.79,-21 -13.77,-36.11 -10.8,-16.26 -21.38,-25.43 -31.65,-27.36 -7.77,-1.33 -16.21,1.34 -25.6,8.58 0,0 -4.74,3.26 -9.25,6.66 10.88,16.43 43.64,65.69 54.97,82.85" /><path
         id="path120"
         style="fill:#100f0d;fill-opacity:1;fill-rule:nonzero;stroke:none"
         d="m 1270.44,955.621 c -51.05,-137.449 -20.78,-217.641 101.2,-268.242 60,-25.008 106.24,-28.258 145.29,-10.797 42.38,18.789 76.04,62.879 102.75,134.629 l 127.39,341.919 -150.61,62.43 -139.82,-375.341 c -10.13,-27.379 -19.09,-36.098 -24.72,-38.77 -2.87,-1.187 -7.24,-2.058 -16.34,1.621 -10.8,4.442 -24.26,10.071 -6.5,57.418 l 139.67,374.902 -150.77,62.43 -127.54,-342.199" /><path
         id="path122"
         style="fill:#100f0d;fill-opacity:1;fill-rule:nonzero;stroke:none"
         d="m 1694.17,567.98 154.54,-19.519 c 0,0 16.64,147.508 27.89,246.777 15.3,-102.09 38.01,-255.07 38.01,-255.07 l 173.1,-21.898 64.52,573.75 -154.62,19.69 c 0,0 -16.05,-143.53 -27.21,-242.8 -14.57,102.09 -35.67,250.77 -35.67,250.77 l -175.68,22.2 -64.88,-573.9" /><path
         id="path124"
         style="fill:#100f0d;fill-opacity:1;fill-rule:nonzero;stroke:none"
         d="m 2222.95,1123.84 92.02,-403.168 c 11.24,-49.582 -2.08,-52.961 -8.88,-54.582 -6.51,-1.641 -9.62,-0.61 -11.84,0.719 -4.13,2.66 -12.42,11.98 -19.51,43.492 l -9.48,40.84 -147.96,-37.43 5.92,-25.582 c 15.1,-66.141 40.69,-109.938 78.28,-133.609 35.05,-21.891 78.55,-25.899 133.73,-11.989 122.66,31.078 166.16,106.668 136.26,238.071 l -87.73,383.918 -160.81,-40.68" /><path
         id="path126"
         style="fill:#100f0d;fill-opacity:1;fill-rule:nonzero;stroke:none"
         d="m 2430.08,1196.04 133.6,-567.528 152.68,84.168 c 0,0 -23.53,72.199 -29.45,90.09 14.66,7.992 56.82,31.242 71.75,39.511 11.11,-15.691 53.71,-76.793 53.71,-76.793 l 152.4,84.051 -366.33,439.261 z m 177.55,-141.3 c 34.31,-47.8 63.31,-88.181 73.67,-102.529 -12.42,-6.66 -23.09,-12.582 -35.95,-19.672 -5.49,17.461 -20.28,65.539 -37.72,122.201" /><path
         id="path128"
         style="fill:#100f0d;fill-opacity:1;fill-rule:nonzero;stroke:none"
         d="m 2810.6,1477.3 -162.89,-147.38 351.38,-431.119 163.63,147.949 c 81.98,74.13 88.77,161.86 19.53,246.79 -31.07,38.16 -80.04,63.31 -129.6,49.11 2.96,10.36 5.04,20.86 5.04,31.8 0,31.53 -12.58,64.37 -37.58,95.13 -27.53,33.9 -60.37,53.14 -94.85,55.79 -37.57,2.8 -76.19,-13.33 -114.66,-48.07 m 54.46,-123.41 c 5.16,4.73 10.8,6.67 17.01,6.22 9.62,-0.73 20.12,-7.25 28.84,-17.9 7.11,-8.59 11.84,-19.39 11.84,-29.6 0,-7.39 -2.53,-14.34 -8.74,-19.97 0,0 -6.79,-6.07 -13.3,-12.13 -11.84,14.8 -38.02,46.9 -49.58,60.96 6.97,6.06 13.93,12.42 13.93,12.42 m 130.62,-152.09 c 5.48,4.88 12.28,7.11 19.99,6.51 12.12,-0.88 24.55,-8.72 35.2,-21.75 11.55,-14.2 16.29,-27.67 16.29,-38.9 0,-9.77 -3.86,-18.06 -9.47,-23.1 0,0 -8.89,-8.11 -17.16,-15.53 -12.88,15.98 -50.16,61.56 -62.43,76.79 8.27,7.4 17.58,15.98 17.58,15.98" /><path
         id="path130"
         style="fill:#ed1f27;fill-opacity:1;fill-rule:nonzero;stroke:none"
         d="m 1107.85,1540.9 163.62,-120.58 c 83.15,-61.25 81.97,-147.65 30.79,-224.88 -59.86,-90.1 -139.75,-101.34 -228.08,-35.96 l -38.16,28.12 -111.34,-168.08 -109.114,80.49 z m -16.94,-270.61 20.41,-14.93 c 27.6,-20.42 53.33,-14.5 77.9,22.49 24.04,36.39 20.85,64.51 -6.51,84.78 l -20.65,15.23 -71.15,-107.57" /><path
         id="path132"
         style="fill:#ed1f27;fill-opacity:1;fill-rule:nonzero;stroke:none"
         d="M 1530.09,1227.1 1395.61,865.801 c -18.19,-48.223 -8.81,-66.719 14.5,-76.633 23.22,-9.469 42.01,-2.656 59.99,45.711 l 134.56,361.461 123.77,-51.5 -122.29,-328.149 c -52.23,-140.41 -125.1,-158.902 -228.87,-115.703 -103.94,43.051 -145.43,108.891 -93.37,249.293 l 122.44,328.159 123.75,-51.34" /><path
         id="path134"
         style="fill:#ed1f27;fill-opacity:1;fill-rule:nonzero;stroke:none"
         d="m 1771.63,1125.31 150.46,-18.93 48.89,-346.509 1.56,-0.141 37.88,335.4 125.83,-15.83 -61.55,-544.46 -147.42,18.64 -51.87,347.551 -1.34,0.289 -38.03,-336.3 -125.88,15.992 61.47,544.298" /><path
         id="path136"
         style="fill:#ed1f27;fill-opacity:1;fill-rule:nonzero;stroke:none"
         d="m 2372.96,1146.47 84.33,-369.279 c 29.6,-129.461 -16.41,-192.632 -125.46,-220.16 -111.41,-28.25 -168.95,22.348 -194.55,134.481 l -2.51,11.398 119.84,30.192 5.92,-26.18 c 11.54,-51.063 28.84,-60.383 48.83,-55.34 20.11,5.027 31.36,21.449 19.81,72.488 l -88.76,388.97 132.55,33.43" /><path
         id="path138"
         style="fill:#ed1f27;fill-opacity:1;fill-rule:nonzero;stroke:none"
         d="m 2446.64,1188.34 148.25,81.67 347.08,-416.182 -125.31,-69.25 -53.41,76.934 -93.8,-51.633 29.31,-90.098 -125.46,-69.101 z m 123.11,-56.37 -1.21,-0.59 68.37,-220.302 65.83,36.391 -132.99,184.501" /><path
         id="path140"
         style="fill:#ed1f27;fill-opacity:1;fill-rule:nonzero;stroke:none"
         d="m 2667.68,1328.29 152.39,137.9 c 72.2,65.25 139.08,55.18 188.79,-6.21 35.35,-43.36 49.4,-98.54 13.9,-146.33 l 0.88,-1.04 c 55.04,40.83 113.19,13.77 147.66,-28.69 57.71,-70.87 65.69,-150.03 -18.34,-226.22 L 3000.57,919.82 Z m 231.55,-68.94 24.26,22.19 c 20.56,18.65 16.13,48.25 -1.49,70.14 -18.63,22.93 -45.99,31.94 -66.41,13.31 l -24.57,-21.89 z m 139.81,-171.47 28.26,25.44 c 18.2,16.73 21.75,49.57 -5.33,82.72 -25.6,31.51 -57.4,33.57 -75.91,16.86 l -28.1,-25.46 81.08,-99.56" /><path
         id="path142"
         style="fill:#100f0d;fill-opacity:1;fill-rule:nonzero;stroke:none"
         d="m 1955.53,3871.42 c 0,0 0.15,-227.7 0.15,-258.78 -25.9,112.45 -63.03,272.39 -63.03,272.39 l -12.13,-0.9 -167.11,-9.17 0.29,-14.06 1.86,-624.64 156.31,0.29 c 0,0 -0.45,274.45 -0.45,275.05 26.84,-112.3 65.75,-275.05 65.75,-275.05 h 175.11 l 0.59,649.21 -157.49,0.74 z m 288.27,-25.15 c -50.16,-46.32 -70.7,-129.02 -70.86,-285.84 -0.29,-135.98 3.84,-244.56 58.15,-298.42 25.3,-25.46 59.91,-37.88 106.22,-37.73 44.67,0 78.27,12.87 101.2,36.25 0.29,-3.4 1.33,-24.42 1.33,-24.42 l 120.58,-0.44 1.34,349.61 -204.92,11.83 0.14,-15.83 -0.28,-121.61 c 0,0 33.43,-1.18 47.63,-1.48 -1.48,-50.75 -7.09,-82.7 -17.46,-92.92 -2.36,-2.08 -5.62,-4.13 -13.31,-3.98 -25.75,0.29 -31.06,34.9 -30.79,195.28 0.31,100.31 1.63,172.66 18.36,188.04 2.37,2.38 6.22,4.46 15.24,3.71 6.66,-0.3 13.76,-2.96 18.19,-17.91 4.45,-14.34 6.66,-36.83 6.51,-66.57 v -13.75 l 160.69,-12.3 0.29,15.99 c 0.59,186.86 -110.98,225.04 -177.84,230.95 -61.25,4.88 -106.82,-7.69 -140.41,-38.46 m -759.95,8.57 0.53,-13.46 2.22,-605.71 165.18,0.59 -2.15,636.34 z m -44.52,-1.78 -152.54,-22.77 -3.04,-7.54 c 0,0 -44.07,-101.36 -72.56,-167.2 -0.15,62.28 -0.45,161.11 -0.45,161.11 l -163.77,-35.2 0.14,-11.98 v -535.73 l 165.12,0.88 c 0,0 -0.3,148.4 -0.3,156.09 1.4,2.66 5.62,9.62 11.1,18.94 16.65,-40.38 72.27,-174.43 72.27,-174.43 h 9.98 l 177.24,0.6 -9.38,20.69 c -50.45,112.9 -99.43,218.38 -145.45,313.81 6.08,12.44 139.23,287.17 139.23,287.17 z m 1226.44,-44.37 c -34.77,-28.71 -52.83,-77.53 -52.83,-145.15 -0.59,-129.01 76.63,-168.65 138.49,-200.32 46.6,-23.97 72.93,-39.35 72.79,-74.27 0,-13.03 -3.85,-24.12 -10.36,-30.49 -4.74,-4.58 -10.95,-6.79 -18.05,-6.49 -8.29,0.28 -30.18,0.88 -29.88,52.21 0,0.15 0.14,27.68 0.14,27.68 l -14.05,0.73 -146.78,7.11 v -15.38 -20.57 c -0.29,-60.22 14.21,-104.16 44.1,-133.9 30.91,-31.07 78.41,-46.02 144.85,-45.87 132.26,0.75 199.29,59.62 199.14,175.03 0,116.43 -77.69,159.34 -139.82,193.66 -49.55,27.53 -80.19,46.32 -80.19,83 0.15,11.24 3.56,21.02 8.87,25.45 4,3.56 9.32,4.58 16.28,3.56 19.09,-3.26 25.89,-29.31 25.75,-50.9 l -0.15,-25.74 13.01,-2.22 142.49,-21.45 v 17.16 c 0,119.97 -56.51,187.01 -178.44,211.12 -57.55,10.94 -102.97,2.8 -135.36,-23.96" /><path
         id="path144"
         style="fill:#ed1f27;fill-opacity:1;fill-rule:nonzero;stroke:none"
         d="m 1441.32,3838.43 c -48.16,-6.36 -96.09,-13.63 -143.95,-21.62 -32.99,-77.96 -66.22,-154.6 -99.34,-228.87 -0.6,-0.15 -0.96,-0.15 -1.41,-0.15 -0.3,70.14 -0.45,140.26 -0.6,210.53 -44.82,-8.72 -89.51,-18.34 -134.04,-28.71 v -520.93 c 45.12,0.3 90.25,0.45 135.45,0.75 0,48.53 -0.15,96.76 -0.36,145.28 9.23,15.98 18.78,31.81 28.17,48.25 26.57,-62.73 53.34,-127.09 80.04,-193.08 51.34,0.3 102.84,0.43 154.39,0.58 -49.56,110.68 -99.13,217.8 -148.32,319.87 43.27,87.15 86.63,176.81 129.97,268.1 m 57.7,3.11 c 0.75,-196.93 1.57,-394 2.29,-591.08 45.14,0.15 90.26,0.3 135.6,0.45 -0.73,201.65 -1.4,403.32 -2.14,605.11 -45.13,-3.99 -90.48,-8.87 -135.75,-14.48 m 471.29,30.01 c 0,-127.37 0.24,-254.9 0.24,-382.3 h -1.42 c -29.36,127.25 -58.65,254.04 -88.17,380.09 -50.89,-1.77 -101.64,-4.58 -152.4,-8.44 0.6,-203.27 1.05,-406.56 1.63,-609.99 42.47,0.15 84.57,0.3 126.87,0.3 -0.15,127.09 -0.36,254.18 -0.66,381.27 0.51,0 1.11,0 1.55,0 30.48,-126.36 60.73,-253.45 90.92,-381.27 49.49,0 99.04,0 148.62,0 0.15,206.68 0.29,413.22 0.45,619.92 -42.47,0.72 -85.17,1.02 -127.63,0.42 m 407.24,-108.3 c 16.13,-1.32 26.2,-11.37 31.22,-28.69 5.18,-16.43 7.11,-40.1 7.11,-70.72 43.79,-2.8 87.72,-6.06 131.22,-10.06 0.6,142.33 -67.62,207.42 -164.22,216.16 -160.83,13.16 -194.85,-103.28 -195.16,-309.51 -0.29,-204.48 11.85,-321.65 149.59,-321.5 45.87,0 94.1,13.91 112.29,64.94 0.6,0 1.19,0 1.63,0 0.74,-17.74 1.78,-35.5 2.52,-53.11 30.77,-0.15 61.41,-0.15 91.88,-0.3 0.44,106.82 0.89,213.79 1.18,320.77 -58.16,3.98 -116.43,7.39 -175.02,10.05 0,-35.65 -0.31,-71.45 -0.31,-107.26 16.14,-0.44 31.97,-0.89 48.24,-1.63 -1.18,-105.49 -18.05,-126.49 -46.46,-126.2 -41.58,0.74 -45.56,45.27 -45.27,210.53 0.3,165.12 4.89,209.66 49.56,206.53 m 380.97,-87.43 c 0,25.45 13.33,47.95 42.31,43.51 26.05,-4.15 38.48,-33.29 38.17,-65.55 v -13.01 c 42.03,-5.93 84.06,-12.45 125.77,-19.24 0,111.26 -49.43,173.54 -166.45,196.48 -113.76,21.75 -170.28,-36.55 -170.73,-154.47 -0.6,-206.98 211.72,-165.55 211.41,-274.74 0,-30.04 -16.12,-52.51 -43.79,-51.64 -26.03,0.75 -44.38,18.79 -44.09,67.17 0,4.44 0,8.89 0,13.47 -43.49,2.21 -87.28,4.44 -131.07,6.37 0,-6.82 0,-13.63 0,-20.42 -0.3,-121.92 62.13,-165.41 174.14,-165.12 119.54,0.88 184.48,50.46 184.18,160.38 0.3,189.98 -219.85,166.58 -219.85,276.81" /><path
         id="path146"
         style="fill:#ed1f27;fill-opacity:1;fill-rule:nonzero;stroke:none"
         d="m 2547.85,2991.11 c 20.12,-22.19 39.79,-50.3 100.3,-53.85 70.13,-4.14 170.14,97.2 284.96,62.28 -89.95,69.84 -202.1,-0.3 -235.84,-6.21 -61.54,-21.9 -112.14,-11.53 -149.42,-2.22 m 1180.64,-366.48 c -39.95,19.39 -86.57,31.22 -141.16,34.04 34.03,-16.87 75.77,-24.87 106.1,-45.87 14.05,1.93 23.81,7.55 35.06,11.83 M 2839,2317.2 c -51.48,-10.35 -85.35,-44.53 -107.4,-81.38 46.6,21.75 100.6,35.66 159.79,33.6 44.67,-1.48 82.85,-12.73 134.63,4.59 28.85,9.61 48.23,26.92 73.38,41.7 -88.77,-17.46 -169.85,19.39 -260.4,1.49 m 491.21,283.48 c 45.27,7.24 99.72,30.17 158.6,26.48 13.31,-0.9 30.47,-8.74 39.35,-6.21 7.54,1.91 16.57,17.01 21.3,22.32 7.99,9.32 14.2,17.01 18.06,25.9 -44.83,35.07 -110.08,46.45 -183.91,48.23 -1.92,-0.45 -3.98,-2.96 -1.32,-3.25 40.38,-6.37 78.56,-15.69 105.34,-37.43 -74.28,-4.29 -129.16,-34.62 -157.42,-76.04 m -713.12,195.43 c 65.54,30.77 245.29,105.05 345.32,20.12 -36.7,-14.78 -168.07,-62.43 -185.11,-90.24 56.24,34.32 239.7,46.9 285.55,2.96 27.08,-25.9 36.7,-69.1 33.89,-117.32 -15.08,23.22 -31.66,47.93 -57.11,66.56 -24.85,18.34 -55.32,32.27 -85.96,35.07 -21.44,2.21 -42.76,-3.1 -42.46,-21.89 0.29,-22.05 34.02,-32.99 49.27,-42.16 9.9,-6.08 18.19,-13.03 26.79,-18.51 9.46,-5.77 21.29,-8.13 26.9,-18.49 -60.21,1.03 -116.27,6.66 -159.93,26.63 13.17,-25.3 24.57,-45.87 55.04,-58.45 -82.4,-10.79 -131.98,-52.36 -128.57,-134.63 59.19,26.93 67.46,73.68 312.02,-55.92 46.03,-24.56 88.04,-46.17 152.7,-41.58 -78.56,-77.97 -241.15,-137.29 -387.78,-99.56 79.61,-82.12 229.92,-129.02 347.98,-120.88 -102.97,-79.01 -355.07,-125.76 -489.13,5.62 24.27,-53.57 160.38,-220.28 348.28,-213.93 -84.93,-55.34 -186.42,-1.47 -187.9,-6.35 25.16,-60.96 133.61,-130.21 190.28,-83.61 -21.32,-57.84 -75.31,-101.05 -129.9,-124.71 155.78,-4.16 227.1,169.25 227.1,169.25 -0.15,-178.29 -60.23,-286.88 -288.35,-182.87 20.42,-44.39 36.09,-72.05 48.22,-89.94 14.78,-21.91 41.41,-41.29 48.08,-45.72 201.66,-130.95 360.55,58.28 414.12,173.24 17.6,-8.43 -7.1,-140.25 -27.37,-169.71 68.2,33.15 104.59,86.11 123.54,132.73 18.93,-20.42 3.55,-71.91 -25.75,-97.66 197.51,87.44 226.06,258.92 228.44,285.55 32.54,-1.93 23.96,-46.02 20.27,-79.16 62.73,79.16 77.36,169.55 45.27,214.24 38.03,-9.47 105.19,53.85 117.02,13.45 7.4,-11.23 -4.14,-23.67 -1.77,-29.88 63.92,17.61 151.5,73.67 130.34,163.79 -6.37,26.78 -25.29,41.13 -42.17,59.02 2.08,12.87 8.59,17.91 8,32.11 -0.31,9.48 -8.72,18.5 -8,27.51 0.6,5.19 8.29,16.29 11.7,23.83 14.93,33.74 17.76,76.93 1.33,124.13 5.61,3.56 15.23,3.71 18.94,9.17 12.12,40.54 25.45,89.06 2.35,132.57 -6.21,11.53 -22.17,23.38 -24.55,36.68 -3.99,19.24 6.21,51.63 -4.14,74.13 -73.09,32.11 -137.3,73.83 -223.41,90.99 -0.14,17.16 7.7,27.38 8.87,43.49 -57.99,40.1 -125.15,69.85 -200.61,90.41 -5.92,90.69 -52.82,166.15 -121.91,190.85 5.03,-10.95 19.53,-50.45 4.58,-58.14 -44.81,-24.86 -85.07,67.76 -193.52,132.57 -174.42,98.23 -370.32,17.74 -408.18,-90.11 8.87,30.77 201.5,240.72 448.59,-47.05 -61.26,45.42 -171.63,77.82 -342.06,17.91 133.44,17.16 278.73,-40.69 322.52,-106.67 -117.17,55.76 -447.41,120.73 -637.66,-149.44 m 1305.07,-315.13 c -9.92,26.48 -17.32,56.07 -25.61,84.63 47.65,52.81 47.65,-61.4 25.61,-84.63 m -12.58,-151.21 c -5.33,17.91 -9.17,37.73 -20.57,48.52 -3.4,-11.82 -5.76,-24.84 -14.35,-32.23 -7.39,9.31 -14.2,18.93 -25.75,23.67 0.6,-33.45 -10.79,-55.79 -24.86,-75.76 -6.78,26.63 -13.6,53.11 -23.51,76.49 -6.22,-5.77 -8.73,-14.79 -16.72,-19.09 -9.62,6.51 -13.61,19.54 -23.98,25.14 -7.09,-3.53 -7.09,-13 -17.01,-14.05 -11.67,21.75 -27.65,38.78 -37.42,62.59 64.5,-12.28 163.04,-62.73 213.64,-2.21 11.24,-30.34 9.02,-75.91 -9.47,-93.07 m 10.8,-140.11 c -47.79,-16.56 -130.64,-26.77 -174.14,-9.02 16.42,13.17 28.71,30.18 46.15,42.16 5.03,-5.46 7.84,-13.31 12.42,-19.07 11.56,11.83 18.67,27.51 28.41,40.97 6.67,-15.09 15.69,-27.81 20.42,-45.28 11.25,4.74 13.33,18.06 26.35,21.17 4.29,-6.07 8.88,-12 16.87,-13.91 5.31,12.74 8.29,28.12 17.31,37.29 6.36,-14.51 11.09,-36.85 6.21,-54.31 m -572.42,-259.94 c -43.79,-280.07 -154.77,-472.41 -382.6,-318.24 261.73,-66.29 382.6,318.24 382.6,318.24 m -338.8,60.52 c 0,0 156.22,15.68 235.54,105.92 0,0 13.01,-133.76 -235.54,-105.92 m 236.27,-64.08 c 30.48,80.49 77.96,125.91 127.24,137.76 17.76,4.27 -86.56,-23.83 -92.17,-189.24 -1.78,-128.27 -116.29,-178.88 -116.29,-178.88 87.58,67.92 50.88,136.12 81.22,230.36 m -192.18,889.92 c 92.17,15.68 158.3,-13.45 200.62,-60.65 32.55,22.93 66.72,49.25 116.57,55.62 68.07,8.89 135.53,-15.23 190.27,-19.82 -10.95,16.71 -24.7,30.33 -33.44,49.56 27.67,-5.47 56.24,-11.68 81.97,-20.55 25.14,-8.74 52.22,-16.88 68.36,-36.1 -7.41,-14.51 -25.45,-27.83 -28.41,-41.14 93.35,-12.28 174.57,-38.47 236.12,-87.15 -33,-44.97 -123.84,-36.38 -179.61,-60.5 11.99,-29.01 24.56,-57.27 52.37,-68.37 7.69,21.02 18.06,39.66 46.47,37.15 45.42,-4 77.23,-78.86 74.55,-121.91 -40.09,-16.88 -82.24,-8.14 -123.08,2.06 -39.96,9.77 -79.61,28.56 -119.55,26.79 -12.43,-0.6 -26.93,-4.15 -34.61,-11.68 -24.28,-23.09 -31.37,-97.07 -26.06,-150.34 6.51,-62.73 28.71,-112.58 70.44,-130.34 -41.58,42.61 -61.4,154.32 -26.35,213.79 -13.45,-128.87 41.73,-221.18 127.24,-254.75 -28.99,-2.98 -47.2,5.9 -67.01,13 48.07,-37.88 136.26,-30.47 221.33,-26.63 -59.93,-30.18 -185.08,-79.89 -259.66,-69.53 -3.54,-25.9 -20.12,-51.35 -38.01,-71.61 47.2,-57.4 27.81,-154.76 -63.78,-259.06 62.15,105.34 57.72,186.28 42.31,236.71 -119.83,-99.71 -109.32,-139.8 -105.32,-147.21 0,0.16 0,0.3 -0.3,0.3 -27.53,28.41 12.72,90.84 71.3,200.62 15.39,28.71 18.94,52.08 17.76,70.43 -6.06,11.39 -4.28,27.67 -13.6,35.66 -66.89,-8.44 -189.09,-29.31 -199.3,18.34 -14.05,65.39 -10.79,141.3 0,160.24 18.2,31.21 82.11,61.67 73.83,106.51 -103.86,-26.78 -185.83,13.31 -259.8,47.79 -68.95,31.96 -138.19,48.24 -230.66,47.49 34.17,16.58 69.84,30.19 116.44,32.55 73.08,3.55 126.64,-16.42 181.23,-33.58 36.55,-11.55 75.46,-29.3 115.86,-20.56 -51.2,36.54 -106.09,53.26 -126.36,120.72 -6.79,23.52 -3.56,48.38 -10.5,75.61 -20.26,79.89 -85.08,126.19 -159.63,140.54" /></g></g></svg>