<?xml version="1.0" encoding="UTF-8" standalone="no"?>
<!-- Created with Inkscape (http://www.inkscape.org/) -->

<svg
   xmlns:dc="http://purl.org/dc/elements/1.1/"
   xmlns:cc="http://creativecommons.org/ns#"
   xmlns:rdf="http://www.w3.org/1999/02/22-rdf-syntax-ns#"
   xmlns:svg="http://www.w3.org/2000/svg"
   xmlns="http://www.w3.org/2000/svg"
   xmlns:sodipodi="http://sodipodi.sourceforge.net/DTD/sodipodi-0.dtd"
   xmlns:inkscape="http://www.inkscape.org/namespaces/inkscape"
   width="298"
   height="223.64999"
   id="svg10422"
   version="1.1"
   inkscape:version="0.48.1 "
   sodipodi:docname="New document 5">
  <defs
     id="defs10424">
    <clipPath
       clipPathUnits="userSpaceOnUse"
       id="clipPath6202">
      <path
         inkscape:connector-curvature="0"
         d="m 195.817,78.674 36.85,0 0,29.099 -36.85,0 0,-29.099 z"
         id="path6204" />
    </clipPath>
    <clipPath
       clipPathUnits="userSpaceOnUse"
       id="clipPath6262">
      <path
         inkscape:connector-curvature="0"
         d="m 201.397,104.326 2.022,-3.916 -7.602,0 0,-0.202 1.169,-1.554 -1.169,0 0,-0.735 8.955,-9.456 0.333,0.176 c 0.921,0.488 1.855,0.992 2.813,1.414 l 0,0 c -1.2,-2.851 -3.711,-7.148 -6.677,-8.253 l 0,0 c -0.441,-0.165 -0.875,-0.271 -1.333,-0.367 l 0,0 c -0.364,-0.076 -0.8,-0.149 -0.984,-0.518 l 0,0 c -0.06,-0.12 -0.081,-0.253 -0.066,-0.387 l 0,0 0.006,-0.058 c 0.02,-0.179 0.103,-0.326 0.219,-0.46 l 0,0 c 0.079,-0.091 0.172,-0.166 0.276,-0.228 l 0,0 c 0.546,-0.325 1.418,-0.359 2.04,-0.343 l 0,0 c 0.155,0.005 0.309,0.012 0.464,0.023 l 0,0 c 0.657,0.047 1.493,0.153 2.117,0.366 l 0,0 c 3.045,1.04 5.254,3.655 6.766,6.391 l 0,0 3.494,-6.769 3.494,6.768 c 0.211,-0.38 0.429,-0.756 0.658,-1.123 l 0,0 c 1.416,-2.261 3.544,-4.392 6.108,-5.267 l 0,0 c 0.624,-0.213 1.46,-0.319 2.117,-0.366 l 0,0 c 0.154,-0.011 0.309,-0.018 0.464,-0.023 l 0,0 c 0.623,-0.016 1.494,0.018 2.04,0.343 l 0,0 c 0.104,0.062 0.197,0.137 0.276,0.228 l 0,0 c 0.117,0.134 0.199,0.281 0.219,0.46 l 0,0 0.006,0.058 c 0.015,0.134 -0.006,0.267 -0.066,0.387 l 0,0 c -0.184,0.369 -0.621,0.442 -0.984,0.518 l 0,0 c -0.458,0.096 -0.893,0.202 -1.333,0.367 l 0,0 c -2.966,1.105 -5.478,5.403 -6.677,8.254 l 0,0 c 1.07,-0.472 2.104,-1.039 3.137,-1.586 l 0,0 8.968,9.454 0,0.732 -1.175,0 1.175,1.555 0,0.201 -7.605,0 2.022,3.916 -12.844,2.904 -12.843,-2.904 z"
         id="path6264" />
    </clipPath>
    <clipPath
       clipPathUnits="userSpaceOnUse"
       id="clipPath6274">
      <path
         inkscape:connector-curvature="0"
         d="m 208.422,89.993 c -0.182,-0.437 -0.949,-2.238 -2.169,-4.115 l 0,0 c -1.212,-1.864 -2.871,-3.802 -4.839,-4.535 l 0,0 c -0.57,-0.212 -1.065,-0.317 -1.404,-0.388 l 0,0 c -0.409,-0.085 -0.65,-0.136 -0.66,-0.366 l 0,0 0.006,-0.06 c 0.019,-0.071 0.053,-0.134 0.1,-0.188 l 0,0 c 0.043,-0.049 0.096,-0.092 0.156,-0.128 l 0,0 c 0.375,-0.223 1.055,-0.292 1.775,-0.273 l 0,0 c 0.925,0.024 1.937,0.192 2.434,0.362 l 0,0 c 1.331,0.454 2.577,1.287 3.67,2.347 l 0,0 c 1.175,1.14 2.175,2.545 2.915,4.029 l 0,0 0.045,0.093 -0.047,0.092 -1.608,3.144 -0.203,0.397 -0.171,-0.411 z"
         id="path6276" />
    </clipPath>
    <clipPath
       clipPathUnits="userSpaceOnUse"
       id="clipPath6286">
      <path
         inkscape:connector-curvature="0"
         d="m 206.599,85.654 c -1.251,-1.922 -2.972,-3.927 -5.041,-4.697 l 0,0 c -0.422,-0.158 -1.022,-0.339 -1.502,-0.415 l 0,0 c -0.083,-0.014 -0.141,-0.025 -0.006,-0.068 l 0,0 c 0.429,-0.124 0.88,-0.134 1.327,-0.122 l 0,0 c 0.884,0.023 1.844,0.181 2.312,0.341 l 0,0 c 1.27,0.434 2.464,1.232 3.515,2.252 l 0,0 c 1.115,1.083 2.07,2.414 2.786,3.825 l 0,0 -1.361,2.659 c -0.33,-0.751 -1.03,-2.237 -2.03,-3.775"
         id="path6288" />
    </clipPath>
    <clipPath
       clipPathUnits="userSpaceOnUse"
       id="clipPath6298">
      <path
         inkscape:connector-curvature="0"
         d="m 201.397,104.326 2.022,-3.916 -7.602,0 0,-0.202 1.169,-1.554 -1.169,0 0,-0.735 8.955,-9.456 0.333,0.176 c 0.921,0.488 1.855,0.992 2.813,1.414 l 0,0 c -1.2,-2.851 -3.711,-7.148 -6.677,-8.253 l 0,0 c -0.441,-0.165 -0.875,-0.271 -1.333,-0.367 l 0,0 c -0.364,-0.076 -0.8,-0.149 -0.984,-0.518 l 0,0 c -0.06,-0.12 -0.081,-0.253 -0.066,-0.387 l 0,0 0.006,-0.058 c 0.02,-0.179 0.103,-0.326 0.219,-0.46 l 0,0 c 0.079,-0.091 0.172,-0.166 0.276,-0.228 l 0,0 c 0.546,-0.325 1.418,-0.359 2.04,-0.343 l 0,0 c 0.155,0.005 0.309,0.012 0.464,0.023 l 0,0 c 0.657,0.047 1.493,0.153 2.117,0.366 l 0,0 c 3.045,1.04 5.254,3.655 6.766,6.391 l 0,0 3.494,-6.769 3.494,6.768 c 0.211,-0.38 0.429,-0.756 0.658,-1.123 l 0,0 c 1.416,-2.261 3.544,-4.392 6.108,-5.267 l 0,0 c 0.624,-0.213 1.46,-0.319 2.117,-0.366 l 0,0 c 0.154,-0.011 0.309,-0.018 0.464,-0.023 l 0,0 c 0.623,-0.016 1.494,0.018 2.04,0.343 l 0,0 c 0.104,0.062 0.197,0.137 0.276,0.228 l 0,0 c 0.117,0.134 0.199,0.281 0.219,0.46 l 0,0 0.006,0.058 c 0.015,0.134 -0.006,0.267 -0.066,0.387 l 0,0 c -0.184,0.369 -0.621,0.442 -0.984,0.518 l 0,0 c -0.458,0.096 -0.893,0.202 -1.333,0.367 l 0,0 c -2.966,1.105 -5.478,5.403 -6.677,8.254 l 0,0 c 1.07,-0.472 2.104,-1.039 3.137,-1.586 l 0,0 8.968,9.454 0,0.732 -1.175,0 1.175,1.555 0,0.201 -7.605,0 2.022,3.916 -12.844,2.904 -12.843,-2.904 z"
         id="path6300" />
    </clipPath>
    <clipPath
       clipPathUnits="userSpaceOnUse"
       id="clipPath6310">
      <path
         inkscape:connector-curvature="0"
         d="m 219.686,90.007 -1.609,-3.144 -0.048,-0.092 0.046,-0.093 c 0.74,-1.484 1.74,-2.889 2.915,-4.029 l 0,0 c 1.093,-1.06 2.34,-1.893 3.67,-2.347 l 0,0 c 0.498,-0.17 1.509,-0.338 2.434,-0.362 l 0,0 c 0.721,-0.019 1.4,0.05 1.775,0.273 l 0,0 c 0.06,0.036 0.113,0.079 0.156,0.128 l 0,0 c 0.047,0.054 0.082,0.117 0.1,0.188 l 0,0 0.006,0.06 c -0.009,0.23 -0.251,0.281 -0.66,0.366 l 0,0 c -0.339,0.071 -0.834,0.176 -1.404,0.388 l 0,0 c -1.968,0.733 -3.627,2.671 -4.839,4.535 l 0,0 c -1.22,1.877 -1.986,3.678 -2.168,4.115 l 0,0 -0.171,0.411 -0.203,-0.397 z"
         id="path6312" />
    </clipPath>
    <clipPath
       clipPathUnits="userSpaceOnUse"
       id="clipPath6322">
      <path
         inkscape:connector-curvature="0"
         d="m 218.492,86.77 c 0.715,-1.411 1.67,-2.742 2.786,-3.825 l 0,0 c 1.051,-1.02 2.244,-1.818 3.514,-2.252 l 0,0 c 0.469,-0.16 1.428,-0.318 2.312,-0.341 l 0,0 c 0.447,-0.012 0.897,-0.002 1.327,0.122 l 0,0 c 0.136,0.043 0.077,0.054 -0.006,0.068 l 0,0 c -0.48,0.076 -1.08,0.257 -1.502,0.415 l 0,0 c -2.069,0.77 -3.79,2.775 -5.041,4.697 l 0,0 c -1,1.538 -1.7,3.024 -2.03,3.775 l 0,0 -1.36,-2.659 z"
         id="path6324" />
    </clipPath>
    <clipPath
       clipPathUnits="userSpaceOnUse"
       id="clipPath6334">
      <path
         inkscape:connector-curvature="0"
         d="m 201.397,104.326 2.022,-3.916 -7.602,0 0,-0.202 1.169,-1.554 -1.169,0 0,-0.735 8.955,-9.456 0.333,0.176 c 0.921,0.488 1.855,0.992 2.813,1.414 l 0,0 c -1.2,-2.851 -3.711,-7.148 -6.677,-8.253 l 0,0 c -0.441,-0.165 -0.875,-0.271 -1.333,-0.367 l 0,0 c -0.364,-0.076 -0.8,-0.149 -0.984,-0.518 l 0,0 c -0.06,-0.12 -0.081,-0.253 -0.066,-0.387 l 0,0 0.006,-0.058 c 0.02,-0.179 0.103,-0.326 0.219,-0.46 l 0,0 c 0.079,-0.091 0.172,-0.166 0.276,-0.228 l 0,0 c 0.546,-0.325 1.418,-0.359 2.04,-0.343 l 0,0 c 0.155,0.005 0.309,0.012 0.464,0.023 l 0,0 c 0.657,0.047 1.493,0.153 2.117,0.366 l 0,0 c 3.045,1.04 5.254,3.655 6.766,6.391 l 0,0 3.494,-6.769 3.494,6.768 c 0.211,-0.38 0.429,-0.756 0.658,-1.123 l 0,0 c 1.416,-2.261 3.544,-4.392 6.108,-5.267 l 0,0 c 0.624,-0.213 1.46,-0.319 2.117,-0.366 l 0,0 c 0.154,-0.011 0.309,-0.018 0.464,-0.023 l 0,0 c 0.623,-0.016 1.494,0.018 2.04,0.343 l 0,0 c 0.104,0.062 0.197,0.137 0.276,0.228 l 0,0 c 0.117,0.134 0.199,0.281 0.219,0.46 l 0,0 0.006,0.058 c 0.015,0.134 -0.006,0.267 -0.066,0.387 l 0,0 c -0.184,0.369 -0.621,0.442 -0.984,0.518 l 0,0 c -0.458,0.096 -0.893,0.202 -1.333,0.367 l 0,0 c -2.966,1.105 -5.478,5.403 -6.677,8.254 l 0,0 c 1.07,-0.472 2.104,-1.039 3.137,-1.586 l 0,0 8.968,9.454 0,0.732 -1.175,0 1.175,1.555 0,0.201 -7.605,0 2.022,3.916 -12.844,2.904 -12.843,-2.904 z"
         id="path6336" />
    </clipPath>
    <clipPath
       clipPathUnits="userSpaceOnUse"
       id="clipPath6346">
      <path
         inkscape:connector-curvature="0"
         d="m 202.13,103.991 1.852,-3.587 20.519,0 1.852,3.587 -12.112,2.739 -12.111,-2.739 z m 6.927,-13.415 5.184,-10.039 5.183,10.039 c -1.708,0.529 -3.445,0.793 -5.183,0.793 l 0,0 c -1.737,0 -3.475,-0.264 -5.184,-0.793"
         id="path6348" />
    </clipPath>
    <clipPath
       clipPathUnits="userSpaceOnUse"
       id="clipPath6370">
      <path
         inkscape:connector-curvature="0"
         d="m 201.397,104.326 2.022,-3.916 -7.602,0 0,-0.202 1.169,-1.554 -1.169,0 0,-0.735 8.955,-9.456 0.333,0.176 c 0.921,0.488 1.855,0.992 2.813,1.414 l 0,0 c -1.2,-2.851 -3.711,-7.148 -6.677,-8.253 l 0,0 c -0.441,-0.165 -0.875,-0.271 -1.333,-0.367 l 0,0 c -0.364,-0.076 -0.8,-0.149 -0.984,-0.518 l 0,0 c -0.06,-0.12 -0.081,-0.253 -0.066,-0.387 l 0,0 0.006,-0.058 c 0.02,-0.179 0.103,-0.326 0.219,-0.46 l 0,0 c 0.079,-0.091 0.172,-0.166 0.276,-0.228 l 0,0 c 0.546,-0.325 1.418,-0.359 2.04,-0.343 l 0,0 c 0.155,0.005 0.309,0.012 0.464,0.023 l 0,0 c 0.657,0.047 1.493,0.153 2.117,0.366 l 0,0 c 3.045,1.04 5.254,3.655 6.766,6.391 l 0,0 3.494,-6.769 3.494,6.768 c 0.211,-0.38 0.429,-0.756 0.658,-1.123 l 0,0 c 1.416,-2.261 3.544,-4.392 6.108,-5.267 l 0,0 c 0.624,-0.213 1.46,-0.319 2.117,-0.366 l 0,0 c 0.154,-0.011 0.309,-0.018 0.464,-0.023 l 0,0 c 0.623,-0.016 1.494,0.018 2.04,0.343 l 0,0 c 0.104,0.062 0.197,0.137 0.276,0.228 l 0,0 c 0.117,0.134 0.199,0.281 0.219,0.46 l 0,0 0.006,0.058 c 0.015,0.134 -0.006,0.267 -0.066,0.387 l 0,0 c -0.184,0.369 -0.621,0.442 -0.984,0.518 l 0,0 c -0.458,0.096 -0.893,0.202 -1.333,0.367 l 0,0 c -2.966,1.105 -5.478,5.403 -6.677,8.254 l 0,0 c 1.07,-0.472 2.104,-1.039 3.137,-1.586 l 0,0 8.968,9.454 0,0.732 -1.175,0 1.175,1.555 0,0.201 -7.605,0 2.022,3.916 -12.844,2.904 -12.843,-2.904 z"
         id="path6372" />
    </clipPath>
  </defs>
  <sodipodi:namedview
     id="base"
     pagecolor="#ffffff"
     bordercolor="#666666"
     borderopacity="1.0"
     inkscape:pageopacity="0.0"
     inkscape:pageshadow="2"
     inkscape:zoom="1.979899"
     inkscape:cx="144.95921"
     inkscape:cy="118.66025"
     inkscape:document-units="px"
     inkscape:current-layer="layer1"
     showgrid="false"
     fit-margin-top="0"
     fit-margin-left="0"
     fit-margin-right="0"
     fit-margin-bottom="0"
     inkscape:window-width="1280"
     inkscape:window-height="720"
     inkscape:window-x="-8"
     inkscape:window-y="-8"
     inkscape:window-maximized="1" />
  <metadata
     id="metadata10427">
    <rdf:RDF>
      <cc:Work
         rdf:about="">
        <dc:format>image/svg+xml</dc:format>
        <dc:type
           rdf:resource="http://purl.org/dc/dcmitype/StillImage" />
        <dc:title></dc:title>
      </cc:Work>
    </rdf:RDF>
  </metadata>
  <g
     inkscape:label="Layer 1"
     inkscape:groupmode="layer"
     id="layer1"
     transform="translate(-289.13913,-263.32739)">
    <g
       id="g10765"
       transform="matrix(1.0340891,0,0,1.0340891,-16.873115,-11.575427)">
      <g
         transform="matrix(7.9201919,0,0,-7.9201919,-1256.7966,1112.948)"
         id="g6258">
        <g
           clip-path="url(#clipPath6262)"
           id="g6260">
          <g
             transform="translate(208.7956,90.0076)"
             id="g6266">
            <path
               inkscape:connector-curvature="0"
               id="path6268"
               style="fill:#141006;fill-opacity:1;fill-rule:nonzero;stroke:none"
               d="M 0,0 1.608,-3.144 1.656,-3.237 1.61,-3.329 c -0.739,-1.485 -1.739,-2.89 -2.914,-4.029 -1.094,-1.061 -2.34,-1.893 -3.67,-2.348 -0.498,-0.17 -1.51,-0.337 -2.435,-0.362 -0.72,-0.019 -1.399,0.051 -1.775,0.274 -0.06,0.036 -0.112,0.078 -0.155,0.127 -0.048,0.055 -0.082,0.118 -0.1,0.189 l -0.007,0.059 c 0.01,0.231 0.252,0.281 0.66,0.367 0.34,0.071 0.834,0.174 1.404,0.387 1.969,0.733 3.627,2.672 4.839,4.535 1.221,1.877 1.987,3.678 2.169,4.116 L -0.203,0.397 0,0 z" />
          </g>
        </g>
      </g>
      <g
         transform="matrix(7.9201919,0,0,-7.9201919,-1256.7966,1112.948)"
         id="g6270">
        <g
           clip-path="url(#clipPath6274)"
           id="g6272">
          <g
             transform="translate(209.9895,86.7702)"
             id="g6278">
            <path
               inkscape:connector-curvature="0"
               id="path6280"
               style="fill:#bec0c2;fill-opacity:1;fill-rule:evenodd;stroke:none"
               d="m 0,0 -1.36,2.659 c -0.331,-0.751 -1.03,-2.237 -2.031,-3.776 -1.25,-1.922 -2.972,-3.926 -5.041,-4.697 -0.421,-0.157 -1.021,-0.339 -1.502,-0.415 -0.083,-0.013 -0.141,-0.025 -0.005,-0.067 0.429,-0.124 0.88,-0.134 1.326,-0.122 0.885,0.023 1.844,0.181 2.312,0.341 1.27,0.433 2.464,1.232 3.516,2.252 C -1.67,-2.743 -0.715,-1.411 0,0" />
          </g>
        </g>
      </g>
      <g
         transform="matrix(7.9201919,0,0,-7.9201919,-1256.7966,1112.948)"
         id="g6282">
        <g
           clip-path="url(#clipPath6286)"
           id="g6284">
          <g
             transform="translate(209.1793,87.2169)"
             id="g6290">
            <path
               inkscape:connector-curvature="0"
               id="path6292"
               style="fill:#ffffff;fill-opacity:1;fill-rule:evenodd;stroke:none"
               d="m 0,0 c -1.326,-2.178 -3.789,-5.562 -6.74,-6.423 -0.717,-0.21 -1.303,-0.267 -1.644,-0.317 -0.069,-0.008 -0.154,0.009 -0.008,0.034 0.343,0.072 0.826,0.178 1.384,0.386 3.078,1.147 5.391,5.126 6.48,7.343 L 0,0 z" />
          </g>
        </g>
      </g>
      <g
         transform="matrix(7.9201919,0,0,-7.9201919,-1256.7966,1112.948)"
         id="g6294">
        <g
           clip-path="url(#clipPath6298)"
           id="g6296">
          <g
             transform="translate(219.6857,90.0076)"
             id="g6302">
            <path
               inkscape:connector-curvature="0"
               id="path6304"
               style="fill:#141006;fill-opacity:1;fill-rule:nonzero;stroke:none"
               d="m 0,0 -1.608,-3.144 -0.048,-0.093 0.046,-0.092 c 0.739,-1.485 1.739,-2.89 2.914,-4.029 1.094,-1.061 2.34,-1.893 3.67,-2.348 0.498,-0.17 1.51,-0.337 2.435,-0.362 0.72,-0.019 1.399,0.051 1.775,0.274 0.06,0.036 0.112,0.078 0.155,0.127 0.048,0.055 0.082,0.118 0.1,0.189 l 0.007,0.059 c -0.01,0.231 -0.252,0.281 -0.66,0.367 -0.34,0.071 -0.834,0.174 -1.404,0.387 -1.969,0.733 -3.627,2.672 -4.839,4.535 -1.221,1.877 -1.987,3.678 -2.169,4.116 L 0.203,0.397 0,0 z" />
          </g>
        </g>
      </g>
      <g
         transform="matrix(7.9201919,0,0,-7.9201919,-1256.7966,1112.948)"
         id="g6306">
        <g
           clip-path="url(#clipPath6310)"
           id="g6308">
          <g
             transform="translate(218.4918,86.7702)"
             id="g6314">
            <path
               inkscape:connector-curvature="0"
               id="path6316"
               style="fill:#bec0c2;fill-opacity:1;fill-rule:evenodd;stroke:none"
               d="M 0,0 1.36,2.659 C 1.691,1.908 2.39,0.422 3.391,-1.117 4.641,-3.039 6.363,-5.043 8.432,-5.814 8.853,-5.971 9.453,-6.153 9.934,-6.229 10.017,-6.242 10.075,-6.254 9.939,-6.296 9.51,-6.42 9.059,-6.43 8.612,-6.418 7.728,-6.395 6.769,-6.237 6.301,-6.077 5.031,-5.644 3.837,-4.845 2.785,-3.825 1.67,-2.743 0.715,-1.411 0,0" />
          </g>
        </g>
      </g>
      <g
         transform="matrix(7.9201919,0,0,-7.9201919,-1256.7966,1112.948)"
         id="g6318">
        <g
           clip-path="url(#clipPath6322)"
           id="g6320">
          <g
             transform="translate(219.302,87.2169)"
             id="g6326">
            <path
               inkscape:connector-curvature="0"
               id="path6328"
               style="fill:#ffffff;fill-opacity:1;fill-rule:evenodd;stroke:none"
               d="M 0,0 C 1.326,-2.178 3.789,-5.562 6.74,-6.423 7.457,-6.633 8.043,-6.69 8.384,-6.74 8.453,-6.748 8.538,-6.731 8.392,-6.706 8.049,-6.634 7.566,-6.528 7.008,-6.32 3.93,-5.173 1.617,-1.194 0.528,1.023 L 0,0 z" />
          </g>
        </g>
      </g>
      <g
         transform="matrix(7.9201919,0,0,-7.9201919,-1256.7966,1112.948)"
         id="g6330">
        <g
           clip-path="url(#clipPath6334)"
           id="g6332">
          <g
             transform="translate(214.2413,80.5377)"
             id="g6338">
            <path
               inkscape:connector-curvature="0"
               id="path6340"
               style="fill:#141006;fill-opacity:1;fill-rule:evenodd;stroke:none"
               d="m 0,0 -5.184,10.038 c 3.418,1.058 6.95,1.058 10.368,0 L 0,0 z m -10.259,19.867 -1.852,3.587 12.111,2.738 12.111,-2.738 -1.852,-3.587 -20.518,0 z" />
          </g>
        </g>
      </g>
      <g
         transform="matrix(7.9201919,0,0,-7.9201919,-1256.7966,1112.948)"
         id="g6342">
        <g
           clip-path="url(#clipPath6346)"
           id="g6344">
          <g
             transform="translate(214.2477,106.0628)"
             id="g6350">
            <path
               inkscape:connector-curvature="0"
               id="path6352"
               style="fill:#a1a1a4;fill-opacity:1;fill-rule:evenodd;stroke:none"
               d="M 0,0 11.098,-2.421 -0.002,-23.792 -11.051,-2.421 0,0 z" />
          </g>
          <g
             transform="translate(214.2476,106.0628)"
             id="g6354">
            <path
               inkscape:connector-curvature="0"
               id="path6356"
               style="fill:#e6e7e8;fill-opacity:1;fill-rule:evenodd;stroke:none"
               d="M 0,0 0,-22.944 -10.64,-2.573 0,0 z" />
          </g>
          <g
             transform="translate(214.2477,106.0628)"
             id="g6358">
            <path
               inkscape:connector-curvature="0"
               id="path6360"
               style="fill:#141006;fill-opacity:1;fill-rule:evenodd;stroke:none"
               d="M 0,0 9.724,-2.77 -0.001,-20.326 -9.677,-2.77 0,0 z" />
          </g>
          <g
             transform="translate(214.2443,105.7526)"
             id="g6362">
            <path
               inkscape:connector-curvature="0"
               id="path6364"
               style="fill:#807f83;fill-opacity:1;fill-rule:evenodd;stroke:none"
               d="M 0,0 -9.205,-2.678 0.013,-18.794 0,0 z" />
          </g>
        </g>
      </g>
      <g
         transform="matrix(7.9201919,0,0,-7.9201919,-1256.7966,1112.948)"
         id="g6366">
        <g
           clip-path="url(#clipPath6370)"
           id="g6368">
          <g
             transform="translate(197.7411,99.385)"
             id="g6374">
            <path
               inkscape:connector-curvature="0"
               id="path6376"
               style="fill:#7f3f98;fill-opacity:1;fill-rule:evenodd;stroke:none"
               d="m 0,0 7.28,-9.588 c 5.925,3.431 12.516,3.431 18.441,0 L 33.001,0 0,0 z" />
          </g>
          <g
             transform="translate(196.6564,99.9218)"
             id="g6378">
            <path
               inkscape:connector-curvature="0"
               id="path6380"
               style="fill:#141006;fill-opacity:1;fill-rule:nonzero;stroke:none"
               d="m 0,0 35.17,0 -4.48,-5.901 3.681,4.145 1.184,0 -8.602,-9.067 -0.01,-0.01 -0.001,-10e-4 c -1.138,0.603 -2.171,1.12 -3.127,1.55 -4.121,1.615 -8.34,1.615 -12.461,-10e-4 -0.96,-0.431 -1.995,-0.95 -3.137,-1.555 l -8.602,9.084 1.184,0 3.681,-4.145 C 2.987,-3.934 1.493,-1.967 0,0 m 1.085,-0.537 7.279,-9.588 c 5.925,3.431 12.517,3.431 18.442,0 l 7.279,9.588 -33,0 z" />
          </g>
          <g
             transform="translate(205.0638,90.4933)"
             id="g6382">
            <path
               inkscape:connector-curvature="0"
               id="path6384"
               style="fill:#00b6de;fill-opacity:1;fill-rule:nonzero;stroke:none"
               d="m 0,0 -6.058,8.23 -0.115,0.155 0.194,0 30.314,0 0.193,0 L 24.413,8.23 18.355,0 18.307,-0.065 18.234,-0.031 C 14.951,1.537 12.063,2.321 9.178,2.321 6.292,2.321 3.404,1.537 0.121,-0.031 L 0.048,-0.065 0,0 z M -5.786,8.19 0.11,0.181 c 3.28,1.557 6.173,2.335 9.068,2.335 2.895,0 5.788,-0.778 9.068,-2.335 l 5.895,8.009 -29.927,0 z" />
          </g>
          <g
             transform="translate(205.591,91.4453)"
             id="g6386">
            <path
               inkscape:connector-curvature="0"
               id="path6388"
               style="fill:#141006;fill-opacity:1;fill-rule:nonzero;stroke:none"
               d="M 0,0 C -0.866,1.833 -1.704,3.449 -2.66,5.232 L -3.807,5.193 -4.6,6.506 -3.887,6.509 -3.374,5.574 -2.268,5.61 0.128,0.48 C 0.359,0.596 0.601,0.713 0.849,0.821 L 0.988,0.507 0,0 z m -0.371,5.699 0.163,-0.347 -0.598,-0.03 -0.145,0.356 0.58,0.021 z M 15.741,5.542 C 15.857,5.847 15.723,5.82 15.449,5.828 L 14.991,4.556 c 0.2,-0.02 0.348,-0.076 0.43,0.157 l 0.32,0.829 z M -0.343,6.517 0.037,6.518 1.577,2.272 C 1.959,1.285 2.068,1.22 3.085,1.536 3.495,1.664 3.782,1.775 3.939,1.889 3.934,1.766 3.911,1.67 3.867,1.605 3.728,1.403 2.975,1.105 2.429,1.002 1.717,0.869 1.626,1.265 1.341,1.943 l -1.516,3.763 0.15,0.005 C -0.133,5.98 -0.236,6.248 -0.343,6.517 M 2.689,2.429 2.472,3.125 C 2.142,4.261 1.808,5.393 1.453,6.522 L 1.863,6.523 2.952,2.645 C 2.973,2.533 3.034,2.405 2.858,2.363 2.773,2.343 2.723,2.375 2.689,2.429 M 4.036,3.6 4.36,3.632 4.493,2.907 C 4.67,1.921 5.067,2.043 5.945,2.174 6.339,2.233 6.609,2.277 6.753,2.32 6.858,2.351 6.938,2.391 7,2.44 6.998,2.424 6.995,2.408 6.992,2.394 6.975,2.317 6.934,2.251 6.889,2.192 6.823,2.106 6.717,2.04 6.574,1.995 6.324,1.917 5.609,1.79 5.112,1.774 4.52,1.756 4.359,2.115 4.246,2.612 L 4.036,3.6 z M 5.813,2.894 C 5.787,3.111 5.768,3.327 5.742,3.543 5.73,3.635 5.702,3.7 5.66,3.741 5.639,3.761 5.609,3.782 5.569,3.802 L 5.548,3.968 5.198,3.933 C 4.976,4.007 4.754,4.082 4.534,4.152 4.315,4.223 4.155,4.317 4.035,4.446 3.915,4.575 3.791,4.753 3.741,4.978 3.699,5.169 3.654,5.358 3.612,5.55 3.517,5.986 3.551,6.266 3.712,6.382 3.778,6.43 3.91,6.467 4.083,6.495 L 4.081,6.494 C 3.919,6.382 3.88,6.117 3.964,5.701 L 4.074,5.157 C 4.116,4.944 4.189,4.777 4.302,4.653 4.413,4.532 4.57,4.438 4.778,4.372 l 0.89,-0.29 C 5.769,4.05 5.839,4.016 5.874,3.98 5.91,3.942 5.933,3.879 5.942,3.792 5.966,3.572 5.988,3.353 6.011,3.135 6.023,3.004 6.024,2.917 5.853,2.897 5.839,2.895 5.826,2.894 5.813,2.894 M 6.999,5.134 7.021,4.768 6.427,4.749 5.675,4.995 C 5.626,5.011 5.584,5.027 5.55,5.044 L 5.488,5.578 C 5.48,5.667 5.456,5.729 5.419,5.759 5.396,5.777 5.363,5.79 5.321,5.796 5.323,5.837 5.332,5.868 5.347,5.888 5.374,5.922 5.426,5.938 5.495,5.939 5.571,5.941 5.629,5.927 5.663,5.899 5.697,5.87 5.717,5.812 5.726,5.727 L 5.797,5.095 6.999,5.134 z M 8.974,2.792 8.943,2.07 7.655,2.04 7.584,6.512 l 0.028,0 0.067,-4.13 c 0.364,0.01 0.727,0.02 1.093,0.029 L 8.861,4.434 9.327,2.393 10.431,2.324 10.513,1.977 9.109,2.052 8.974,2.792 z M 8.961,6.486 9.122,6.483 9.061,5.416 8.887,4.937 8.961,6.486 z m 1.893,0.03 0.027,0 L 9.992,4.664 9.98,4.721 10.854,6.516 z m 0.145,-4.569 0.057,0.311 C 11.555,2.191 12.045,2.113 12.525,2.021 12.567,2.18 12.609,2.34 12.648,2.5 L 12.919,2.458 12.7,1.669 10.999,1.947 z m 2.715,4.578 0.429,10e-4 -0.31,-1 -0.786,0.012 -0.15,-0.587 -0.38,0.022 0.214,0.935 0.809,-0.02 0.174,0.637 z M 13.235,4.751 13.59,4.733 13.321,3.789 12.622,3.847 12.362,2.823 12.047,2.87 12.35,4.242 13.082,4.178 13.235,4.751 z m -0.05,-3.187 0.094,0.289 c 0.24,-0.06 0.476,-0.126 0.711,-0.191 L 14.663,3.63 14.732,3.62 C 14.839,3.603 14.903,3.575 14.925,3.535 14.949,3.492 14.943,3.419 14.905,3.314 L 14.279,1.58 14.318,1.567 14.21,1.285 13.185,1.564 z m 3.93,4.933 C 17.478,6.468 17.704,6.408 17.791,6.318 17.851,6.257 17.869,6.159 17.848,6.023 17.76,5.889 17.674,5.726 17.58,5.528 17.445,5.243 17.194,4.789 17.129,4.439 16.995,4.205 16.875,4.042 16.769,3.951 16.62,3.824 16.43,3.741 16.185,3.698 16.354,3.609 16.455,3.493 16.473,3.345 16.482,3.268 16.469,3.172 16.437,3.059 L 16.067,2.225 C 16.025,2.131 15.988,2.042 15.957,1.959 l -0.084,-0.186 -0.415,-0.92 -0.96,0.345 c 0.034,0.091 0.069,0.182 0.103,0.273 l 0.647,-0.219 0.73,1.749 c 0.116,0.27 0.163,0.475 0.137,0.616 -0.025,0.14 -0.132,0.252 -0.302,0.336 0.236,0.041 0.418,0.117 0.556,0.239 0.271,0.238 0.552,0.958 0.715,1.323 0.217,0.485 0.262,0.794 0.124,0.922 -0.022,0.022 -0.053,0.042 -0.093,0.06 M 17.553,2.911 C 17.659,2.888 17.766,2.865 17.872,2.842 17.859,2.815 17.844,2.787 17.829,2.757 L 17.361,1.863 C 17.311,1.757 17.219,1.564 17.069,1.62 c -0.144,0.053 -0.04,0.251 0.005,0.341 0.158,0.316 0.317,0.633 0.479,0.95 m 3.255,3.633 C 21.485,6.496 21.916,6.274 21.449,5.58 L 20.361,3.962 19.158,4.108 c 0.061,0.1 0.134,0.224 0.212,0.354 0.197,-0.023 0.394,-0.046 0.592,-0.069 l 0.826,1.34 c 0.217,0.347 0.273,0.59 0.155,0.726 -0.028,0.033 -0.075,0.061 -0.135,0.085 M 19.002,4.506 C 18.982,4.458 18.972,4.417 18.973,4.384 18.974,4.325 19.005,4.263 19.065,4.192 19.217,4.012 19.37,3.826 19.515,3.634 19.631,3.48 19.665,3.306 19.634,3.118 19.597,2.928 19.479,2.686 19.285,2.384 L 18.067,0.442 C 17.763,0.011 17.28,-0.033 16.791,0.217 c -0.433,0.218 -0.705,0.411 -0.749,0.604 -0.01,0.043 -0.013,0.092 -0.01,0.149 0.129,-0.103 0.316,-0.209 0.561,-0.322 0.512,-0.236 0.799,-0.414 1.205,0.126 0.076,0.101 0.181,0.259 0.305,0.477 l 0.842,1.454 c 0.167,0.282 0.262,0.515 0.28,0.695 0.02,0.178 -0.03,0.343 -0.155,0.488 -0.157,0.183 -0.316,0.359 -0.481,0.531 -0.151,0.157 -0.113,0.261 -0.018,0.44 l 0.298,0.558 c 0.075,0.141 0.165,0.288 0.346,0.279 0.214,-0.01 0.102,-0.189 0.038,-0.305 L 18.777,4.533 19.002,4.506 z" />
          </g>
          <g
             transform="translate(203.3672,97.0758)"
             id="g6390">
            <path
               inkscape:connector-curvature="0"
               id="path6392"
               style="fill:#ffffff;fill-opacity:1;fill-rule:nonzero;stroke:none"
               d="m 0,0 2.374,-5.085 c 0.126,0.063 0.254,0.125 0.383,0.186 0.133,0.062 0.267,0.122 0.401,0.178 L 1.228,0.03 1.202,0.094 1.272,0.096 2.128,0.127 C 2.075,0.261 2.024,0.391 1.973,0.521 1.917,0.664 1.86,0.808 1.805,0.946 L 0.181,0.944 -1.643,0.942 -1.122,-0.007 -0.045,0.028 -0.013,0.029 0,0 z M 3.607,0.949 2.29,0.947 3.846,-3.342 c 0.186,-0.481 0.305,-0.737 0.492,-0.83 0.187,-0.092 0.46,-0.03 0.956,0.124 0.256,0.08 0.464,0.153 0.62,0.223 0.151,0.069 0.253,0.135 0.304,0.201 0.05,0.067 0.079,0.166 0.085,0.299 0.007,0.139 -0.01,0.314 -0.053,0.525 l 0,0 L 5.44,0.952 4.121,0.95 5.223,-2.973 5.224,-2.977 c 0.002,-0.013 0.006,-0.03 0.01,-0.047 l 0,0 C 5.262,-3.145 5.291,-3.268 5.093,-3.314 4.996,-3.337 4.933,-3.306 4.888,-3.25 4.849,-3.201 4.828,-3.135 4.809,-3.071 4.614,-2.396 4.418,-1.722 4.215,-1.04 4.019,-0.379 3.817,0.283 3.607,0.949 m 4.123,-2.664 -1.129,-0.112 0.163,-0.888 0,0 c 0.159,-0.883 0.507,-0.83 1.252,-0.715 0.043,0.006 0.087,0.013 0.146,0.022 0.196,0.029 0.361,0.055 0.496,0.078 0.134,0.024 0.236,0.045 0.306,0.066 0.177,0.052 0.279,0.132 0.335,0.238 0.058,0.11 0.07,0.251 0.062,0.422 L 9.318,-1.629 C 9.314,-1.538 9.3,-1.456 9.276,-1.385 9.253,-1.317 9.22,-1.259 9.178,-1.211 9.133,-1.161 9.073,-1.115 8.997,-1.073 8.92,-1.029 8.826,-0.99 8.716,-0.953 l 0,0 -0.832,0.271 0,0 c -0.055,0.018 -0.102,0.037 -0.14,0.056 -0.041,0.021 -0.073,0.043 -0.096,0.067 -0.024,0.024 -0.045,0.056 -0.061,0.095 -0.014,0.035 -0.025,0.075 -0.031,0.121 -0.017,0.139 -0.025,0.204 -0.033,0.265 L 7.503,0.079 C 7.496,0.124 7.495,0.162 7.499,0.194 7.503,0.233 7.515,0.264 7.533,0.287 7.552,0.311 7.579,0.329 7.612,0.34 l 0,0 C 7.642,0.351 7.678,0.356 7.718,0.357 7.76,0.358 7.798,0.355 7.83,0.347 7.865,0.339 7.895,0.325 7.918,0.305 7.941,0.285 7.96,0.256 7.973,0.22 l 0,0 C 7.985,0.187 7.993,0.148 7.998,0.102 L 8.064,-0.485 9.27,-0.446 9.229,0.405 C 9.224,0.512 9.198,0.602 9.15,0.675 9.102,0.748 9.032,0.806 8.937,0.847 8.728,0.94 8.104,0.99 7.511,0.984 6.983,0.979 6.483,0.929 6.332,0.824 6.263,0.776 6.219,0.692 6.202,0.574 6.183,0.447 6.195,0.283 6.235,0.08 l 0.11,-0.544 0,0 c 0.021,-0.103 0.048,-0.195 0.084,-0.275 0.036,-0.08 0.08,-0.148 0.133,-0.206 0.052,-0.057 0.115,-0.108 0.19,-0.152 0.075,-0.045 0.163,-0.084 0.264,-0.116 l 0.001,0 0.89,-0.289 0,0 C 7.96,-1.519 8.004,-1.537 8.041,-1.555 8.08,-1.574 8.111,-1.595 8.132,-1.617 8.155,-1.641 8.173,-1.672 8.187,-1.71 8.2,-1.745 8.209,-1.786 8.214,-1.834 c 0.015,-0.138 0.03,-0.284 0.045,-0.43 l 0.024,-0.227 0,0 C 8.29,-2.564 8.293,-2.625 8.268,-2.677 8.241,-2.733 8.188,-2.769 8.083,-2.782 8.045,-2.786 8.012,-2.785 7.983,-2.778 7.951,-2.77 7.924,-2.755 7.903,-2.732 l -10e-4,0 c -0.018,0.019 -0.034,0.047 -0.047,0.081 l 0,0 C 7.844,-2.62 7.836,-2.583 7.831,-2.541 7.806,-2.34 7.781,-2.14 7.757,-1.94 L 7.73,-1.715 z m 3.22,-1.458 0.113,2.223 0.526,-2.242 1.045,-0.065 -0.478,2.337 0.004,0.031 0.897,1.843 -1.295,0 -0.691,-1.773 0.07,1.773 -1.258,0 0.067,-4.153 c 0.166,0.005 0.331,0.009 0.497,0.014 0.167,0.004 0.334,0.008 0.503,0.012 m 2.797,4.127 -0.684,-4.25 c 0.276,-0.035 0.553,-0.074 0.832,-0.117 0.277,-0.043 0.551,-0.09 0.819,-0.141 0.028,0.107 0.056,0.217 0.085,0.33 0.027,0.107 0.053,0.215 0.079,0.323 l -0.614,0.092 -0.051,0.008 0.011,0.051 0.302,1.371 0.009,0.042 0.043,-0.004 0.691,-0.06 0.175,0.654 -0.705,0.041 -0.058,0.004 0.013,0.055 0.214,0.935 0.008,0.039 0.04,-0.001 0.771,-0.02 0.176,0.646 -2.156,0.002 z m 4.214,-0.733 c 0.103,-0.039 0.127,-0.122 0.049,-0.327 l 0,0 -0.32,-0.828 0,0 c -0.084,-0.239 -0.221,-0.221 -0.405,-0.197 -0.023,0.003 -0.047,0.006 -0.075,0.008 l -0.061,0.007 0.021,0.058 0.457,1.272 0.012,0.033 0.035,-0.001 C 17.7,0.245 17.722,0.245 17.743,0.244 17.835,0.243 17.908,0.241 17.961,0.221 m -1.376,0.731 -1.341,-4.619 c 0.158,-0.035 0.315,-0.074 0.471,-0.116 0.155,-0.04 0.311,-0.083 0.467,-0.127 l 0.659,1.925 0.013,0.039 0.04,-0.006 0.069,-0.011 0,0 c 0.058,-0.009 0.104,-0.021 0.14,-0.037 0.043,-0.018 0.072,-0.042 0.088,-0.072 l 0,0 c 0.017,-0.03 0.023,-0.068 0.019,-0.115 -0.004,-0.041 -0.016,-0.089 -0.036,-0.146 l -0.609,-1.687 0.88,-0.298 0.712,1.707 0,0 c 0.057,0.133 0.097,0.249 0.119,0.348 0.022,0.097 0.027,0.177 0.015,0.241 -0.01,0.06 -0.039,0.114 -0.082,0.162 -0.107,0.119 -0.239,0.155 -0.382,0.208 0.182,0.02 0.332,0.034 0.505,0.108 0.088,0.037 0.164,0.084 0.229,0.142 0.221,0.195 0.456,0.737 0.62,1.116 0.031,0.072 0.059,0.138 0.082,0.19 0.107,0.238 0.172,0.433 0.192,0.582 0.019,0.137 0.001,0.232 -0.056,0.285 l -0.001,0.001 c -0.058,0.056 -0.188,0.1 -0.386,0.13 -0.21,0.032 -0.491,0.047 -0.841,0.048 L 17.08,0.951 16.585,0.952 z m 3.222,-3.505 -0.995,0.203 -0.477,-1.075 0,0 c -0.106,-0.236 -0.176,-0.436 -0.214,-0.598 -0.038,-0.162 -0.043,-0.285 -0.018,-0.371 0.024,-0.082 0.096,-0.165 0.215,-0.254 0.124,-0.092 0.297,-0.188 0.519,-0.291 l 0,0 0.085,-0.039 0,0 c 0.437,-0.205 0.701,-0.328 1.061,0.15 0.04,0.053 0.088,0.122 0.143,0.208 0.047,0.073 0.1,0.161 0.159,0.264 l 0,0 0.842,1.454 0,0.001 c 0.082,0.139 0.147,0.266 0.192,0.38 0.046,0.111 0.073,0.21 0.081,0.295 l 0,10e-4 c 0.01,0.083 0.003,0.163 -0.021,0.238 l 0,0 c -0.024,0.075 -0.065,0.146 -0.122,0.213 -0.08,0.093 -0.159,0.183 -0.237,0.269 -0.078,0.087 -0.159,0.173 -0.242,0.26 -0.085,0.089 -0.118,0.165 -0.115,0.247 0.003,0.077 0.038,0.154 0.089,0.249 l 0.298,0.558 c 0.04,0.074 0.083,0.15 0.142,0.208 0.064,0.062 0.143,0.102 0.249,0.097 0.134,-0.007 0.175,-0.067 0.171,-0.148 -0.004,-0.069 -0.047,-0.147 -0.083,-0.211 l 0,0 -0.01,-0.018 -0.441,-0.795 c 0.173,-0.021 0.347,-0.041 0.52,-0.062 0.193,-0.023 0.381,-0.045 0.563,-0.066 l 0.81,1.314 0,0 c 0.106,0.169 0.172,0.311 0.197,0.427 0.023,0.105 0.011,0.186 -0.037,0.242 C 23.056,0.883 22.835,0.932 22.57,0.958 22.135,1 21.588,0.978 21.347,0.959 20.909,0.926 20.63,0.858 20.415,0.699 20.199,0.54 20.041,0.285 19.847,-0.123 19.821,-0.178 19.79,-0.241 19.756,-0.309 c -0.164,-0.331 -0.383,-0.774 -0.37,-1.06 0.004,-0.077 0.022,-0.148 0.055,-0.216 0.033,-0.068 0.08,-0.133 0.14,-0.196 0.093,-0.096 0.182,-0.194 0.268,-0.292 l -0.001,0 c 0.089,-0.102 0.173,-0.203 0.255,-0.302 0.078,-0.096 0.101,-0.181 0.091,-0.267 -0.01,-0.082 -0.05,-0.161 -0.099,-0.254 l 0,0 -0.467,-0.892 0,-0.001 c -0.026,-0.055 -0.063,-0.133 -0.116,-0.193 l 0,0 c -0.06,-0.069 -0.138,-0.111 -0.236,-0.074 -0.133,0.05 -0.118,0.175 -0.077,0.287 0.016,0.043 0.037,0.084 0.052,0.114 l 0,0 0.003,0.007 0,0 0.01,0.02 c 0.181,0.362 0.362,0.722 0.543,1.075" />
          </g>
          <g
             transform="translate(205.6748,91.9052)"
             id="g6394">
            <path
               inkscape:connector-curvature="0"
               id="path6396"
               style="fill:#00b6de;fill-opacity:1;fill-rule:nonzero;stroke:none"
               d="M 0,0 -2.382,5.101 -3.456,5.066 -3.486,5.065 -3.5,5.091 l -0.574,1.046 -0.04,0.072 0.082,0 1.906,0.002 1.656,0.003 0.033,0 0.012,-0.031 c 0.063,-0.157 0.122,-0.307 0.181,-0.456 0.06,-0.155 0.121,-0.31 0.18,-0.458 L -0.038,5.206 -0.107,5.203 -0.963,5.173 0.958,0.442 0.976,0.397 0.932,0.379 C 0.781,0.317 0.634,0.251 0.49,0.184 0.345,0.116 0.203,0.046 0.065,-0.023 L 0.021,-0.045 0,0 z M -2.308,5.171 0.067,0.086 C 0.192,0.148 0.32,0.211 0.449,0.271 0.582,0.333 0.716,0.393 0.85,0.45 l -1.929,4.75 -0.026,0.064 0.069,0.003 0.857,0.03 C -0.233,5.432 -0.284,5.561 -0.335,5.691 -0.391,5.835 -0.447,5.979 -0.503,6.117 L -2.126,6.115 -3.95,6.112 l 0.521,-0.949 1.076,0.035 0.032,10e-4 0.013,-0.028 z m 2.222,1.043 1.421,0.002 0.036,0 0.011,-0.033 C 1.593,5.513 1.798,4.837 2,4.158 2.2,3.488 2.397,2.809 2.595,2.127 2.61,2.072 2.628,2.016 2.656,1.981 2.678,1.953 2.711,1.938 2.763,1.951 c 0.104,0.024 0.086,0.1 0.069,0.174 l 0,0 C 2.828,2.141 2.825,2.156 2.822,2.173 l -1.119,3.982 -0.017,0.062 0.064,0 1.421,0.002 0.039,0 0.008,-0.038 0.819,-3.79 0,-10e-4 C 4.081,2.17 4.099,1.988 4.092,1.841 4.085,1.688 4.05,1.571 3.988,1.489 3.927,1.408 3.812,1.333 3.646,1.258 3.486,1.185 3.275,1.111 3.015,1.03 2.494,0.868 2.205,0.805 1.988,0.912 1.771,1.02 1.644,1.29 1.448,1.794 l 0,10e-4 -1.579,4.354 -0.024,0.065 0.069,0 z M 1.3,6.12 -0.017,6.118 1.538,1.828 C 1.725,1.347 1.843,1.091 2.03,0.999 2.217,0.906 2.49,0.968 2.986,1.123 3.242,1.202 3.45,1.275 3.607,1.346 3.758,1.415 3.86,1.48 3.91,1.547 3.961,1.613 3.989,1.712 3.996,1.845 4.002,1.985 3.985,2.159 3.943,2.37 l 0,0 L 3.132,6.122 1.814,6.12 2.915,2.198 2.916,2.194 C 2.919,2.18 2.922,2.164 2.926,2.147 l 0,0 C 2.955,2.026 2.983,1.903 2.785,1.856 2.689,1.834 2.626,1.864 2.581,1.92 2.541,1.969 2.52,2.036 2.502,2.1 2.307,2.774 2.11,3.449 1.908,4.131 1.711,4.791 1.51,5.454 1.3,6.12 M 4.232,3.434 5.46,3.556 5.507,3.561 5.513,3.514 5.546,3.243 C 5.57,3.042 5.595,2.842 5.619,2.641 5.624,2.606 5.63,2.576 5.639,2.552 l 0,0 C 5.647,2.531 5.655,2.515 5.665,2.505 l -0.001,0 C 5.673,2.496 5.685,2.49 5.699,2.487 5.716,2.482 5.738,2.482 5.764,2.485 5.83,2.493 5.861,2.51 5.873,2.536 5.888,2.565 5.884,2.613 5.879,2.67 l 0,0 -0.023,0.227 C 5.841,3.037 5.826,3.177 5.81,3.327 5.806,3.366 5.799,3.4 5.789,3.428 5.78,3.453 5.768,3.472 5.755,3.486 5.742,3.5 5.72,3.515 5.691,3.529 5.658,3.545 5.618,3.561 5.569,3.576 l 0,0 -0.889,0.29 0,0 C 4.572,3.9 4.477,3.941 4.395,3.99 4.312,4.039 4.242,4.096 4.183,4.16 4.123,4.226 4.073,4.303 4.034,4.392 3.994,4.48 3.964,4.578 3.942,4.688 l 10e-4,0 -0.11,0.544 C 3.79,5.446 3.779,5.621 3.799,5.759 3.82,5.905 3.877,6.01 3.97,6.074 4.138,6.191 4.658,6.246 5.203,6.251 5.807,6.258 6.447,6.204 6.669,6.106 6.781,6.057 6.865,5.988 6.923,5.899 6.981,5.811 7.012,5.705 7.018,5.58 L 7.061,4.68 7.064,4.631 7.014,4.629 5.715,4.587 5.671,4.586 5.666,4.63 5.594,5.262 C 5.59,5.301 5.584,5.333 5.575,5.357 l 0,10e-4 C 5.567,5.378 5.558,5.393 5.548,5.402 5.537,5.411 5.521,5.418 5.5,5.423 5.475,5.429 5.446,5.432 5.412,5.431 l 0,0 C 5.382,5.43 5.356,5.427 5.336,5.419 l 0,0 C 5.32,5.414 5.309,5.407 5.302,5.398 5.295,5.389 5.29,5.374 5.287,5.354 5.285,5.329 5.285,5.299 5.291,5.264 l 0,-0.001 0.02,-0.159 C 5.326,4.988 5.34,4.876 5.345,4.84 5.349,4.802 5.358,4.77 5.369,4.744 5.38,4.717 5.394,4.695 5.41,4.679 5.425,4.663 5.449,4.647 5.48,4.631 5.514,4.614 5.556,4.597 5.606,4.581 l 0.001,0 0.831,-0.272 0,0 C 6.554,4.271 6.654,4.229 6.737,4.182 6.822,4.135 6.89,4.082 6.942,4.024 6.993,3.966 7.033,3.896 7.06,3.816 7.087,3.737 7.103,3.647 7.107,3.546 L 7.15,2.571 C 7.158,2.384 7.144,2.227 7.077,2.1 7.009,1.97 6.888,1.874 6.683,1.814 6.609,1.792 6.503,1.769 6.367,1.745 6.233,1.722 6.066,1.696 5.868,1.667 5.826,1.66 5.773,1.652 5.722,1.644 4.914,1.52 4.537,1.462 4.362,2.438 l 0,0 -0.173,0.94 -0.01,0.051 0.053,0.005 z m 1.19,0.021 -1.129,-0.112 0.164,-0.888 0,0 C 4.615,1.572 4.963,1.626 5.708,1.74 5.751,1.747 5.796,1.754 5.854,1.762 6.05,1.792 6.215,1.817 6.351,1.841 6.484,1.864 6.586,1.886 6.656,1.906 6.833,1.959 6.936,2.038 6.992,2.145 7.049,2.254 7.061,2.396 7.054,2.566 L 7.01,3.542 C 7.006,3.633 6.992,3.714 6.968,3.785 6.945,3.853 6.912,3.912 6.87,3.96 6.826,4.01 6.765,4.056 6.69,4.098 6.612,4.141 6.518,4.181 6.408,4.217 l 0,0 -0.831,0.272 0,0 C 5.521,4.507 5.475,4.525 5.437,4.545 5.395,4.566 5.363,4.588 5.341,4.611 5.317,4.636 5.296,4.668 5.28,4.707 5.265,4.741 5.254,4.782 5.249,4.828 5.231,4.967 5.223,5.032 5.215,5.092 L 5.196,5.25 C 5.189,5.294 5.187,5.333 5.191,5.365 5.196,5.403 5.208,5.435 5.226,5.457 5.244,5.482 5.271,5.499 5.304,5.511 l 0,0 C 5.334,5.521 5.37,5.527 5.41,5.527 5.453,5.528 5.49,5.525 5.522,5.518 5.557,5.509 5.587,5.495 5.61,5.476 5.634,5.456 5.652,5.427 5.666,5.39 l 0,0 C 5.677,5.358 5.685,5.318 5.691,5.273 L 5.757,4.685 6.962,4.724 6.921,5.575 C 6.916,5.682 6.89,5.773 6.842,5.846 6.794,5.919 6.724,5.976 6.63,6.018 6.42,6.11 5.796,6.161 5.203,6.155 4.675,6.149 4.176,6.099 4.025,5.995 3.955,5.946 3.912,5.863 3.894,5.745 3.876,5.618 3.887,5.453 3.928,5.251 l 0.109,-0.544 0,0 C 4.058,4.603 4.086,4.512 4.122,4.431 4.157,4.352 4.201,4.283 4.254,4.225 4.306,4.169 4.369,4.118 4.444,4.074 4.52,4.029 4.608,3.99 4.709,3.958 l 0,0 0.89,-0.29 0,0 C 5.652,3.651 5.697,3.634 5.733,3.616 5.773,3.596 5.803,3.575 5.825,3.553 5.848,3.53 5.866,3.499 5.88,3.461 5.893,3.426 5.902,3.384 5.907,3.337 5.921,3.199 5.937,3.052 5.952,2.906 l 0.023,-0.226 0,-0.001 C 5.982,2.607 5.986,2.545 5.961,2.494 5.934,2.438 5.88,2.401 5.775,2.389 5.738,2.384 5.705,2.386 5.676,2.393 5.644,2.401 5.617,2.416 5.595,2.438 l 0,0 C 5.576,2.458 5.56,2.485 5.548,2.52 l 0,0 C 5.537,2.55 5.528,2.587 5.523,2.63 5.498,2.83 5.474,3.031 5.449,3.231 L 5.422,3.455 z M 8.81,3.59 8.737,1.949 8.735,1.903 8.689,1.902 C 8.507,1.898 8.325,1.894 8.142,1.889 7.96,1.884 7.778,1.879 7.596,1.874 L 7.548,1.873 7.547,1.922 l -0.069,4.25 -10e-4,0.05 0.05,0 1.357,0 0.051,0 L 8.932,6.171 8.874,4.857 9.375,6.19 l 0.012,0.032 0.034,0 1.406,0 0.077,0 L 10.87,6.152 9.947,4.254 10.434,1.872 10.447,1.81 10.384,1.814 9.24,1.885 9.204,1.887 9.196,1.922 8.81,3.59 z M 8.642,1.998 8.755,4.221 9.282,1.979 10.327,1.914 9.849,4.251 l 0.004,0.031 0.896,1.843 -1.295,0 -0.691,-1.773 0.07,1.773 -1.257,0 0.067,-4.153 C 7.808,1.976 7.974,1.981 8.14,1.985 8.306,1.99 8.473,1.994 8.642,1.998 m 2.01,-0.157 0.699,4.339 0.007,0.041 0.041,0 2.26,-0.002 0.063,0 L 13.706,6.159 13.502,5.415 13.492,5.379 13.455,5.38 12.686,5.399 12.493,4.558 13.202,4.517 13.261,4.513 13.246,4.456 13.045,3.705 13.034,3.666 12.994,3.67 12.304,3.73 12.021,2.45 12.637,2.358 12.688,2.35 12.677,2.299 C 12.647,2.174 12.617,2.048 12.585,1.923 12.555,1.802 12.522,1.676 12.488,1.548 L 12.476,1.505 12.432,1.513 c -0.285,0.055 -0.571,0.105 -0.859,0.149 -0.286,0.045 -0.58,0.085 -0.879,0.123 l -0.05,0.006 0.008,0.05 z M 11.44,6.124 10.755,1.875 c 0.276,-0.035 0.554,-0.074 0.832,-0.117 0.278,-0.043 0.551,-0.09 0.819,-0.141 0.028,0.107 0.057,0.216 0.085,0.33 0.027,0.107 0.054,0.215 0.079,0.323 l -0.614,0.092 -0.051,0.008 0.011,0.05 0.303,1.372 0.009,0.042 0.042,-0.004 0.692,-0.06 0.175,0.654 -0.706,0.041 -0.057,0.003 0.012,0.056 0.214,0.935 0.009,0.038 0.039,-10e-4 0.771,-0.019 0.177,0.646 -2.156,10e-4 z m 4.172,-1.025 c 0.052,0.136 0.049,0.187 0.008,0.202 -0.038,0.014 -0.104,0.016 -0.186,0.018 l -0.035,0 -0.425,-1.182 0.016,-0.002 c 0.139,-0.018 0.243,-0.031 0.302,0.134 l 0,10e-4 0.32,0.829 z m 0.042,0.293 C 15.757,5.353 15.78,5.269 15.703,5.065 l 0,-0.001 -0.32,-0.827 0,0 C 15.299,3.998 15.161,4.016 14.977,4.039 14.955,4.042 14.931,4.045 14.903,4.048 l -0.062,0.006 0.021,0.058 0.458,1.273 0.012,0.033 0.035,-0.001 c 0.025,-10e-4 0.047,-10e-4 0.068,-0.002 0.093,-0.002 0.166,-0.003 0.219,-0.023 m -2.824,-3.911 1.365,4.703 0.01,0.035 0.036,0 0.532,-0.001 1.091,-0.001 C 16.219,6.216 16.505,6.2 16.718,6.168 16.937,6.135 17.085,6.083 17.158,6.012 17.239,5.936 17.266,5.813 17.243,5.643 17.221,5.485 17.155,5.282 17.044,5.035 17.018,4.976 16.991,4.914 16.962,4.847 16.794,4.458 16.555,3.905 16.318,3.696 16.244,3.632 16.16,3.579 16.063,3.538 16.001,3.511 15.934,3.489 15.862,3.471 15.905,3.442 15.942,3.41 15.973,3.376 16.029,3.314 16.065,3.244 16.079,3.166 16.093,3.089 16.087,2.996 16.063,2.887 16.039,2.781 15.998,2.659 15.938,2.522 l 0,0 L 15.209,0.774 15.192,0.732 15.149,0.746 14.18,1.075 14.133,1.09 14.15,1.137 14.776,2.87 c 0.017,0.049 0.027,0.089 0.03,0.122 0.003,0.027 0,0.047 -0.007,0.06 l 0,0 c -0.006,0.01 -0.02,0.021 -0.042,0.03 -0.028,0.013 -0.067,0.023 -0.116,0.03 l 0,0 -0.029,0.004 -0.66,-1.929 -0.015,-0.044 -0.044,0.012 c -0.168,0.047 -0.336,0.094 -0.51,0.14 -0.169,0.044 -0.341,0.087 -0.517,0.126 l -0.051,0.011 0.015,0.049 z m 1.448,4.641 -1.341,-4.618 c 0.158,-0.036 0.315,-0.075 0.471,-0.116 0.155,-0.041 0.311,-0.084 0.467,-0.127 l 0.659,1.925 0.013,0.038 0.04,-0.006 0.068,-0.01 0.001,0 c 0.057,-0.009 0.104,-0.021 0.14,-0.037 0.042,-0.019 0.071,-0.043 0.088,-0.073 l 0,0 C 14.9,3.068 14.907,3.03 14.902,2.984 14.899,2.943 14.887,2.894 14.866,2.838 L 14.258,1.15 15.137,0.853 15.849,2.559 15.85,2.56 c 0.057,0.133 0.097,0.249 0.119,0.348 0.021,0.096 0.026,0.177 0.015,0.241 -0.011,0.059 -0.039,0.113 -0.083,0.162 -0.107,0.118 -0.238,0.155 -0.382,0.208 0.182,0.019 0.333,0.034 0.506,0.108 0.087,0.037 0.163,0.084 0.229,0.142 0.221,0.194 0.455,0.736 0.619,1.116 0.031,0.071 0.06,0.137 0.083,0.189 0.107,0.239 0.171,0.433 0.191,0.582 0.019,0.138 0.001,0.233 -0.055,0.286 l -10e-4,0 c -0.058,0.057 -0.188,0.1 -0.387,0.13 -0.21,0.032 -0.491,0.048 -0.84,0.048 l -1.091,0.002 -0.495,0 z M 16.486,2.923 17.582,2.699 17.644,2.687 17.615,2.63 C 17.417,2.245 17.23,1.873 17.043,1.499 l -0.01,-0.02 0,0 -0.003,-0.007 0,0.001 C 17.016,1.444 16.997,1.407 16.982,1.368 16.957,1.301 16.944,1.227 17.002,1.205 c 0.051,-0.019 0.094,0.007 0.13,0.047 l 0,0 c 0.043,0.05 0.077,0.121 0.101,0.171 l 0.001,0.002 0.468,0.895 0,0 c 0.044,0.084 0.08,0.154 0.088,0.22 0.007,0.06 -0.01,0.121 -0.07,0.194 -0.084,0.103 -0.168,0.204 -0.252,0.3 l 0,0 c -0.086,0.099 -0.174,0.195 -0.264,0.288 -0.067,0.07 -0.12,0.144 -0.158,0.222 -0.038,0.079 -0.06,0.163 -0.064,0.253 -0.014,0.312 0.211,0.767 0.38,1.108 0.033,0.065 0.063,0.127 0.09,0.184 0.201,0.422 0.366,0.688 0.598,0.859 0.232,0.171 0.526,0.243 0.983,0.278 0.242,0.019 0.796,0.042 1.239,-0.002 C 20.559,6.196 20.803,6.138 20.896,6.03 20.965,5.95 20.984,5.842 20.955,5.705 20.927,5.578 20.857,5.426 20.746,5.248 l 0,0 -0.827,-1.34 -0.016,-0.027 -0.03,0.004 C 19.668,3.909 19.47,3.932 19.279,3.954 19.082,3.978 18.885,4.001 18.688,4.025 l -0.072,0.009 0.035,0.063 0.476,0.858 0.01,0.018 0,0 c 0.031,0.055 0.068,0.122 0.07,0.168 C 19.209,5.166 19.19,5.185 19.128,5.188 19.054,5.192 18.998,5.163 18.952,5.118 18.903,5.07 18.863,5.001 18.828,4.934 L 18.53,4.376 C 18.485,4.292 18.454,4.227 18.452,4.169 18.45,4.115 18.475,4.061 18.54,3.993 18.622,3.908 18.703,3.82 18.784,3.73 18.866,3.64 18.945,3.55 19.022,3.46 19.089,3.382 19.136,3.3 19.164,3.213 l -0.001,0 C 19.192,3.124 19.2,3.031 19.189,2.935 l 0,0 C 19.18,2.841 19.15,2.733 19.102,2.613 19.054,2.495 18.987,2.364 18.903,2.221 l 0,0 -0.841,-1.454 0,0 C 18.004,0.666 17.95,0.576 17.9,0.498 17.843,0.41 17.794,0.339 17.753,0.285 17.346,-0.256 17.055,-0.12 16.573,0.105 l 0,0 -0.084,0.039 0,0 c -0.228,0.106 -0.407,0.205 -0.537,0.301 -0.135,0.101 -0.219,0.201 -0.249,0.305 -0.03,0.101 -0.026,0.241 0.016,0.419 0.039,0.168 0.112,0.373 0.22,0.616 l 0,0 0.493,1.11 0.016,0.036 0.038,-0.008 z M 17.5,2.617 16.505,2.821 16.027,1.746 l 0,0 C 15.922,1.509 15.851,1.31 15.813,1.147 15.775,0.985 15.77,0.862 15.796,0.777 15.82,0.695 15.892,0.611 16.01,0.523 16.134,0.431 16.308,0.335 16.53,0.232 l 0,0 0.084,-0.039 0,0 c 0.438,-0.205 0.702,-0.328 1.062,0.15 0.04,0.053 0.088,0.122 0.142,0.207 0.047,0.074 0.101,0.162 0.16,0.265 l 0,0 0.841,1.454 0.001,0 c 0.081,0.139 0.146,0.266 0.192,0.38 0.045,0.112 0.072,0.211 0.081,0.296 l 0,0.001 c 0.009,0.083 0.002,0.162 -0.022,0.238 l 0,0 c -0.024,0.074 -0.064,0.146 -0.122,0.213 -0.08,0.093 -0.158,0.182 -0.236,0.269 -0.079,0.086 -0.159,0.173 -0.243,0.26 -0.085,0.089 -0.117,0.165 -0.114,0.246 0.002,0.078 0.038,0.154 0.089,0.25 l 0.297,0.557 c 0.04,0.074 0.084,0.15 0.143,0.208 0.063,0.063 0.142,0.103 0.248,0.098 C 19.267,5.278 19.308,5.217 19.304,5.136 19.301,5.068 19.257,4.99 19.221,4.925 l 0,0 -0.01,-0.017 -0.441,-0.795 c 0.174,-0.021 0.347,-0.042 0.52,-0.062 0.193,-0.023 0.381,-0.045 0.563,-0.066 l 0.81,1.314 0,0 c 0.106,0.168 0.172,0.311 0.197,0.426 0.023,0.106 0.011,0.187 -0.037,0.242 -0.074,0.086 -0.295,0.135 -0.56,0.161 C 19.827,6.171 19.28,6.148 19.04,6.13 18.601,6.096 18.322,6.029 18.107,5.87 17.891,5.711 17.734,5.456 17.54,5.047 17.514,4.992 17.482,4.929 17.449,4.862 17.285,4.531 17.066,4.088 17.079,3.802 17.082,3.725 17.101,3.653 17.133,3.586 17.166,3.517 17.213,3.452 17.274,3.39 17.366,3.294 17.455,3.196 17.541,3.097 l 0,0 C 17.63,2.995 17.714,2.895 17.795,2.795 17.874,2.699 17.896,2.615 17.886,2.528 17.876,2.446 17.837,2.368 17.788,2.275 l 0,0 -0.467,-0.893 0,0 C 17.295,1.327 17.257,1.248 17.205,1.189 l 0,0 C 17.144,1.12 17.067,1.078 16.968,1.115 16.835,1.164 16.85,1.29 16.892,1.401 c 0.016,0.044 0.036,0.085 0.051,0.115 l 0,0 0.004,0.006 0,0 0.01,0.021 c 0.181,0.361 0.362,0.722 0.543,1.074" />
          </g>
          <g
             transform="translate(216.6208,93.8839)"
             id="g6398">
            <path
               inkscape:connector-curvature="0"
               id="path6400"
               style="fill:#a1a1a4;fill-opacity:1;fill-rule:nonzero;stroke:none"
               d="M 0,0 C 0.005,0.038 0.027,0.12 0.034,0.158 0.583,0.087 0.692,0.077 1.224,-0.024 L 1.294,0.221 1.452,0.203 C 1.394,-0.047 1.401,0.045 1.34,-0.205 0.766,-0.095 0.595,-0.074 0,0 M 2.478,4.033 2.366,3.641 1.541,3.661 1.315,2.681 1.178,2.688 1.433,3.804 2.262,3.783 l 0.067,0.25 0.149,0 z M 1.869,2.346 2.018,2.336 1.903,1.925 1.168,1.984 0.836,0.408 0.698,0.431 1.059,2.143 1.792,2.079 1.869,2.346 z M 4.816,3.531 C 4.692,3.582 4.377,3.575 4.292,3.578 L 3.781,2.195 3.626,2.214 C 3.787,2.634 4.025,3.286 4.177,3.71 4.303,3.706 4.663,3.728 4.816,3.531 M 2.161,-0.36 2.2,-0.23 2.76,-0.375 3.414,1.564 C 3.533,1.547 3.913,1.507 3.98,1.277 3.867,1.34 3.57,1.384 3.515,1.392 L 2.849,-0.542 2.161,-0.36 z M 5.922,3.229 C 5.759,2.867 5.478,2.14 5.207,1.907 5.085,1.798 4.925,1.724 4.722,1.681 4.676,1.725 4.617,1.764 4.544,1.798 4.783,1.839 4.962,1.916 5.103,2.038 5.368,2.267 5.656,3.003 5.812,3.361 5.944,3.652 5.985,3.773 5.985,3.936 6.167,3.829 5.991,3.383 5.922,3.229 M 4.727,1.342 C 4.98,1.215 4.911,0.93 4.797,0.659 L 4.117,-0.957 3.488,-0.749 3.54,-0.61 4.034,-0.774 C 4.273,-0.191 4.448,0.21 4.693,0.791 4.774,0.983 4.796,1.15 4.727,1.342 M 6.185,0.576 C 6.233,0.565 6.284,0.555 6.337,0.545 6.142,0.161 6.077,0.037 5.885,-0.347 5.838,-0.441 5.816,-0.513 5.809,-0.564 5.707,-0.418 5.735,-0.32 5.788,-0.216 5.964,0.134 6.009,0.226 6.185,0.576 M 9.637,3.461 8.831,2.163 8.067,2.243 8.162,2.398 8.736,2.338 9.505,3.592 C 9.622,3.779 9.66,3.866 9.678,3.993 9.87,3.873 9.728,3.607 9.637,3.461 M 8.408,3.382 C 8.266,3.433 8.007,3.47 7.871,3.365 7.818,3.323 7.763,3.249 7.706,3.142 7.606,2.955 7.483,2.756 7.387,2.571 7.326,2.452 7.272,2.367 7.324,2.24 7.155,2.401 7.183,2.511 7.28,2.702 7.375,2.889 7.5,3.088 7.599,3.272 7.824,3.702 8.35,3.499 8.408,3.382 M 7.796,1.432 C 8.119,1.09 8.003,0.816 7.846,0.523 7.549,0.017 7.05,-0.957 6.705,-1.412 6.484,-1.699 6.352,-1.805 6.164,-1.792 6.042,-1.784 5.844,-1.705 5.551,-1.57 5.4,-1.5 5.293,-1.443 5.214,-1.39 5.08,-1.299 4.965,-1.16 4.986,-0.95 c 0.026,-0.095 0.139,-0.207 0.283,-0.308 0.246,-0.107 0.466,-0.231 0.738,-0.32 0.279,-0.105 0.448,0.093 0.607,0.298 0.342,0.463 0.857,1.412 1.133,1.935 0.232,0.444 0.089,0.709 0.049,0.777 M -0.82,0.247 -0.795,0.081 -1.536,0.132 -1.92,1.798 -1.848,2.193 -1.41,0.285 -0.82,0.247 z m -1.076,2.51 0.497,1.274 0.169,0 -0.62,-1.594 -0.046,0.32 z M -2.419,0.284 -2.433,0.137 -3.172,0.115 -3.229,4.031 -3.079,4.03 -3.023,0.271 -2.419,0.284 z M -4.133,3.022 -4.132,2.874 -5.06,2.837 -5.118,3.443 c -0.022,0.191 -0.357,0.314 -0.595,0.199 0.084,0.159 0.693,0.223 0.742,-0.121 l 0.051,-0.525 0.787,0.026 z m -0.7,-2.319 -0.076,0.758 C -4.937,1.697 -5.095,1.752 -5.226,1.801 -5.47,1.881 -5.904,2.02 -6.151,2.098 -6.504,2.211 -6.687,2.413 -6.757,2.765 L -6.888,3.424 C -6.913,3.546 -6.966,3.877 -6.766,3.944 -6.778,3.822 -6.796,3.758 -6.762,3.58 -6.727,3.399 -6.689,3.217 -6.655,3.036 -6.576,2.611 -6.496,2.374 -6.087,2.245 L -5.12,1.927 c 0.184,-0.066 0.331,-0.149 0.351,-0.382 0.025,-0.219 0.031,-0.28 0.054,-0.498 0,-0.104 -0.01,-0.246 -0.118,-0.344 m -1.646,0.529 c 0.044,0.004 0.135,0.009 0.178,0.014 0.048,-0.26 0.027,-0.183 0.073,-0.442 0.071,-0.411 0.138,-0.685 0.298,-0.771 0.099,-0.054 0.227,-0.043 0.453,-0.007 l 0.796,0.11 c 0.132,0.022 0.255,0.046 0.358,0.076 0.137,0.041 0.239,0.102 0.305,0.177 C -4.07,0.21 -4.154,0.102 -4.425,0.037 l -1.013,-0.159 c -0.312,-0.047 -0.469,-0.06 -0.587,0.004 -0.157,0.086 -0.276,0.336 -0.351,0.747 -0.057,0.312 -0.044,0.289 -0.103,0.603 m -1.398,-1.099 -1.081,3.897 0.148,0 0.963,-3.488 c 0.026,-0.105 0.068,-0.359 -0.03,-0.409 m -2.723,3.896 1.524,-4.264 c 0.094,-0.265 0.222,-0.406 0.394,-0.449 0.239,-0.059 1.083,0.216 1.311,0.313 0.123,0.043 0.182,0.085 0.258,0.162 -0.018,-0.058 -0.039,-0.106 -0.069,-0.145 -0.156,-0.204 -0.908,-0.398 -1.162,-0.454 -0.34,-0.076 -0.549,0.009 -0.684,0.166 -0.108,0.151 -0.174,0.335 -0.236,0.508 l -1.508,4.163 0.172,0 z m -0.794,-0.451 0.053,-0.154 -0.727,-0.016 -0.063,0.153 0.737,0.017 z m 0.572,-5.286 -2.356,5.051 -1.111,-0.036 -0.387,0.723 0.178,0 0.304,-0.574 1.113,0.037 2.321,-4.998 0.422,0.176 0.054,-0.141 -0.538,-0.238 z" />
          </g>
          <g
             transform="translate(210.7498,92.1598)"
             id="g6402">
            <path
               inkscape:connector-curvature="0"
               id="path6404"
               style="fill:#ffffff;fill-opacity:1;fill-rule:evenodd;stroke:none"
               d="m 0,0 0.886,-1.759 c 1.815,0.324 3.396,0.326 5.211,0 L 6.983,0 C 4.931,0.533 2.052,0.533 0,0" />
          </g>
          <g
             transform="translate(210.3326,92.3433)"
             id="g6406">
            <path
               inkscape:connector-curvature="0"
               id="path6408"
               style="fill:#141006;fill-opacity:1;fill-rule:nonzero;stroke:none"
               d="M 0,0 C 2.654,0.627 5.163,0.627 7.818,0 L 6.676,-2.267 5.879,-2.716 5.68,-2.106 C 4.517,-1.956 3.418,-1.951 2.259,-2.091 2.218,-2.096 1.992,-2.141 1.952,-2.146 L 1.938,-2.716 1.142,-2.267 0,0 z m 0.417,-0.184 0.886,-1.758 c 1.815,0.324 3.396,0.325 5.211,0 L 7.4,-0.184 c -2.052,0.533 -4.931,0.533 -6.983,0" />
          </g>
          <g
             transform="translate(212.0195,91.3992)"
             id="g6410">
            <path
               inkscape:connector-curvature="0"
               id="path6412"
               style="fill:#141006;fill-opacity:1;fill-rule:nonzero;stroke:none"
               d="M 0,0 C 0.044,-0.104 0.089,-0.208 0.133,-0.312 0.177,-0.416 0.222,-0.52 0.267,-0.624 0.177,-0.637 0.091,-0.652 0.004,-0.667 -0.1,-0.455 -0.204,-0.244 -0.307,-0.032 -0.411,0.179 -0.514,0.391 -0.617,0.603 -0.51,0.629 -0.401,0.655 -0.29,0.678 -0.253,0.591 -0.216,0.504 -0.179,0.416 -0.141,0.329 -0.104,0.242 -0.066,0.155 -0.084,0.246 -0.1,0.337 -0.115,0.428 -0.13,0.52 -0.144,0.612 -0.157,0.705 -0.039,0.728 0.081,0.748 0.201,0.767 0.204,0.662 0.207,0.556 0.213,0.452 0.219,0.348 0.226,0.243 0.235,0.14 0.314,0.023 0.393,-0.094 0.468,-0.212 0.544,-0.33 0.617,-0.449 0.69,-0.568 0.594,-0.58 0.497,-0.591 0.402,-0.604 0.337,-0.503 0.272,-0.402 0.205,-0.301 0.138,-0.2 0.069,-0.1 0,0 M 0.83,-0.553 C 0.762,-0.328 0.694,-0.102 0.627,0.124 0.56,0.349 0.492,0.575 0.425,0.8 0.624,0.826 0.826,0.848 1.03,0.868 1.044,0.794 1.059,0.719 1.073,0.645 0.999,0.638 0.926,0.631 0.853,0.624 0.875,0.529 0.897,0.434 0.919,0.339 0.989,0.345 1.059,0.351 1.129,0.358 1.145,0.283 1.159,0.207 1.173,0.132 1.106,0.127 1.039,0.121 0.972,0.115 c 0.017,-0.07 0.033,-0.14 0.049,-0.209 0.016,-0.07 0.033,-0.14 0.05,-0.21 0.061,0.005 0.123,0.01 0.185,0.015 0.015,-0.075 0.029,-0.15 0.045,-0.225 C 1.142,-0.525 0.985,-0.538 0.83,-0.553 M 1.81,0.418 C 1.805,0.482 1.8,0.546 1.795,0.61 1.793,0.645 1.786,0.666 1.776,0.673 1.766,0.681 1.744,0.684 1.713,0.683 1.702,0.682 1.692,0.682 1.68,0.681 1.685,0.622 1.691,0.562 1.696,0.502 1.702,0.443 1.707,0.383 1.713,0.324 c 0.004,0 0.009,0 0.016,-0.001 0.008,0 0.013,0 0.017,0 C 1.773,0.324 1.791,0.329 1.8,0.337 1.81,0.345 1.813,0.359 1.812,0.38 1.811,0.393 1.81,0.405 1.81,0.418 M 1.484,-0.503 C 1.447,-0.272 1.411,-0.04 1.374,0.191 1.338,0.422 1.302,0.654 1.266,0.885 1.415,0.896 1.564,0.904 1.715,0.909 1.911,0.916 2.037,0.9 2.091,0.867 2.146,0.834 2.173,0.755 2.174,0.628 2.174,0.58 2.174,0.531 2.175,0.483 2.175,0.381 2.164,0.314 2.14,0.279 2.117,0.244 2.075,0.217 2.014,0.198 2.074,0.184 2.117,0.161 2.141,0.128 2.166,0.095 2.177,0.043 2.178,-0.028 2.179,-0.104 2.18,-0.18 2.18,-0.256 2.181,-0.332 2.182,-0.408 2.182,-0.484 2.08,-0.485 1.978,-0.486 1.876,-0.488 c -0.006,0.08 -0.012,0.16 -0.018,0.24 -0.006,0.08 -0.011,0.16 -0.017,0.24 C 1.838,0.022 1.831,0.041 1.82,0.051 1.808,0.061 1.787,0.065 1.757,0.064 1.75,0.064 1.743,0.064 1.736,0.063 1.745,-0.029 1.753,-0.122 1.761,-0.214 1.77,-0.306 1.779,-0.398 1.787,-0.49 1.686,-0.494 1.585,-0.498 1.484,-0.503 M 2.696,0.012 C 2.729,0.011 2.763,0.01 2.798,0.008 c 0,0.09 0.002,0.18 0.003,0.27 10e-4,0.09 10e-4,0.18 10e-4,0.27 C 2.783,0.459 2.765,0.369 2.747,0.28 2.73,0.191 2.712,0.101 2.696,0.012 M 2.326,-0.484 C 2.364,-0.251 2.402,-0.018 2.448,0.215 2.494,0.448 2.545,0.681 2.599,0.914 2.759,0.907 2.918,0.901 3.077,0.892 3.081,0.657 3.086,0.423 3.083,0.19 3.081,-0.043 3.074,-0.276 3.065,-0.509 2.969,-0.504 2.874,-0.499 2.779,-0.494 2.781,-0.403 2.784,-0.311 2.787,-0.219 2.744,-0.217 2.701,-0.216 2.658,-0.214 2.641,-0.306 2.625,-0.398 2.61,-0.489 2.516,-0.486 2.421,-0.485 2.326,-0.484 M 3.215,-0.519 C 3.264,-0.29 3.313,-0.06 3.362,0.169 3.411,0.399 3.46,0.628 3.509,0.858 3.637,0.846 3.763,0.832 3.889,0.816 3.835,0.626 3.782,0.436 3.729,0.247 3.676,0.057 3.624,-0.133 3.571,-0.323 3.632,-0.329 3.693,-0.335 3.753,-0.342 3.731,-0.415 3.707,-0.488 3.685,-0.561 3.529,-0.545 3.373,-0.531 3.215,-0.519 M 4.31,-0.146 C 4.341,-0.151 4.372,-0.156 4.403,-0.161 4.43,-0.076 4.459,0.008 4.487,0.094 4.515,0.178 4.542,0.264 4.57,0.349 4.526,0.267 4.482,0.185 4.438,0.102 4.395,0.02 4.353,-0.063 4.31,-0.146 M 3.814,-0.576 C 3.921,-0.357 4.03,-0.138 4.144,0.078 4.258,0.295 4.376,0.51 4.497,0.724 4.641,0.696 4.783,0.667 4.922,0.635 4.855,0.413 4.789,0.192 4.716,-0.026 4.644,-0.244 4.569,-0.461 4.492,-0.677 4.406,-0.662 4.32,-0.648 4.234,-0.633 c 0.03,0.086 0.06,0.172 0.09,0.259 C 4.285,-0.368 4.246,-0.362 4.207,-0.356 4.163,-0.441 4.12,-0.526 4.079,-0.611 3.992,-0.598 3.903,-0.587 3.814,-0.576" />
          </g>
          <g
             transform="translate(210.0391,103.1595)"
             id="g6414">
            <path
               inkscape:connector-curvature="0"
               id="path6416"
               style="fill:#141006;fill-opacity:1;fill-rule:nonzero;stroke:none"
               d="m 0,0 0.001,0.108 0.116,0 L 0.116,-0.367 0,0 z m 1.604,-2.375 0.093,-0.156 -0.878,0 -0.087,0.156 0.01,0 -0.242,0.773 0.426,-0.773 0.678,0 z m -1.036,0 0.051,-0.156 -0.852,0 -1.015,2.639 0.221,0 0.928,-2.483 0.667,0 z m 2.076,0.472 c -0.063,0.513 -0.128,1.025 -0.19,1.537 -0.003,0.019 -0.007,0.035 -0.013,0.048 -0.005,0.009 -0.011,0.016 -0.017,0.02 -0.005,0.004 -0.012,0.006 -0.02,0.008 l 0,0 C 2.4,-0.289 2.397,-0.289 2.393,-0.288 l -0.018,0.127 c -10e-4,0.006 -0.002,0.018 -10e-4,0.025 0.011,0.004 0.034,0.005 0.043,0.005 0.019,0 0.057,-0.001 0.073,-0.012 0.006,-0.005 0.01,-0.029 0.011,-0.036 0.033,-0.283 0.067,-0.566 0.102,-0.85 0.034,-0.283 0.068,-0.566 0.102,-0.849 10e-4,-0.005 0.002,-0.017 10e-4,-0.025 -0.009,-0.002 -0.022,-0.003 -0.027,-0.003 -0.009,0 -0.023,10e-4 -0.035,0.003 m -1.323,1.476 c -0.028,0.134 -0.048,0.316 0.059,0.416 -0.005,-0.08 0.007,-0.163 0.021,-0.234 0.053,-0.263 0.107,-0.525 0.16,-0.788 0.054,-0.262 0.106,-0.525 0.16,-0.787 0.035,-0.172 0.106,-0.387 0.271,-0.476 0.172,-0.093 0.544,-0.097 0.736,-0.097 0.177,0 0.545,0.003 0.7,0.098 0.073,0.045 0.114,0.119 0.137,0.201 -10e-4,-0.287 -0.104,-0.39 -0.427,-0.432 l -10e-4,0 c -0.279,-0.036 -0.648,-0.034 -0.927,0 -0.177,0.021 -0.321,0.05 -0.424,0.185 L 1.745,-2.268 1.712,-2.21 C 1.687,-2.151 1.667,-2.081 1.65,-2.002 l -0.329,1.575 z m 4.539,0.001 -0.049,-0.411 -0.981,0 0.008,0.156 0.044,0 0.821,0 0.065,0 0.007,0.064 c 0.014,0.126 0.029,0.252 0.044,0.378 0.005,0.046 0.009,0.096 0.008,0.147 0.008,-0.016 0.015,-0.034 0.02,-0.052 C 5.87,-0.217 5.874,-0.311 5.86,-0.426 M 4.826,-0.291 4.822,-0.29 c -0.009,0.002 -0.022,0.003 -0.037,0.003 -0.014,0 -0.024,-0.001 -0.032,-0.002 l 0,0 C 4.747,-0.291 4.743,-0.293 4.739,-0.296 l 0,0 C 4.733,-0.301 4.727,-0.309 4.723,-0.319 L 4.715,-0.364 4.662,-1.903 C 4.659,-1.902 4.656,-1.901 4.653,-1.9 4.65,-1.894 4.651,-1.878 4.651,-1.871 c 0.008,0.283 0.019,0.566 0.028,0.849 0.009,0.283 0.019,0.566 0.028,0.849 0,0.006 0.002,0.029 0.007,0.033 0.01,0.008 0.044,0.009 0.056,0.009 0.013,0 0.05,0 0.061,-0.008 0.003,-0.006 0.002,-0.021 0.002,-0.027 L 4.826,-0.291 z m 0.86,-1.082 0.059,0 L 5.67,-2.001 C 5.656,-2.116 5.632,-2.211 5.597,-2.284 5.561,-2.361 5.511,-2.416 5.448,-2.45 l 0,0 C 5.384,-2.484 5.288,-2.51 5.159,-2.526 5.037,-2.541 4.884,-2.549 4.701,-2.549 c -0.19,0 -0.316,0.008 -0.439,0.023 -0.132,0.017 -0.228,0.042 -0.289,0.077 -0.06,0.035 -0.105,0.091 -0.135,0.168 -0.028,0.071 -0.044,0.162 -0.048,0.273 0.025,-0.116 0.075,-0.227 0.175,-0.287 0.161,-0.095 0.54,-0.098 0.723,-0.098 0.187,0 0.546,0.004 0.712,0.097 0.163,0.09 0.215,0.311 0.235,0.482 0.017,0.147 0.034,0.294 0.051,0.441 m 1.524,1.481 -0.159,-0.751 -0.114,0 c 0.029,0.135 0.056,0.27 0.084,0.405 0.023,0.115 0.047,0.231 0.071,0.346 l 0.118,0 z m 1.026,0 0.167,0 -0.785,-2.639 -0.867,0 0.036,0.156 0.677,0 0.054,0 0.015,0.052 c 0.124,0.428 0.248,0.856 0.371,1.285 l 0.332,1.146 z m -1.552,-2.483 -0.033,-0.156 -0.865,0 0.023,0.156 0.005,0 0.709,0 0.059,0 0.011,0.057 c 0.042,0.209 0.085,0.417 0.128,0.625 0.039,0.189 0.078,0.379 0.118,0.568 l 0.108,0 C 6.906,-1.304 6.866,-1.483 6.825,-1.662 6.778,-1.871 6.731,-2.079 6.684,-2.288 l -0.019,-0.087 0.019,0 z m 3.081,2.483 -1.043,-2.639 -0.872,0 0.051,0.156 0.639,0 0.049,0 0.018,0.046 c 0.312,0.812 0.623,1.625 0.935,2.437 l 0.223,0 z" />
          </g>
          <g
             transform="translate(210.1555,102.7926)"
             id="g6418">
            <path
               inkscape:connector-curvature="0"
               id="path6420"
               style="fill:#a1a1a4;fill-opacity:1;fill-rule:evenodd;stroke:none"
               d="m 0,0 0.001,0.706 1.021,0 L 1.004,0.619 C 0.929,0.252 0.868,-0.117 0.81,-0.487 l 0.879,-1.521 -0.879,0 -0.426,0.773 0.242,-0.773 -0.841,0 -1.015,2.714 1.006,0 L 0,0 z M 1.285,0.122 C 1.25,0.291 1.233,0.534 1.415,0.628 1.594,0.721 2.063,0.721 2.264,0.721 2.48,0.721 2.944,0.72 3.14,0.626 3.321,0.539 3.371,0.323 3.381,0.14 3.411,-0.385 3.441,-0.91 3.47,-1.435 3.48,-1.599 3.469,-1.831 3.311,-1.928 3.082,-2.069 2.111,-2.057 1.875,-1.929 1.71,-1.84 1.639,-1.625 1.604,-1.453 L 1.285,0.122 z M 5.702,0.128 C 5.685,-0.019 5.668,-0.167 5.651,-0.314 l -0.961,0 C 4.699,-0.143 4.706,0.029 4.716,0.2 4.717,0.207 4.718,0.222 4.715,0.228 4.704,0.236 4.666,0.236 4.653,0.236 4.642,0.236 4.608,0.235 4.598,0.227 4.593,0.223 4.591,0.2 4.59,0.194 4.581,-0.089 4.572,-0.372 4.563,-0.655 4.553,-0.938 4.543,-1.221 4.534,-1.504 c 0,-0.007 0,-0.023 0.003,-0.029 0.008,-0.005 0.034,-0.006 0.043,-0.006 0.009,0 0.033,0 0.041,0.005 0.004,0.007 0.005,0.027 0.006,0.035 0.012,0.242 0.024,0.483 0.038,0.724 l 0.931,0 C 5.571,-0.999 5.544,-1.223 5.518,-1.447 5.498,-1.618 5.447,-1.839 5.284,-1.93 5.117,-2.022 4.758,-2.027 4.571,-2.027 c -0.182,0 -0.562,0.004 -0.722,0.099 -0.16,0.095 -0.192,0.319 -0.197,0.487 L 3.606,0.134 c -0.005,0.181 0.023,0.408 0.207,0.495 0.192,0.091 0.649,0.092 0.861,0.092 0.205,0 0.68,0 0.863,-0.096 C 5.716,0.531 5.723,0.303 5.702,0.128 m 1.119,-0.404 0.118,0 0.223,0.982 1.024,0 -0.784,-2.714 -0.854,0 0.283,1.25 -0.109,0 -0.257,-1.25 -0.85,0 0.39,2.714 1.018,0 -0.202,-0.982 z m 1.66,0.982 1.033,0 -1.041,-2.714 -0.862,0 0.87,2.714 z M 2.59,-1.536 c 0,0.008 -10e-4,0.02 -10e-4,0.025 C 2.521,-0.944 2.452,-0.378 2.384,0.188 2.383,0.195 2.379,0.218 2.373,0.224 2.357,0.234 2.319,0.236 2.3,0.236 2.292,0.236 2.269,0.235 2.257,0.231 2.256,0.224 2.258,0.212 2.258,0.206 2.337,-0.36 2.415,-0.926 2.496,-1.492 c 10e-4,-0.007 0.006,-0.031 0.012,-0.036 0.011,-0.009 0.04,-0.011 0.054,-0.011 0.006,0 0.019,10e-4 0.028,0.003" />
          </g>
          <g
             transform="translate(209.0295,103.4265)"
             id="g6422">
            <path
               inkscape:connector-curvature="0"
               id="path6424"
               style="fill:#ffffff;fill-opacity:1;fill-rule:nonzero;stroke:none"
               d="M 0,0 0.85,0 1.197,-1.096 1.198,0 2.06,0 C 1.982,-0.382 1.921,-0.751 1.861,-1.136 2.151,-1.611 2.42,-2.085 2.692,-2.57 l -0.714,0 -0.75,1.362 0.426,-1.362 -0.694,0 L 0,0 z m 3.313,-0.438 c 0.04,-0.283 0.079,-0.566 0.119,-0.849 0.04,-0.283 0.079,-0.566 0.119,-0.849 0.006,-0.039 0.018,-0.067 0.039,-0.083 0.022,-0.017 0.054,-0.025 0.098,-0.025 0.041,0 0.068,0.008 0.082,0.023 0.015,0.016 0.021,0.044 0.016,0.085 C 3.752,-1.853 3.718,-1.57 3.684,-1.287 3.649,-1.004 3.615,-0.721 3.582,-0.438 3.577,-0.396 3.563,-0.367 3.54,-0.351 3.515,-0.334 3.477,-0.326 3.426,-0.326 3.38,-0.326 3.348,-0.334 3.331,-0.352 3.313,-0.369 3.308,-0.397 3.313,-0.438 m -0.832,-0.06 c -0.046,0.229 -0.015,0.372 0.093,0.428 0.109,0.057 0.382,0.085 0.816,0.085 0.441,0 0.723,-0.029 0.845,-0.088 0.121,-0.058 0.188,-0.2 0.2,-0.425 0.031,-0.525 0.06,-1.05 0.09,-1.575 C 4.538,-2.299 4.495,-2.442 4.4,-2.501 4.305,-2.559 4.084,-2.589 3.738,-2.589 c -0.358,0 -0.593,0.03 -0.702,0.089 -0.11,0.059 -0.19,0.202 -0.235,0.427 -0.054,0.263 -0.106,0.525 -0.16,0.788 -0.053,0.262 -0.106,0.525 -0.16,0.787 m 4.276,0 C 6.742,-0.624 6.727,-0.75 6.713,-0.876 l -0.822,0 c 0.008,0.146 0.015,0.292 0.023,0.438 0.002,0.042 -0.007,0.071 -0.028,0.087 -0.021,0.017 -0.057,0.025 -0.107,0.025 -0.046,0 -0.081,-0.009 -0.101,-0.026 C 5.658,-0.369 5.646,-0.397 5.645,-0.438 5.635,-0.721 5.626,-1.004 5.617,-1.287 5.608,-1.57 5.597,-1.853 5.589,-2.136 5.588,-2.175 5.596,-2.203 5.615,-2.219 c 0.018,-0.017 0.049,-0.025 0.091,-0.025 0.042,0 0.071,0.008 0.088,0.023 0.018,0.016 0.028,0.044 0.031,0.085 0.005,0.109 0.01,0.218 0.016,0.327 0.005,0.109 0.012,0.219 0.018,0.328 l 0.783,0 C 6.619,-1.678 6.596,-1.876 6.573,-2.073 6.547,-2.299 6.481,-2.442 6.375,-2.501 6.27,-2.559 6.045,-2.589 5.698,-2.589 5.34,-2.589 5.111,-2.559 5.012,-2.5 4.911,-2.44 4.856,-2.298 4.85,-2.073 4.842,-1.81 4.834,-1.548 4.826,-1.285 4.819,-1.023 4.812,-0.76 4.804,-0.498 c -0.007,0.229 0.047,0.372 0.166,0.428 0.119,0.057 0.397,0.085 0.83,0.085 0.442,0 0.718,-0.029 0.83,-0.088 0.112,-0.059 0.153,-0.2 0.127,-0.425 M 7.193,0 8.061,0 C 8.028,-0.164 7.993,-0.327 7.96,-0.491 7.927,-0.654 7.893,-0.818 7.859,-0.981 l 0.264,0 c 0.037,0.163 0.074,0.327 0.111,0.49 C 8.272,-0.327 8.309,-0.164 8.345,0 L 9.217,0 C 9.093,-0.429 8.969,-0.857 8.845,-1.285 8.721,-1.714 8.597,-2.142 8.474,-2.57 l -0.71,0 c 0.046,0.208 0.094,0.416 0.141,0.625 0.047,0.208 0.094,0.416 0.142,0.625 l -0.257,0 C 7.747,-1.529 7.704,-1.737 7.66,-1.945 7.617,-2.154 7.574,-2.362 7.532,-2.57 l -0.708,0 c 0.062,0.428 0.123,0.856 0.185,1.285 0.062,0.428 0.123,0.856 0.184,1.285 m 2.466,0 0.877,0 C 10.207,-0.857 9.879,-1.714 9.549,-2.57 l -0.714,0 L 9.659,0 z" />
          </g>
          <g
             transform="translate(215.6756,102.6328)"
             id="g6426">
            <path
               inkscape:connector-curvature="0"
               id="path6428"
               style="fill:#a1a1a4;fill-opacity:1;fill-rule:nonzero;stroke:none"
               d="m 0,0 -0.667,0 0.004,0.097 0.673,0 L 0,0 z M -0.777,0.536 C -0.966,0.569 -1.066,0.496 -1.069,0.389 l -0.053,-1.698 0,-0.011 c -0.073,0.058 -0.094,0.122 -0.092,0.194 l 0.048,1.578 c 0.007,0.193 0.364,0.147 0.389,0.084 m 0.572,-1.342 0.108,0 C -0.119,-1.003 -0.118,-1 -0.141,-1.196 c -0.044,-0.376 -0.089,-0.475 -0.46,-0.515 -0.202,-0.022 -0.466,-0.026 -0.669,-0.01 -0.181,0.014 -0.367,0.058 -0.411,0.189 0.079,-0.053 0.194,-0.084 0.407,-0.094 0.21,-0.011 0.463,-0.012 0.669,0.013 0.337,0.041 0.331,0.199 0.367,0.513 l 0.033,0.294 z m 1.535,1.511 -0.147,-0.713 -0.117,0 0.147,0.713 0.117,0 z m 1.141,0 -0.693,-2.399 -0.554,0 0.022,0.097 0.435,0 0.665,2.302 0.125,0 z m -1.043,-1.149 -0.325,0 -0.279,-1.25 -0.54,0 0.014,0.097 0.429,0 0.257,1.25 0.466,0 -0.022,-0.097 z m 2.355,1.149 -0.921,-2.399 -0.537,0 0.031,0.097 0.409,0 0.884,2.302 0.134,0 z m -10.185,-0.003 0.85,-2.271 0.408,0 0.035,-0.111 -0.521,0 -0.891,2.382 0.119,0 z m 1.028,-0.64 0.01,0.641 0.099,0 -0.018,-0.818 -0.091,0.177 z m 1.213,-1.631 0.061,-0.111 -0.513,0 -0.667,1.216 0,0.204 0.723,-1.309 0.396,0 z m 1.367,0.252 -0.207,1.749 c -0.013,0.11 -0.192,0.123 -0.31,0.099 0.04,0.047 0.352,0.135 0.408,-0.051 l 0.189,-1.615 c 0.008,-0.068 -0.026,-0.156 -0.08,-0.182 M -4.099,0.392 C -4.11,0.446 -4.118,0.651 -3.975,0.651 -4.031,0.624 -4.008,0.484 -3.989,0.391 l 0.306,-1.495 c 0.025,-0.123 0.057,-0.241 0.092,-0.312 0.027,-0.055 0.06,-0.093 0.101,-0.118 0.234,-0.143 1.042,-0.143 1.264,0 -0.044,-0.155 -0.357,-0.189 -0.59,-0.194 -0.154,-0.003 -0.314,0.005 -0.448,0.023 -0.179,0.024 -0.315,0.046 -0.41,0.212 -0.042,0.073 -0.075,0.168 -0.098,0.285 l -0.327,1.6 z" />
          </g>
        </g>
      </g>
    </g>
  </g>
</svg>
